G04 #@! TF.GenerationSoftware,KiCad,Pcbnew,(5.1.6)-1*
G04 #@! TF.CreationDate,2021-11-23T16:53:37-05:00*
G04 #@! TF.ProjectId,OpenC64Cart,4f70656e-4336-4344-9361-72742e6b6963,2*
G04 #@! TF.SameCoordinates,Original*
G04 #@! TF.FileFunction,Legend,Bot*
G04 #@! TF.FilePolarity,Positive*
%FSLAX46Y46*%
G04 Gerber Fmt 4.6, Leading zero omitted, Abs format (unit mm)*
G04 Created by KiCad (PCBNEW (5.1.6)-1) date 2021-11-23 16:53:37*
%MOMM*%
%LPD*%
G01*
G04 APERTURE LIST*
%ADD10C,0.150000*%
%ADD11C,0.300000*%
%ADD12C,0.120000*%
%ADD13O,1.600000X1.600000*%
%ADD14R,1.600000X1.600000*%
%ADD15C,1.600000*%
%ADD16R,1.800000X1.800000*%
%ADD17C,1.800000*%
%ADD18O,1.070000X1.800000*%
%ADD19R,1.070000X1.800000*%
%ADD20C,5.500000*%
%ADD21O,1.501140X2.199640*%
%ADD22C,1.998980*%
%ADD23R,58.420000X8.300000*%
%ADD24R,1.524000X8.000000*%
G04 APERTURE END LIST*
D10*
X93218000Y-102870000D02*
X93218000Y-111506000D01*
X110998000Y-102870000D02*
X110998000Y-111506000D01*
X96232023Y-104292761D02*
X96089166Y-104340380D01*
X95851071Y-104340380D01*
X95755833Y-104292761D01*
X95708214Y-104245142D01*
X95660595Y-104149904D01*
X95660595Y-104054666D01*
X95708214Y-103959428D01*
X95755833Y-103911809D01*
X95851071Y-103864190D01*
X96041547Y-103816571D01*
X96136785Y-103768952D01*
X96184404Y-103721333D01*
X96232023Y-103626095D01*
X96232023Y-103530857D01*
X96184404Y-103435619D01*
X96136785Y-103388000D01*
X96041547Y-103340380D01*
X95803452Y-103340380D01*
X95660595Y-103388000D01*
X95089166Y-104340380D02*
X95184404Y-104292761D01*
X95232023Y-104197523D01*
X95232023Y-103340380D01*
X94565357Y-104340380D02*
X94660595Y-104292761D01*
X94708214Y-104245142D01*
X94755833Y-104149904D01*
X94755833Y-103864190D01*
X94708214Y-103768952D01*
X94660595Y-103721333D01*
X94565357Y-103673714D01*
X94422500Y-103673714D01*
X94327261Y-103721333D01*
X94279642Y-103768952D01*
X94232023Y-103864190D01*
X94232023Y-104149904D01*
X94279642Y-104245142D01*
X94327261Y-104292761D01*
X94422500Y-104340380D01*
X94565357Y-104340380D01*
X93946309Y-103673714D02*
X93565357Y-103673714D01*
X93803452Y-103340380D02*
X93803452Y-104197523D01*
X93755833Y-104292761D01*
X93660595Y-104340380D01*
X93565357Y-104340380D01*
X94993928Y-105323714D02*
X94993928Y-105990380D01*
X95232023Y-104942761D02*
X95470119Y-105657047D01*
X94851071Y-105657047D01*
X92327261Y-104990380D02*
X91755833Y-104990380D01*
X92041547Y-105990380D02*
X92041547Y-104990380D01*
X91422500Y-105466571D02*
X91089166Y-105466571D01*
X90946309Y-105990380D02*
X91422500Y-105990380D01*
X91422500Y-104990380D01*
X90946309Y-104990380D01*
X90565357Y-105942761D02*
X90422500Y-105990380D01*
X90184404Y-105990380D01*
X90089166Y-105942761D01*
X90041547Y-105895142D01*
X89993928Y-105799904D01*
X89993928Y-105704666D01*
X90041547Y-105609428D01*
X90089166Y-105561809D01*
X90184404Y-105514190D01*
X90374880Y-105466571D01*
X90470119Y-105418952D01*
X90517738Y-105371333D01*
X90565357Y-105276095D01*
X90565357Y-105180857D01*
X90517738Y-105085619D01*
X90470119Y-105038000D01*
X90374880Y-104990380D01*
X90136785Y-104990380D01*
X89993928Y-105038000D01*
X89708214Y-104990380D02*
X89136785Y-104990380D01*
X89422500Y-105990380D02*
X89422500Y-104990380D01*
X88279642Y-105990380D02*
X88851071Y-105990380D01*
X88565357Y-105990380D02*
X88565357Y-104990380D01*
X88660595Y-105133238D01*
X88755833Y-105228476D01*
X88851071Y-105276095D01*
X94946309Y-106640380D02*
X95422500Y-106640380D01*
X95470119Y-107116571D01*
X95422500Y-107068952D01*
X95327261Y-107021333D01*
X95089166Y-107021333D01*
X94993928Y-107068952D01*
X94946309Y-107116571D01*
X94898690Y-107211809D01*
X94898690Y-107449904D01*
X94946309Y-107545142D01*
X94993928Y-107592761D01*
X95089166Y-107640380D01*
X95327261Y-107640380D01*
X95422500Y-107592761D01*
X95470119Y-107545142D01*
X92327261Y-106640380D02*
X91755833Y-106640380D01*
X92041547Y-107640380D02*
X92041547Y-106640380D01*
X91422500Y-107116571D02*
X91089166Y-107116571D01*
X90946309Y-107640380D02*
X91422500Y-107640380D01*
X91422500Y-106640380D01*
X90946309Y-106640380D01*
X90565357Y-107592761D02*
X90422500Y-107640380D01*
X90184404Y-107640380D01*
X90089166Y-107592761D01*
X90041547Y-107545142D01*
X89993928Y-107449904D01*
X89993928Y-107354666D01*
X90041547Y-107259428D01*
X90089166Y-107211809D01*
X90184404Y-107164190D01*
X90374880Y-107116571D01*
X90470119Y-107068952D01*
X90517738Y-107021333D01*
X90565357Y-106926095D01*
X90565357Y-106830857D01*
X90517738Y-106735619D01*
X90470119Y-106688000D01*
X90374880Y-106640380D01*
X90136785Y-106640380D01*
X89993928Y-106688000D01*
X89708214Y-106640380D02*
X89136785Y-106640380D01*
X89422500Y-107640380D02*
X89422500Y-106640380D01*
X88279642Y-107640380D02*
X88851071Y-107640380D01*
X88565357Y-107640380D02*
X88565357Y-106640380D01*
X88660595Y-106783238D01*
X88755833Y-106878476D01*
X88851071Y-106926095D01*
X94993928Y-108290380D02*
X95184404Y-108290380D01*
X95279642Y-108338000D01*
X95327261Y-108385619D01*
X95422500Y-108528476D01*
X95470119Y-108718952D01*
X95470119Y-109099904D01*
X95422500Y-109195142D01*
X95374880Y-109242761D01*
X95279642Y-109290380D01*
X95089166Y-109290380D01*
X94993928Y-109242761D01*
X94946309Y-109195142D01*
X94898690Y-109099904D01*
X94898690Y-108861809D01*
X94946309Y-108766571D01*
X94993928Y-108718952D01*
X95089166Y-108671333D01*
X95279642Y-108671333D01*
X95374880Y-108718952D01*
X95422500Y-108766571D01*
X95470119Y-108861809D01*
X92327261Y-108290380D02*
X91755833Y-108290380D01*
X92041547Y-109290380D02*
X92041547Y-108290380D01*
X91422500Y-108766571D02*
X91089166Y-108766571D01*
X90946309Y-109290380D02*
X91422500Y-109290380D01*
X91422500Y-108290380D01*
X90946309Y-108290380D01*
X90565357Y-109242761D02*
X90422500Y-109290380D01*
X90184404Y-109290380D01*
X90089166Y-109242761D01*
X90041547Y-109195142D01*
X89993928Y-109099904D01*
X89993928Y-109004666D01*
X90041547Y-108909428D01*
X90089166Y-108861809D01*
X90184404Y-108814190D01*
X90374880Y-108766571D01*
X90470119Y-108718952D01*
X90517738Y-108671333D01*
X90565357Y-108576095D01*
X90565357Y-108480857D01*
X90517738Y-108385619D01*
X90470119Y-108338000D01*
X90374880Y-108290380D01*
X90136785Y-108290380D01*
X89993928Y-108338000D01*
X89708214Y-108290380D02*
X89136785Y-108290380D01*
X89422500Y-109290380D02*
X89422500Y-108290380D01*
X88279642Y-109290380D02*
X88851071Y-109290380D01*
X88565357Y-109290380D02*
X88565357Y-108290380D01*
X88660595Y-108433238D01*
X88755833Y-108528476D01*
X88851071Y-108576095D01*
X95517738Y-109940380D02*
X94851071Y-109940380D01*
X95279642Y-110940380D01*
X92327261Y-109940380D02*
X91755833Y-109940380D01*
X92041547Y-110940380D02*
X92041547Y-109940380D01*
X91422500Y-110416571D02*
X91089166Y-110416571D01*
X90946309Y-110940380D02*
X91422500Y-110940380D01*
X91422500Y-109940380D01*
X90946309Y-109940380D01*
X90565357Y-110892761D02*
X90422500Y-110940380D01*
X90184404Y-110940380D01*
X90089166Y-110892761D01*
X90041547Y-110845142D01*
X89993928Y-110749904D01*
X89993928Y-110654666D01*
X90041547Y-110559428D01*
X90089166Y-110511809D01*
X90184404Y-110464190D01*
X90374880Y-110416571D01*
X90470119Y-110368952D01*
X90517738Y-110321333D01*
X90565357Y-110226095D01*
X90565357Y-110130857D01*
X90517738Y-110035619D01*
X90470119Y-109988000D01*
X90374880Y-109940380D01*
X90136785Y-109940380D01*
X89993928Y-109988000D01*
X89708214Y-109940380D02*
X89136785Y-109940380D01*
X89422500Y-110940380D02*
X89422500Y-109940380D01*
X88279642Y-110940380D02*
X88851071Y-110940380D01*
X88565357Y-110940380D02*
X88565357Y-109940380D01*
X88660595Y-110083238D01*
X88755833Y-110178476D01*
X88851071Y-110226095D01*
X96520000Y-102870000D02*
X96520000Y-111506000D01*
X114300000Y-104648000D02*
X80010000Y-104648000D01*
X114012023Y-104292761D02*
X113869166Y-104340380D01*
X113631071Y-104340380D01*
X113535833Y-104292761D01*
X113488214Y-104245142D01*
X113440595Y-104149904D01*
X113440595Y-104054666D01*
X113488214Y-103959428D01*
X113535833Y-103911809D01*
X113631071Y-103864190D01*
X113821547Y-103816571D01*
X113916785Y-103768952D01*
X113964404Y-103721333D01*
X114012023Y-103626095D01*
X114012023Y-103530857D01*
X113964404Y-103435619D01*
X113916785Y-103388000D01*
X113821547Y-103340380D01*
X113583452Y-103340380D01*
X113440595Y-103388000D01*
X112869166Y-104340380D02*
X112964404Y-104292761D01*
X113012023Y-104197523D01*
X113012023Y-103340380D01*
X112345357Y-104340380D02*
X112440595Y-104292761D01*
X112488214Y-104245142D01*
X112535833Y-104149904D01*
X112535833Y-103864190D01*
X112488214Y-103768952D01*
X112440595Y-103721333D01*
X112345357Y-103673714D01*
X112202500Y-103673714D01*
X112107261Y-103721333D01*
X112059642Y-103768952D01*
X112012023Y-103864190D01*
X112012023Y-104149904D01*
X112059642Y-104245142D01*
X112107261Y-104292761D01*
X112202500Y-104340380D01*
X112345357Y-104340380D01*
X111726309Y-103673714D02*
X111345357Y-103673714D01*
X111583452Y-103340380D02*
X111583452Y-104197523D01*
X111535833Y-104292761D01*
X111440595Y-104340380D01*
X111345357Y-104340380D01*
X113012023Y-104990380D02*
X112916785Y-104990380D01*
X112821547Y-105038000D01*
X112773928Y-105085619D01*
X112726309Y-105180857D01*
X112678690Y-105371333D01*
X112678690Y-105609428D01*
X112726309Y-105799904D01*
X112773928Y-105895142D01*
X112821547Y-105942761D01*
X112916785Y-105990380D01*
X113012023Y-105990380D01*
X113107261Y-105942761D01*
X113154880Y-105895142D01*
X113202500Y-105799904D01*
X113250119Y-105609428D01*
X113250119Y-105371333D01*
X113202500Y-105180857D01*
X113154880Y-105085619D01*
X113107261Y-105038000D01*
X113012023Y-104990380D01*
X110107261Y-104990380D02*
X109535833Y-104990380D01*
X109821547Y-105990380D02*
X109821547Y-104990380D01*
X109202500Y-105466571D02*
X108869166Y-105466571D01*
X108726309Y-105990380D02*
X109202500Y-105990380D01*
X109202500Y-104990380D01*
X108726309Y-104990380D01*
X108345357Y-105942761D02*
X108202500Y-105990380D01*
X107964404Y-105990380D01*
X107869166Y-105942761D01*
X107821547Y-105895142D01*
X107773928Y-105799904D01*
X107773928Y-105704666D01*
X107821547Y-105609428D01*
X107869166Y-105561809D01*
X107964404Y-105514190D01*
X108154880Y-105466571D01*
X108250119Y-105418952D01*
X108297738Y-105371333D01*
X108345357Y-105276095D01*
X108345357Y-105180857D01*
X108297738Y-105085619D01*
X108250119Y-105038000D01*
X108154880Y-104990380D01*
X107916785Y-104990380D01*
X107773928Y-105038000D01*
X107488214Y-104990380D02*
X106916785Y-104990380D01*
X107202500Y-105990380D02*
X107202500Y-104990380D01*
X106059642Y-105990380D02*
X106631071Y-105990380D01*
X106345357Y-105990380D02*
X106345357Y-104990380D01*
X106440595Y-105133238D01*
X106535833Y-105228476D01*
X106631071Y-105276095D01*
X112678690Y-107640380D02*
X113250119Y-107640380D01*
X112964404Y-107640380D02*
X112964404Y-106640380D01*
X113059642Y-106783238D01*
X113154880Y-106878476D01*
X113250119Y-106926095D01*
X110107261Y-106640380D02*
X109535833Y-106640380D01*
X109821547Y-107640380D02*
X109821547Y-106640380D01*
X109202500Y-107116571D02*
X108869166Y-107116571D01*
X108726309Y-107640380D02*
X109202500Y-107640380D01*
X109202500Y-106640380D01*
X108726309Y-106640380D01*
X108345357Y-107592761D02*
X108202500Y-107640380D01*
X107964404Y-107640380D01*
X107869166Y-107592761D01*
X107821547Y-107545142D01*
X107773928Y-107449904D01*
X107773928Y-107354666D01*
X107821547Y-107259428D01*
X107869166Y-107211809D01*
X107964404Y-107164190D01*
X108154880Y-107116571D01*
X108250119Y-107068952D01*
X108297738Y-107021333D01*
X108345357Y-106926095D01*
X108345357Y-106830857D01*
X108297738Y-106735619D01*
X108250119Y-106688000D01*
X108154880Y-106640380D01*
X107916785Y-106640380D01*
X107773928Y-106688000D01*
X107488214Y-106640380D02*
X106916785Y-106640380D01*
X107202500Y-107640380D02*
X107202500Y-106640380D01*
X106059642Y-107640380D02*
X106631071Y-107640380D01*
X106345357Y-107640380D02*
X106345357Y-106640380D01*
X106440595Y-106783238D01*
X106535833Y-106878476D01*
X106631071Y-106926095D01*
X113250119Y-108385619D02*
X113202500Y-108338000D01*
X113107261Y-108290380D01*
X112869166Y-108290380D01*
X112773928Y-108338000D01*
X112726309Y-108385619D01*
X112678690Y-108480857D01*
X112678690Y-108576095D01*
X112726309Y-108718952D01*
X113297738Y-109290380D01*
X112678690Y-109290380D01*
X110107261Y-108290380D02*
X109535833Y-108290380D01*
X109821547Y-109290380D02*
X109821547Y-108290380D01*
X109202500Y-108766571D02*
X108869166Y-108766571D01*
X108726309Y-109290380D02*
X109202500Y-109290380D01*
X109202500Y-108290380D01*
X108726309Y-108290380D01*
X108345357Y-109242761D02*
X108202500Y-109290380D01*
X107964404Y-109290380D01*
X107869166Y-109242761D01*
X107821547Y-109195142D01*
X107773928Y-109099904D01*
X107773928Y-109004666D01*
X107821547Y-108909428D01*
X107869166Y-108861809D01*
X107964404Y-108814190D01*
X108154880Y-108766571D01*
X108250119Y-108718952D01*
X108297738Y-108671333D01*
X108345357Y-108576095D01*
X108345357Y-108480857D01*
X108297738Y-108385619D01*
X108250119Y-108338000D01*
X108154880Y-108290380D01*
X107916785Y-108290380D01*
X107773928Y-108338000D01*
X107488214Y-108290380D02*
X106916785Y-108290380D01*
X107202500Y-109290380D02*
X107202500Y-108290380D01*
X106059642Y-109290380D02*
X106631071Y-109290380D01*
X106345357Y-109290380D02*
X106345357Y-108290380D01*
X106440595Y-108433238D01*
X106535833Y-108528476D01*
X106631071Y-108576095D01*
X113297738Y-109940380D02*
X112678690Y-109940380D01*
X113012023Y-110321333D01*
X112869166Y-110321333D01*
X112773928Y-110368952D01*
X112726309Y-110416571D01*
X112678690Y-110511809D01*
X112678690Y-110749904D01*
X112726309Y-110845142D01*
X112773928Y-110892761D01*
X112869166Y-110940380D01*
X113154880Y-110940380D01*
X113250119Y-110892761D01*
X113297738Y-110845142D01*
X110107261Y-109940380D02*
X109535833Y-109940380D01*
X109821547Y-110940380D02*
X109821547Y-109940380D01*
X109202500Y-110416571D02*
X108869166Y-110416571D01*
X108726309Y-110940380D02*
X109202500Y-110940380D01*
X109202500Y-109940380D01*
X108726309Y-109940380D01*
X108345357Y-110892761D02*
X108202500Y-110940380D01*
X107964404Y-110940380D01*
X107869166Y-110892761D01*
X107821547Y-110845142D01*
X107773928Y-110749904D01*
X107773928Y-110654666D01*
X107821547Y-110559428D01*
X107869166Y-110511809D01*
X107964404Y-110464190D01*
X108154880Y-110416571D01*
X108250119Y-110368952D01*
X108297738Y-110321333D01*
X108345357Y-110226095D01*
X108345357Y-110130857D01*
X108297738Y-110035619D01*
X108250119Y-109988000D01*
X108154880Y-109940380D01*
X107916785Y-109940380D01*
X107773928Y-109988000D01*
X107488214Y-109940380D02*
X106916785Y-109940380D01*
X107202500Y-110940380D02*
X107202500Y-109940380D01*
X106059642Y-110940380D02*
X106631071Y-110940380D01*
X106345357Y-110940380D02*
X106345357Y-109940380D01*
X106440595Y-110083238D01*
X106535833Y-110178476D01*
X106631071Y-110226095D01*
X80010000Y-111506000D02*
X80010000Y-102870000D01*
X114300000Y-111506000D02*
X80010000Y-111506000D01*
X114300000Y-102870000D02*
X114300000Y-111506000D01*
X80010000Y-102870000D02*
X114300000Y-102870000D01*
D11*
X111608333Y-119112142D02*
X111608333Y-120124047D01*
X111667857Y-120243095D01*
X111727380Y-120302619D01*
X111846428Y-120362142D01*
X112025000Y-120362142D01*
X112144047Y-120302619D01*
X111608333Y-119885952D02*
X111727380Y-119945476D01*
X111965476Y-119945476D01*
X112084523Y-119885952D01*
X112144047Y-119826428D01*
X112203571Y-119707380D01*
X112203571Y-119350238D01*
X112144047Y-119231190D01*
X112084523Y-119171666D01*
X111965476Y-119112142D01*
X111727380Y-119112142D01*
X111608333Y-119171666D01*
X111013095Y-119945476D02*
X111013095Y-119112142D01*
X111013095Y-118695476D02*
X111072619Y-118755000D01*
X111013095Y-118814523D01*
X110953571Y-118755000D01*
X111013095Y-118695476D01*
X111013095Y-118814523D01*
X110596428Y-119112142D02*
X110120238Y-119112142D01*
X110417857Y-118695476D02*
X110417857Y-119766904D01*
X110358333Y-119885952D01*
X110239285Y-119945476D01*
X110120238Y-119945476D01*
X109703571Y-119945476D02*
X109703571Y-118695476D01*
X109167857Y-119945476D02*
X109167857Y-119290714D01*
X109227380Y-119171666D01*
X109346428Y-119112142D01*
X109525000Y-119112142D01*
X109644047Y-119171666D01*
X109703571Y-119231190D01*
X108036904Y-119112142D02*
X108036904Y-119945476D01*
X108572619Y-119112142D02*
X108572619Y-119766904D01*
X108513095Y-119885952D01*
X108394047Y-119945476D01*
X108215476Y-119945476D01*
X108096428Y-119885952D01*
X108036904Y-119826428D01*
X107441666Y-119945476D02*
X107441666Y-118695476D01*
X107441666Y-119171666D02*
X107322619Y-119112142D01*
X107084523Y-119112142D01*
X106965476Y-119171666D01*
X106905952Y-119231190D01*
X106846428Y-119350238D01*
X106846428Y-119707380D01*
X106905952Y-119826428D01*
X106965476Y-119885952D01*
X107084523Y-119945476D01*
X107322619Y-119945476D01*
X107441666Y-119885952D01*
X106310714Y-119826428D02*
X106251190Y-119885952D01*
X106310714Y-119945476D01*
X106370238Y-119885952D01*
X106310714Y-119826428D01*
X106310714Y-119945476D01*
X105179761Y-119885952D02*
X105298809Y-119945476D01*
X105536904Y-119945476D01*
X105655952Y-119885952D01*
X105715476Y-119826428D01*
X105775000Y-119707380D01*
X105775000Y-119350238D01*
X105715476Y-119231190D01*
X105655952Y-119171666D01*
X105536904Y-119112142D01*
X105298809Y-119112142D01*
X105179761Y-119171666D01*
X104465476Y-119945476D02*
X104584523Y-119885952D01*
X104644047Y-119826428D01*
X104703571Y-119707380D01*
X104703571Y-119350238D01*
X104644047Y-119231190D01*
X104584523Y-119171666D01*
X104465476Y-119112142D01*
X104286904Y-119112142D01*
X104167857Y-119171666D01*
X104108333Y-119231190D01*
X104048809Y-119350238D01*
X104048809Y-119707380D01*
X104108333Y-119826428D01*
X104167857Y-119885952D01*
X104286904Y-119945476D01*
X104465476Y-119945476D01*
X103513095Y-119945476D02*
X103513095Y-119112142D01*
X103513095Y-119231190D02*
X103453571Y-119171666D01*
X103334523Y-119112142D01*
X103155952Y-119112142D01*
X103036904Y-119171666D01*
X102977380Y-119290714D01*
X102977380Y-119945476D01*
X102977380Y-119290714D02*
X102917857Y-119171666D01*
X102798809Y-119112142D01*
X102620238Y-119112142D01*
X102501190Y-119171666D01*
X102441666Y-119290714D01*
X102441666Y-119945476D01*
X100953571Y-118635952D02*
X102025000Y-120243095D01*
X100715476Y-118695476D02*
X100001190Y-118695476D01*
X100358333Y-119945476D02*
X100358333Y-118695476D01*
X99584523Y-119945476D02*
X99584523Y-118695476D01*
X99048809Y-119945476D02*
X99048809Y-119290714D01*
X99108333Y-119171666D01*
X99227380Y-119112142D01*
X99405952Y-119112142D01*
X99525000Y-119171666D01*
X99584523Y-119231190D01*
X97977380Y-119885952D02*
X98096428Y-119945476D01*
X98334523Y-119945476D01*
X98453571Y-119885952D01*
X98513095Y-119766904D01*
X98513095Y-119290714D01*
X98453571Y-119171666D01*
X98334523Y-119112142D01*
X98096428Y-119112142D01*
X97977380Y-119171666D01*
X97917857Y-119290714D01*
X97917857Y-119409761D01*
X98513095Y-119528809D01*
X97441666Y-119885952D02*
X97263095Y-119945476D01*
X96965476Y-119945476D01*
X96846428Y-119885952D01*
X96786904Y-119826428D01*
X96727380Y-119707380D01*
X96727380Y-119588333D01*
X96786904Y-119469285D01*
X96846428Y-119409761D01*
X96965476Y-119350238D01*
X97203571Y-119290714D01*
X97322619Y-119231190D01*
X97382142Y-119171666D01*
X97441666Y-119052619D01*
X97441666Y-118933571D01*
X97382142Y-118814523D01*
X97322619Y-118755000D01*
X97203571Y-118695476D01*
X96905952Y-118695476D01*
X96727380Y-118755000D01*
X95655952Y-119112142D02*
X95655952Y-119945476D01*
X96191666Y-119112142D02*
X96191666Y-119766904D01*
X96132142Y-119885952D01*
X96013095Y-119945476D01*
X95834523Y-119945476D01*
X95715476Y-119885952D01*
X95655952Y-119826428D01*
X95060714Y-119112142D02*
X95060714Y-120362142D01*
X95060714Y-119171666D02*
X94941666Y-119112142D01*
X94703571Y-119112142D01*
X94584523Y-119171666D01*
X94525000Y-119231190D01*
X94465476Y-119350238D01*
X94465476Y-119707380D01*
X94525000Y-119826428D01*
X94584523Y-119885952D01*
X94703571Y-119945476D01*
X94941666Y-119945476D01*
X95060714Y-119885952D01*
X93929761Y-119945476D02*
X93929761Y-119112142D01*
X93929761Y-119350238D02*
X93870238Y-119231190D01*
X93810714Y-119171666D01*
X93691666Y-119112142D01*
X93572619Y-119112142D01*
X92679761Y-119885952D02*
X92798809Y-119945476D01*
X93036904Y-119945476D01*
X93155952Y-119885952D01*
X93215476Y-119766904D01*
X93215476Y-119290714D01*
X93155952Y-119171666D01*
X93036904Y-119112142D01*
X92798809Y-119112142D01*
X92679761Y-119171666D01*
X92620238Y-119290714D01*
X92620238Y-119409761D01*
X93215476Y-119528809D01*
X92084523Y-119945476D02*
X92084523Y-119112142D01*
X92084523Y-119231190D02*
X92025000Y-119171666D01*
X91905952Y-119112142D01*
X91727380Y-119112142D01*
X91608333Y-119171666D01*
X91548809Y-119290714D01*
X91548809Y-119945476D01*
X91548809Y-119290714D02*
X91489285Y-119171666D01*
X91370238Y-119112142D01*
X91191666Y-119112142D01*
X91072619Y-119171666D01*
X91013095Y-119290714D01*
X91013095Y-119945476D01*
X89941666Y-119885952D02*
X90060714Y-119945476D01*
X90298809Y-119945476D01*
X90417857Y-119885952D01*
X90477380Y-119766904D01*
X90477380Y-119290714D01*
X90417857Y-119171666D01*
X90298809Y-119112142D01*
X90060714Y-119112142D01*
X89941666Y-119171666D01*
X89882142Y-119290714D01*
X89882142Y-119409761D01*
X90477380Y-119528809D01*
X89346428Y-119945476D02*
X89346428Y-118695476D01*
X88929761Y-119588333D01*
X88513095Y-118695476D01*
X88513095Y-119945476D01*
X87739285Y-119945476D02*
X87858333Y-119885952D01*
X87917857Y-119826428D01*
X87977380Y-119707380D01*
X87977380Y-119350238D01*
X87917857Y-119231190D01*
X87858333Y-119171666D01*
X87739285Y-119112142D01*
X87560714Y-119112142D01*
X87441666Y-119171666D01*
X87382142Y-119231190D01*
X87322619Y-119350238D01*
X87322619Y-119707380D01*
X87382142Y-119826428D01*
X87441666Y-119885952D01*
X87560714Y-119945476D01*
X87739285Y-119945476D01*
X86786904Y-119112142D02*
X86786904Y-119945476D01*
X86786904Y-119231190D02*
X86727380Y-119171666D01*
X86608333Y-119112142D01*
X86429761Y-119112142D01*
X86310714Y-119171666D01*
X86251190Y-119290714D01*
X86251190Y-119945476D01*
X85655952Y-119945476D02*
X85655952Y-118695476D01*
X85536904Y-119469285D02*
X85179761Y-119945476D01*
X85179761Y-119112142D02*
X85655952Y-119588333D01*
X84167857Y-119885952D02*
X84286904Y-119945476D01*
X84525000Y-119945476D01*
X84644047Y-119885952D01*
X84703571Y-119766904D01*
X84703571Y-119290714D01*
X84644047Y-119171666D01*
X84525000Y-119112142D01*
X84286904Y-119112142D01*
X84167857Y-119171666D01*
X84108333Y-119290714D01*
X84108333Y-119409761D01*
X84703571Y-119528809D01*
X83691666Y-119112142D02*
X83394047Y-119945476D01*
X83096428Y-119112142D02*
X83394047Y-119945476D01*
X83513095Y-120243095D01*
X83572619Y-120302619D01*
X83691666Y-120362142D01*
X81727380Y-118635952D02*
X82798809Y-120243095D01*
X81072619Y-118695476D02*
X80834523Y-118695476D01*
X80715476Y-118755000D01*
X80596428Y-118874047D01*
X80536904Y-119112142D01*
X80536904Y-119528809D01*
X80596428Y-119766904D01*
X80715476Y-119885952D01*
X80834523Y-119945476D01*
X81072619Y-119945476D01*
X81191666Y-119885952D01*
X81310714Y-119766904D01*
X81370238Y-119528809D01*
X81370238Y-119112142D01*
X81310714Y-118874047D01*
X81191666Y-118755000D01*
X81072619Y-118695476D01*
X80001190Y-119112142D02*
X80001190Y-120362142D01*
X80001190Y-119171666D02*
X79882142Y-119112142D01*
X79644047Y-119112142D01*
X79525000Y-119171666D01*
X79465476Y-119231190D01*
X79405952Y-119350238D01*
X79405952Y-119707380D01*
X79465476Y-119826428D01*
X79525000Y-119885952D01*
X79644047Y-119945476D01*
X79882142Y-119945476D01*
X80001190Y-119885952D01*
X78394047Y-119885952D02*
X78513095Y-119945476D01*
X78751190Y-119945476D01*
X78870238Y-119885952D01*
X78929761Y-119766904D01*
X78929761Y-119290714D01*
X78870238Y-119171666D01*
X78751190Y-119112142D01*
X78513095Y-119112142D01*
X78394047Y-119171666D01*
X78334523Y-119290714D01*
X78334523Y-119409761D01*
X78929761Y-119528809D01*
X77798809Y-119112142D02*
X77798809Y-119945476D01*
X77798809Y-119231190D02*
X77739285Y-119171666D01*
X77620238Y-119112142D01*
X77441666Y-119112142D01*
X77322619Y-119171666D01*
X77263095Y-119290714D01*
X77263095Y-119945476D01*
X75953571Y-119826428D02*
X76013095Y-119885952D01*
X76191666Y-119945476D01*
X76310714Y-119945476D01*
X76489285Y-119885952D01*
X76608333Y-119766904D01*
X76667857Y-119647857D01*
X76727380Y-119409761D01*
X76727380Y-119231190D01*
X76667857Y-118993095D01*
X76608333Y-118874047D01*
X76489285Y-118755000D01*
X76310714Y-118695476D01*
X76191666Y-118695476D01*
X76013095Y-118755000D01*
X75953571Y-118814523D01*
X74882142Y-118695476D02*
X75120238Y-118695476D01*
X75239285Y-118755000D01*
X75298809Y-118814523D01*
X75417857Y-118993095D01*
X75477380Y-119231190D01*
X75477380Y-119707380D01*
X75417857Y-119826428D01*
X75358333Y-119885952D01*
X75239285Y-119945476D01*
X75001190Y-119945476D01*
X74882142Y-119885952D01*
X74822619Y-119826428D01*
X74763095Y-119707380D01*
X74763095Y-119409761D01*
X74822619Y-119290714D01*
X74882142Y-119231190D01*
X75001190Y-119171666D01*
X75239285Y-119171666D01*
X75358333Y-119231190D01*
X75417857Y-119290714D01*
X75477380Y-119409761D01*
X73691666Y-119112142D02*
X73691666Y-119945476D01*
X73989285Y-118635952D02*
X74286904Y-119528809D01*
X73513095Y-119528809D01*
X73036904Y-119945476D02*
X73036904Y-118695476D01*
X72739285Y-118695476D01*
X72560714Y-118755000D01*
X72441666Y-118874047D01*
X72382142Y-118993095D01*
X72322619Y-119231190D01*
X72322619Y-119409761D01*
X72382142Y-119647857D01*
X72441666Y-119766904D01*
X72560714Y-119885952D01*
X72739285Y-119945476D01*
X73036904Y-119945476D01*
X71786904Y-119945476D02*
X71786904Y-119112142D01*
X71786904Y-118695476D02*
X71846428Y-118755000D01*
X71786904Y-118814523D01*
X71727380Y-118755000D01*
X71786904Y-118695476D01*
X71786904Y-118814523D01*
X70655952Y-119945476D02*
X70655952Y-119290714D01*
X70715476Y-119171666D01*
X70834523Y-119112142D01*
X71072619Y-119112142D01*
X71191666Y-119171666D01*
X70655952Y-119885952D02*
X70775000Y-119945476D01*
X71072619Y-119945476D01*
X71191666Y-119885952D01*
X71251190Y-119766904D01*
X71251190Y-119647857D01*
X71191666Y-119528809D01*
X71072619Y-119469285D01*
X70775000Y-119469285D01*
X70655952Y-119409761D01*
X69525000Y-119112142D02*
X69525000Y-120124047D01*
X69584523Y-120243095D01*
X69644047Y-120302619D01*
X69763095Y-120362142D01*
X69941666Y-120362142D01*
X70060714Y-120302619D01*
X69525000Y-119885952D02*
X69644047Y-119945476D01*
X69882142Y-119945476D01*
X70001190Y-119885952D01*
X70060714Y-119826428D01*
X70120238Y-119707380D01*
X70120238Y-119350238D01*
X70060714Y-119231190D01*
X70001190Y-119171666D01*
X69882142Y-119112142D01*
X69644047Y-119112142D01*
X69525000Y-119171666D01*
X68215476Y-119826428D02*
X68275000Y-119885952D01*
X68453571Y-119945476D01*
X68572619Y-119945476D01*
X68751190Y-119885952D01*
X68870238Y-119766904D01*
X68929761Y-119647857D01*
X68989285Y-119409761D01*
X68989285Y-119231190D01*
X68929761Y-118993095D01*
X68870238Y-118874047D01*
X68751190Y-118755000D01*
X68572619Y-118695476D01*
X68453571Y-118695476D01*
X68275000Y-118755000D01*
X68215476Y-118814523D01*
X67144047Y-119945476D02*
X67144047Y-119290714D01*
X67203571Y-119171666D01*
X67322619Y-119112142D01*
X67560714Y-119112142D01*
X67679761Y-119171666D01*
X67144047Y-119885952D02*
X67263095Y-119945476D01*
X67560714Y-119945476D01*
X67679761Y-119885952D01*
X67739285Y-119766904D01*
X67739285Y-119647857D01*
X67679761Y-119528809D01*
X67560714Y-119469285D01*
X67263095Y-119469285D01*
X67144047Y-119409761D01*
X66548809Y-119945476D02*
X66548809Y-119112142D01*
X66548809Y-119350238D02*
X66489285Y-119231190D01*
X66429761Y-119171666D01*
X66310714Y-119112142D01*
X66191666Y-119112142D01*
X65953571Y-119112142D02*
X65477380Y-119112142D01*
X65775000Y-118695476D02*
X65775000Y-119766904D01*
X65715476Y-119885952D01*
X65596428Y-119945476D01*
X65477380Y-119945476D01*
D12*
X65818000Y-86714000D02*
X65818000Y-86384000D01*
X72358000Y-86714000D02*
X65818000Y-86714000D01*
X72358000Y-86384000D02*
X72358000Y-86714000D01*
X65818000Y-83974000D02*
X65818000Y-84304000D01*
X72358000Y-83974000D02*
X65818000Y-83974000D01*
X72358000Y-84304000D02*
X72358000Y-83974000D01*
D10*
X67849904Y-84891619D02*
X67897523Y-84844000D01*
X67992761Y-84796380D01*
X68230857Y-84796380D01*
X68326095Y-84844000D01*
X68373714Y-84891619D01*
X68421333Y-84986857D01*
X68421333Y-85082095D01*
X68373714Y-85224952D01*
X67802285Y-85796380D01*
X68421333Y-85796380D01*
X69040380Y-84796380D02*
X69135619Y-84796380D01*
X69230857Y-84844000D01*
X69278476Y-84891619D01*
X69326095Y-84986857D01*
X69373714Y-85177333D01*
X69373714Y-85415428D01*
X69326095Y-85605904D01*
X69278476Y-85701142D01*
X69230857Y-85748761D01*
X69135619Y-85796380D01*
X69040380Y-85796380D01*
X68945142Y-85748761D01*
X68897523Y-85701142D01*
X68849904Y-85605904D01*
X68802285Y-85415428D01*
X68802285Y-85177333D01*
X68849904Y-84986857D01*
X68897523Y-84891619D01*
X68945142Y-84844000D01*
X69040380Y-84796380D01*
X69992761Y-84796380D02*
X70088000Y-84796380D01*
X70183238Y-84844000D01*
X70230857Y-84891619D01*
X70278476Y-84986857D01*
X70326095Y-85177333D01*
X70326095Y-85415428D01*
X70278476Y-85605904D01*
X70230857Y-85701142D01*
X70183238Y-85748761D01*
X70088000Y-85796380D01*
X69992761Y-85796380D01*
X69897523Y-85748761D01*
X69849904Y-85701142D01*
X69802285Y-85605904D01*
X69754666Y-85415428D01*
X69754666Y-85177333D01*
X69802285Y-84986857D01*
X69849904Y-84891619D01*
X69897523Y-84844000D01*
X69992761Y-84796380D01*
%LPC*%
D13*
X66040000Y-87630000D03*
X81280000Y-95250000D03*
X68580000Y-87630000D03*
X78740000Y-95250000D03*
X71120000Y-87630000D03*
X76200000Y-95250000D03*
X73660000Y-87630000D03*
X73660000Y-95250000D03*
X76200000Y-87630000D03*
X71120000Y-95250000D03*
X78740000Y-87630000D03*
X68580000Y-95250000D03*
X81280000Y-87630000D03*
D14*
X66040000Y-95250000D03*
D15*
X72898000Y-85344000D03*
D13*
X65278000Y-85344000D03*
D16*
X67310000Y-82042000D03*
D17*
X64770000Y-82042000D03*
D18*
X74422000Y-82042000D03*
X73152000Y-82042000D03*
X71882000Y-82042000D03*
D19*
X70612000Y-82042000D03*
D15*
X115062000Y-92018328D03*
G36*
G01*
X109837577Y-96402140D02*
X109837577Y-96402140D01*
G75*
G02*
X109738971Y-97529206I-612836J-514230D01*
G01*
X109738971Y-97529206D01*
G75*
G02*
X108611905Y-97430600I-514230J612836D01*
G01*
X108611905Y-97430600D01*
G75*
G02*
X108710511Y-96303534I612836J514230D01*
G01*
X108710511Y-96303534D01*
G75*
G02*
X109837577Y-96402140I514230J-612836D01*
G01*
G37*
X106426000Y-92018328D03*
G36*
G01*
X101201577Y-96402140D02*
X101201577Y-96402140D01*
G75*
G02*
X101102971Y-97529206I-612836J-514230D01*
G01*
X101102971Y-97529206D01*
G75*
G02*
X99975905Y-97430600I-514230J612836D01*
G01*
X99975905Y-97430600D01*
G75*
G02*
X100074511Y-96303534I612836J514230D01*
G01*
X100074511Y-96303534D01*
G75*
G02*
X101201577Y-96402140I514230J-612836D01*
G01*
G37*
X93373152Y-92018328D03*
G36*
G01*
X88148729Y-96402140D02*
X88148729Y-96402140D01*
G75*
G02*
X88050123Y-97529206I-612836J-514230D01*
G01*
X88050123Y-97529206D01*
G75*
G02*
X86923057Y-97430600I-514230J612836D01*
G01*
X86923057Y-97430600D01*
G75*
G02*
X87021663Y-96303534I612836J514230D01*
G01*
X87021663Y-96303534D01*
G75*
G02*
X88148729Y-96402140I514230J-612836D01*
G01*
G37*
D20*
X88900000Y-87040000D03*
D14*
X63500000Y-100330000D03*
D13*
X71120000Y-115570000D03*
X63500000Y-102870000D03*
X71120000Y-113030000D03*
X63500000Y-105410000D03*
X71120000Y-110490000D03*
X63500000Y-107950000D03*
X71120000Y-107950000D03*
X63500000Y-110490000D03*
X71120000Y-105410000D03*
X63500000Y-113030000D03*
X71120000Y-102870000D03*
X63500000Y-115570000D03*
X71120000Y-100330000D03*
D14*
X113030000Y-81280000D03*
D13*
X105410000Y-88900000D03*
X110490000Y-81280000D03*
X107950000Y-88900000D03*
X107950000Y-81280000D03*
X110490000Y-88900000D03*
X105410000Y-81280000D03*
X113030000Y-88900000D03*
G36*
G01*
X92565577Y-96402140D02*
X92565577Y-96402140D01*
G75*
G02*
X92466971Y-97529206I-612836J-514230D01*
G01*
X92466971Y-97529206D01*
G75*
G02*
X91339905Y-97430600I-514230J612836D01*
G01*
X91339905Y-97430600D01*
G75*
G02*
X91438511Y-96303534I612836J514230D01*
G01*
X91438511Y-96303534D01*
G75*
G02*
X92565577Y-96402140I514230J-612836D01*
G01*
G37*
D15*
X97790000Y-92018328D03*
G36*
G01*
X96883577Y-96402140D02*
X96883577Y-96402140D01*
G75*
G02*
X96784971Y-97529206I-612836J-514230D01*
G01*
X96784971Y-97529206D01*
G75*
G02*
X95657905Y-97430600I-514230J612836D01*
G01*
X95657905Y-97430600D01*
G75*
G02*
X95756511Y-96303534I612836J514230D01*
G01*
X95756511Y-96303534D01*
G75*
G02*
X96883577Y-96402140I514230J-612836D01*
G01*
G37*
X102108000Y-92018328D03*
G36*
G01*
X105519577Y-96402140D02*
X105519577Y-96402140D01*
G75*
G02*
X105420971Y-97529206I-612836J-514230D01*
G01*
X105420971Y-97529206D01*
G75*
G02*
X104293905Y-97430600I-514230J612836D01*
G01*
X104293905Y-97430600D01*
G75*
G02*
X104392511Y-96303534I612836J514230D01*
G01*
X104392511Y-96303534D01*
G75*
G02*
X105519577Y-96402140I514230J-612836D01*
G01*
G37*
X110744000Y-92018328D03*
D21*
X80010000Y-115570000D03*
X82550000Y-115570000D03*
X85090000Y-115570000D03*
X87630000Y-115570000D03*
X90170000Y-115570000D03*
X92710000Y-115570000D03*
X95250000Y-115570000D03*
X97790000Y-115570000D03*
X100330000Y-115570000D03*
X102870000Y-115570000D03*
X105410000Y-115570000D03*
X107950000Y-115570000D03*
X110490000Y-115570000D03*
X113030000Y-115570000D03*
X113030000Y-100330000D03*
X110490000Y-100330000D03*
X107950000Y-100330000D03*
X105410000Y-100330000D03*
X102870000Y-100330000D03*
X100330000Y-100330000D03*
X97790000Y-100330000D03*
X95250000Y-100330000D03*
X92710000Y-100330000D03*
X90170000Y-100330000D03*
X87630000Y-100330000D03*
X85090000Y-100330000D03*
X82550000Y-100330000D03*
X80010000Y-100330000D03*
D15*
X76200000Y-105350000D03*
X76200000Y-100350000D03*
D22*
X95539560Y-81838800D03*
X95539560Y-88341200D03*
X100040440Y-81838800D03*
X100040440Y-88341200D03*
D23*
X88900000Y-125730000D03*
D24*
X90170000Y-125601726D03*
X92710000Y-125601726D03*
X100330000Y-125601726D03*
X97790000Y-125601726D03*
X95250000Y-125601726D03*
X115570000Y-125601726D03*
X113030000Y-125601726D03*
X110490000Y-125601726D03*
X107950000Y-125601726D03*
X105410000Y-125601726D03*
X102870000Y-125601726D03*
X62230000Y-125601726D03*
X72390000Y-125601726D03*
X69850000Y-125601726D03*
X67310000Y-125601726D03*
X64770000Y-125601726D03*
X87630000Y-125601726D03*
X85090000Y-125601726D03*
X82550000Y-125601726D03*
X80010000Y-125601726D03*
X77470000Y-125601726D03*
X74930000Y-125601726D03*
M02*
