G04 #@! TF.GenerationSoftware,KiCad,Pcbnew,(5.1.6)-1*
G04 #@! TF.CreationDate,2021-12-16T19:19:51-05:00*
G04 #@! TF.ProjectId,OpenC64Cart,4f70656e-4336-4344-9361-72742e6b6963,2*
G04 #@! TF.SameCoordinates,Original*
G04 #@! TF.FileFunction,Soldermask,Bot*
G04 #@! TF.FilePolarity,Negative*
%FSLAX46Y46*%
G04 Gerber Fmt 4.6, Leading zero omitted, Abs format (unit mm)*
G04 Created by KiCad (PCBNEW (5.1.6)-1) date 2021-12-16 19:19:51*
%MOMM*%
%LPD*%
G01*
G04 APERTURE LIST*
%ADD10C,0.100000*%
%ADD11R,1.000000X1.500000*%
%ADD12O,1.600000X1.600000*%
%ADD13R,1.600000X1.600000*%
%ADD14C,1.600000*%
%ADD15R,1.800000X1.800000*%
%ADD16C,1.800000*%
%ADD17O,1.070000X1.800000*%
%ADD18R,1.070000X1.800000*%
%ADD19C,5.500000*%
%ADD20O,1.501140X2.199640*%
%ADD21C,1.998980*%
%ADD22R,58.420000X8.300000*%
%ADD23R,1.524000X8.000000*%
G04 APERTURE END LIST*
D10*
G36*
X67576000Y-112764000D02*
G01*
X67026000Y-112764000D01*
X67026000Y-112763398D01*
X67001466Y-112763398D01*
X66952635Y-112758588D01*
X66904510Y-112749016D01*
X66857555Y-112734772D01*
X66812222Y-112715995D01*
X66768949Y-112692864D01*
X66728150Y-112665604D01*
X66690221Y-112634476D01*
X66655524Y-112599779D01*
X66624396Y-112561850D01*
X66597136Y-112521051D01*
X66574005Y-112477778D01*
X66555228Y-112432445D01*
X66540984Y-112385490D01*
X66531412Y-112337365D01*
X66526602Y-112288534D01*
X66526602Y-112264000D01*
X66526000Y-112264000D01*
X66526000Y-111764000D01*
X66526602Y-111764000D01*
X66526602Y-111739466D01*
X66531412Y-111690635D01*
X66540984Y-111642510D01*
X66555228Y-111595555D01*
X66574005Y-111550222D01*
X66597136Y-111506949D01*
X66624396Y-111466150D01*
X66655524Y-111428221D01*
X66690221Y-111393524D01*
X66728150Y-111362396D01*
X66768949Y-111335136D01*
X66812222Y-111312005D01*
X66857555Y-111293228D01*
X66904510Y-111278984D01*
X66952635Y-111269412D01*
X67001466Y-111264602D01*
X67026000Y-111264602D01*
X67026000Y-111264000D01*
X67576000Y-111264000D01*
X67576000Y-112764000D01*
G37*
D11*
X68326000Y-112014000D03*
D10*
G36*
X69626000Y-111264602D02*
G01*
X69650534Y-111264602D01*
X69699365Y-111269412D01*
X69747490Y-111278984D01*
X69794445Y-111293228D01*
X69839778Y-111312005D01*
X69883051Y-111335136D01*
X69923850Y-111362396D01*
X69961779Y-111393524D01*
X69996476Y-111428221D01*
X70027604Y-111466150D01*
X70054864Y-111506949D01*
X70077995Y-111550222D01*
X70096772Y-111595555D01*
X70111016Y-111642510D01*
X70120588Y-111690635D01*
X70125398Y-111739466D01*
X70125398Y-111764000D01*
X70126000Y-111764000D01*
X70126000Y-112264000D01*
X70125398Y-112264000D01*
X70125398Y-112288534D01*
X70120588Y-112337365D01*
X70111016Y-112385490D01*
X70096772Y-112432445D01*
X70077995Y-112477778D01*
X70054864Y-112521051D01*
X70027604Y-112561850D01*
X69996476Y-112599779D01*
X69961779Y-112634476D01*
X69923850Y-112665604D01*
X69883051Y-112692864D01*
X69839778Y-112715995D01*
X69794445Y-112734772D01*
X69747490Y-112749016D01*
X69699365Y-112758588D01*
X69650534Y-112763398D01*
X69626000Y-112763398D01*
X69626000Y-112764000D01*
X69076000Y-112764000D01*
X69076000Y-111264000D01*
X69626000Y-111264000D01*
X69626000Y-111264602D01*
G37*
G36*
X69076000Y-107962000D02*
G01*
X69626000Y-107962000D01*
X69626000Y-107962602D01*
X69650534Y-107962602D01*
X69699365Y-107967412D01*
X69747490Y-107976984D01*
X69794445Y-107991228D01*
X69839778Y-108010005D01*
X69883051Y-108033136D01*
X69923850Y-108060396D01*
X69961779Y-108091524D01*
X69996476Y-108126221D01*
X70027604Y-108164150D01*
X70054864Y-108204949D01*
X70077995Y-108248222D01*
X70096772Y-108293555D01*
X70111016Y-108340510D01*
X70120588Y-108388635D01*
X70125398Y-108437466D01*
X70125398Y-108462000D01*
X70126000Y-108462000D01*
X70126000Y-108962000D01*
X70125398Y-108962000D01*
X70125398Y-108986534D01*
X70120588Y-109035365D01*
X70111016Y-109083490D01*
X70096772Y-109130445D01*
X70077995Y-109175778D01*
X70054864Y-109219051D01*
X70027604Y-109259850D01*
X69996476Y-109297779D01*
X69961779Y-109332476D01*
X69923850Y-109363604D01*
X69883051Y-109390864D01*
X69839778Y-109413995D01*
X69794445Y-109432772D01*
X69747490Y-109447016D01*
X69699365Y-109456588D01*
X69650534Y-109461398D01*
X69626000Y-109461398D01*
X69626000Y-109462000D01*
X69076000Y-109462000D01*
X69076000Y-107962000D01*
G37*
D11*
X68326000Y-108712000D03*
D10*
G36*
X67026000Y-109461398D02*
G01*
X67001466Y-109461398D01*
X66952635Y-109456588D01*
X66904510Y-109447016D01*
X66857555Y-109432772D01*
X66812222Y-109413995D01*
X66768949Y-109390864D01*
X66728150Y-109363604D01*
X66690221Y-109332476D01*
X66655524Y-109297779D01*
X66624396Y-109259850D01*
X66597136Y-109219051D01*
X66574005Y-109175778D01*
X66555228Y-109130445D01*
X66540984Y-109083490D01*
X66531412Y-109035365D01*
X66526602Y-108986534D01*
X66526602Y-108962000D01*
X66526000Y-108962000D01*
X66526000Y-108462000D01*
X66526602Y-108462000D01*
X66526602Y-108437466D01*
X66531412Y-108388635D01*
X66540984Y-108340510D01*
X66555228Y-108293555D01*
X66574005Y-108248222D01*
X66597136Y-108204949D01*
X66624396Y-108164150D01*
X66655524Y-108126221D01*
X66690221Y-108091524D01*
X66728150Y-108060396D01*
X66768949Y-108033136D01*
X66812222Y-108010005D01*
X66857555Y-107991228D01*
X66904510Y-107976984D01*
X66952635Y-107967412D01*
X67001466Y-107962602D01*
X67026000Y-107962602D01*
X67026000Y-107962000D01*
X67576000Y-107962000D01*
X67576000Y-109462000D01*
X67026000Y-109462000D01*
X67026000Y-109461398D01*
G37*
G36*
X66814000Y-92190000D02*
G01*
X66264000Y-92190000D01*
X66264000Y-92189398D01*
X66239466Y-92189398D01*
X66190635Y-92184588D01*
X66142510Y-92175016D01*
X66095555Y-92160772D01*
X66050222Y-92141995D01*
X66006949Y-92118864D01*
X65966150Y-92091604D01*
X65928221Y-92060476D01*
X65893524Y-92025779D01*
X65862396Y-91987850D01*
X65835136Y-91947051D01*
X65812005Y-91903778D01*
X65793228Y-91858445D01*
X65778984Y-91811490D01*
X65769412Y-91763365D01*
X65764602Y-91714534D01*
X65764602Y-91690000D01*
X65764000Y-91690000D01*
X65764000Y-91190000D01*
X65764602Y-91190000D01*
X65764602Y-91165466D01*
X65769412Y-91116635D01*
X65778984Y-91068510D01*
X65793228Y-91021555D01*
X65812005Y-90976222D01*
X65835136Y-90932949D01*
X65862396Y-90892150D01*
X65893524Y-90854221D01*
X65928221Y-90819524D01*
X65966150Y-90788396D01*
X66006949Y-90761136D01*
X66050222Y-90738005D01*
X66095555Y-90719228D01*
X66142510Y-90704984D01*
X66190635Y-90695412D01*
X66239466Y-90690602D01*
X66264000Y-90690602D01*
X66264000Y-90690000D01*
X66814000Y-90690000D01*
X66814000Y-92190000D01*
G37*
D11*
X67564000Y-91440000D03*
D10*
G36*
X68864000Y-90690602D02*
G01*
X68888534Y-90690602D01*
X68937365Y-90695412D01*
X68985490Y-90704984D01*
X69032445Y-90719228D01*
X69077778Y-90738005D01*
X69121051Y-90761136D01*
X69161850Y-90788396D01*
X69199779Y-90819524D01*
X69234476Y-90854221D01*
X69265604Y-90892150D01*
X69292864Y-90932949D01*
X69315995Y-90976222D01*
X69334772Y-91021555D01*
X69349016Y-91068510D01*
X69358588Y-91116635D01*
X69363398Y-91165466D01*
X69363398Y-91190000D01*
X69364000Y-91190000D01*
X69364000Y-91690000D01*
X69363398Y-91690000D01*
X69363398Y-91714534D01*
X69358588Y-91763365D01*
X69349016Y-91811490D01*
X69334772Y-91858445D01*
X69315995Y-91903778D01*
X69292864Y-91947051D01*
X69265604Y-91987850D01*
X69234476Y-92025779D01*
X69199779Y-92060476D01*
X69161850Y-92091604D01*
X69121051Y-92118864D01*
X69077778Y-92141995D01*
X69032445Y-92160772D01*
X68985490Y-92175016D01*
X68937365Y-92184588D01*
X68888534Y-92189398D01*
X68864000Y-92189398D01*
X68864000Y-92190000D01*
X68314000Y-92190000D01*
X68314000Y-90690000D01*
X68864000Y-90690000D01*
X68864000Y-90690602D01*
G37*
G36*
X73418000Y-92190000D02*
G01*
X72868000Y-92190000D01*
X72868000Y-92189398D01*
X72843466Y-92189398D01*
X72794635Y-92184588D01*
X72746510Y-92175016D01*
X72699555Y-92160772D01*
X72654222Y-92141995D01*
X72610949Y-92118864D01*
X72570150Y-92091604D01*
X72532221Y-92060476D01*
X72497524Y-92025779D01*
X72466396Y-91987850D01*
X72439136Y-91947051D01*
X72416005Y-91903778D01*
X72397228Y-91858445D01*
X72382984Y-91811490D01*
X72373412Y-91763365D01*
X72368602Y-91714534D01*
X72368602Y-91690000D01*
X72368000Y-91690000D01*
X72368000Y-91190000D01*
X72368602Y-91190000D01*
X72368602Y-91165466D01*
X72373412Y-91116635D01*
X72382984Y-91068510D01*
X72397228Y-91021555D01*
X72416005Y-90976222D01*
X72439136Y-90932949D01*
X72466396Y-90892150D01*
X72497524Y-90854221D01*
X72532221Y-90819524D01*
X72570150Y-90788396D01*
X72610949Y-90761136D01*
X72654222Y-90738005D01*
X72699555Y-90719228D01*
X72746510Y-90704984D01*
X72794635Y-90695412D01*
X72843466Y-90690602D01*
X72868000Y-90690602D01*
X72868000Y-90690000D01*
X73418000Y-90690000D01*
X73418000Y-92190000D01*
G37*
D11*
X74168000Y-91440000D03*
D10*
G36*
X75468000Y-90690602D02*
G01*
X75492534Y-90690602D01*
X75541365Y-90695412D01*
X75589490Y-90704984D01*
X75636445Y-90719228D01*
X75681778Y-90738005D01*
X75725051Y-90761136D01*
X75765850Y-90788396D01*
X75803779Y-90819524D01*
X75838476Y-90854221D01*
X75869604Y-90892150D01*
X75896864Y-90932949D01*
X75919995Y-90976222D01*
X75938772Y-91021555D01*
X75953016Y-91068510D01*
X75962588Y-91116635D01*
X75967398Y-91165466D01*
X75967398Y-91190000D01*
X75968000Y-91190000D01*
X75968000Y-91690000D01*
X75967398Y-91690000D01*
X75967398Y-91714534D01*
X75962588Y-91763365D01*
X75953016Y-91811490D01*
X75938772Y-91858445D01*
X75919995Y-91903778D01*
X75896864Y-91947051D01*
X75869604Y-91987850D01*
X75838476Y-92025779D01*
X75803779Y-92060476D01*
X75765850Y-92091604D01*
X75725051Y-92118864D01*
X75681778Y-92141995D01*
X75636445Y-92160772D01*
X75589490Y-92175016D01*
X75541365Y-92184588D01*
X75492534Y-92189398D01*
X75468000Y-92189398D01*
X75468000Y-92190000D01*
X74918000Y-92190000D01*
X74918000Y-90690000D01*
X75468000Y-90690000D01*
X75468000Y-90690602D01*
G37*
D12*
X65278000Y-87630000D03*
X80518000Y-95250000D03*
X67818000Y-87630000D03*
X77978000Y-95250000D03*
X70358000Y-87630000D03*
X75438000Y-95250000D03*
X72898000Y-87630000D03*
X72898000Y-95250000D03*
X75438000Y-87630000D03*
X70358000Y-95250000D03*
X77978000Y-87630000D03*
X67818000Y-95250000D03*
X80518000Y-87630000D03*
D13*
X65278000Y-95250000D03*
D12*
X113048000Y-88546000D03*
X105428000Y-80926000D03*
X110508000Y-88546000D03*
X107968000Y-80926000D03*
X107968000Y-88546000D03*
X110508000Y-80926000D03*
X105428000Y-88546000D03*
D13*
X113048000Y-80926000D03*
D14*
X88900000Y-92039200D03*
G36*
G01*
X84077531Y-96861669D02*
X84077531Y-96861669D01*
G75*
G02*
X84077531Y-97993039I-565685J-565685D01*
G01*
X84077531Y-97993039D01*
G75*
G02*
X82946161Y-97993039I-565685J565685D01*
G01*
X82946161Y-97993039D01*
G75*
G02*
X82946161Y-96861669I565685J565685D01*
G01*
X82946161Y-96861669D01*
G75*
G02*
X84077531Y-96861669I565685J-565685D01*
G01*
G37*
D15*
X67310000Y-82042000D03*
D16*
X64770000Y-82042000D03*
D17*
X74422000Y-82042000D03*
X73152000Y-82042000D03*
X71882000Y-82042000D03*
D18*
X70612000Y-82042000D03*
D14*
X115062000Y-92018328D03*
G36*
G01*
X110239531Y-96840797D02*
X110239531Y-96840797D01*
G75*
G02*
X110239531Y-97972167I-565685J-565685D01*
G01*
X110239531Y-97972167D01*
G75*
G02*
X109108161Y-97972167I-565685J565685D01*
G01*
X109108161Y-97972167D01*
G75*
G02*
X109108161Y-96840797I565685J565685D01*
G01*
X109108161Y-96840797D01*
G75*
G02*
X110239531Y-96840797I565685J-565685D01*
G01*
G37*
X106426000Y-92018328D03*
G36*
G01*
X101603531Y-96840797D02*
X101603531Y-96840797D01*
G75*
G02*
X101603531Y-97972167I-565685J-565685D01*
G01*
X101603531Y-97972167D01*
G75*
G02*
X100472161Y-97972167I-565685J565685D01*
G01*
X100472161Y-97972167D01*
G75*
G02*
X100472161Y-96840797I565685J565685D01*
G01*
X100472161Y-96840797D01*
G75*
G02*
X101603531Y-96840797I565685J-565685D01*
G01*
G37*
X93373152Y-92018328D03*
G36*
G01*
X88550683Y-96840797D02*
X88550683Y-96840797D01*
G75*
G02*
X88550683Y-97972167I-565685J-565685D01*
G01*
X88550683Y-97972167D01*
G75*
G02*
X87419313Y-97972167I-565685J565685D01*
G01*
X87419313Y-97972167D01*
G75*
G02*
X87419313Y-96840797I565685J565685D01*
G01*
X87419313Y-96840797D01*
G75*
G02*
X88550683Y-96840797I565685J-565685D01*
G01*
G37*
D19*
X88900000Y-87040000D03*
D13*
X64500000Y-100330000D03*
D12*
X72120000Y-115570000D03*
X64500000Y-102870000D03*
X72120000Y-113030000D03*
X64500000Y-105410000D03*
X72120000Y-110490000D03*
X64500000Y-107950000D03*
X72120000Y-107950000D03*
X64500000Y-110490000D03*
X72120000Y-105410000D03*
X64500000Y-113030000D03*
X72120000Y-102870000D03*
X64500000Y-115570000D03*
X72120000Y-100330000D03*
G36*
G01*
X92967531Y-96840797D02*
X92967531Y-96840797D01*
G75*
G02*
X92967531Y-97972167I-565685J-565685D01*
G01*
X92967531Y-97972167D01*
G75*
G02*
X91836161Y-97972167I-565685J565685D01*
G01*
X91836161Y-97972167D01*
G75*
G02*
X91836161Y-96840797I565685J565685D01*
G01*
X91836161Y-96840797D01*
G75*
G02*
X92967531Y-96840797I565685J-565685D01*
G01*
G37*
D14*
X97790000Y-92018328D03*
G36*
G01*
X97285531Y-96840797D02*
X97285531Y-96840797D01*
G75*
G02*
X97285531Y-97972167I-565685J-565685D01*
G01*
X97285531Y-97972167D01*
G75*
G02*
X96154161Y-97972167I-565685J565685D01*
G01*
X96154161Y-97972167D01*
G75*
G02*
X96154161Y-96840797I565685J565685D01*
G01*
X96154161Y-96840797D01*
G75*
G02*
X97285531Y-96840797I565685J-565685D01*
G01*
G37*
X102108000Y-92018328D03*
G36*
G01*
X105921531Y-96840797D02*
X105921531Y-96840797D01*
G75*
G02*
X105921531Y-97972167I-565685J-565685D01*
G01*
X105921531Y-97972167D01*
G75*
G02*
X104790161Y-97972167I-565685J565685D01*
G01*
X104790161Y-97972167D01*
G75*
G02*
X104790161Y-96840797I565685J565685D01*
G01*
X104790161Y-96840797D01*
G75*
G02*
X105921531Y-96840797I565685J-565685D01*
G01*
G37*
X110744000Y-92018328D03*
D20*
X80010000Y-115570000D03*
X82550000Y-115570000D03*
X85090000Y-115570000D03*
X87630000Y-115570000D03*
X90170000Y-115570000D03*
X92710000Y-115570000D03*
X95250000Y-115570000D03*
X97790000Y-115570000D03*
X100330000Y-115570000D03*
X102870000Y-115570000D03*
X105410000Y-115570000D03*
X107950000Y-115570000D03*
X110490000Y-115570000D03*
X113030000Y-115570000D03*
X113030000Y-100330000D03*
X110490000Y-100330000D03*
X107950000Y-100330000D03*
X105410000Y-100330000D03*
X102870000Y-100330000D03*
X100330000Y-100330000D03*
X97790000Y-100330000D03*
X95250000Y-100330000D03*
X92710000Y-100330000D03*
X90170000Y-100330000D03*
X87630000Y-100330000D03*
X85090000Y-100330000D03*
X82550000Y-100330000D03*
X80010000Y-100330000D03*
D14*
X76200000Y-105350000D03*
X76200000Y-100350000D03*
D21*
X95539560Y-81838800D03*
X95539560Y-88341200D03*
X100040440Y-81838800D03*
X100040440Y-88341200D03*
D22*
X88900000Y-125730000D03*
D23*
X90170000Y-125601726D03*
X92710000Y-125601726D03*
X100330000Y-125601726D03*
X97790000Y-125601726D03*
X95250000Y-125601726D03*
X115570000Y-125601726D03*
X113030000Y-125601726D03*
X110490000Y-125601726D03*
X107950000Y-125601726D03*
X105410000Y-125601726D03*
X102870000Y-125601726D03*
X62230000Y-125601726D03*
X72390000Y-125601726D03*
X69850000Y-125601726D03*
X67310000Y-125601726D03*
X64770000Y-125601726D03*
X87630000Y-125601726D03*
X85090000Y-125601726D03*
X82550000Y-125601726D03*
X80010000Y-125601726D03*
X77470000Y-125601726D03*
X74930000Y-125601726D03*
M02*
