M48
; DRILL file {KiCad (5.1.6)-1} date 11/23/21 16:53:43
; FORMAT={-:-/ absolute / metric / decimal}
; #@! TF.CreationDate,2021-11-23T16:53:43-05:00
; #@! TF.GenerationSoftware,Kicad,Pcbnew,(5.1.6)-1
; #@! TF.FileFunction,Plated,1,2,PTH
FMAT,2
METRIC
T1C0.400
T2C0.600
T3C0.800
T4C0.800
T5C0.900
T6C1.001
T7C5.500
%
G90
G05
T1
X64.77Y-118.618
X73.914Y-102.87
X75.99Y-115.64
X77.69Y-113.94
X80.09Y-120.44
X83.626Y-107.636
X83.82Y-95.758
X86.106Y-94.488
X91.89Y-120.04
X92.89Y-106.84
T2
X60.96Y-80.645
X60.96Y-86.995
X60.96Y-93.345
X60.96Y-99.695
X60.96Y-106.045
X60.96Y-112.395
X60.96Y-118.745
X116.84Y-80.645
X116.84Y-86.995
X116.84Y-93.345
X116.84Y-99.695
X116.84Y-106.045
X116.84Y-112.395
X116.84Y-118.745
T3
X96.271Y-96.916
X102.108Y-92.018
X65.278Y-85.344
X72.898Y-85.344
X104.907Y-96.916
X110.744Y-92.018
X91.953Y-96.916
X97.79Y-92.018
X109.225Y-96.916
X115.062Y-92.018
X105.41Y-81.28
X105.41Y-88.9
X107.95Y-81.28
X107.95Y-88.9
X110.49Y-81.28
X110.49Y-88.9
X113.03Y-81.28
X113.03Y-88.9
X63.5Y-100.33
X63.5Y-102.87
X63.5Y-105.41
X63.5Y-107.95
X63.5Y-110.49
X63.5Y-113.03
X63.5Y-115.57
X71.12Y-100.33
X71.12Y-102.87
X71.12Y-105.41
X71.12Y-107.95
X71.12Y-110.49
X71.12Y-113.03
X71.12Y-115.57
X66.04Y-87.63
X66.04Y-95.25
X68.58Y-87.63
X68.58Y-95.25
X71.12Y-87.63
X71.12Y-95.25
X73.66Y-87.63
X73.66Y-95.25
X76.2Y-87.63
X76.2Y-95.25
X78.74Y-87.63
X78.74Y-95.25
X81.28Y-87.63
X81.28Y-95.25
X100.589Y-96.916
X106.426Y-92.018
X87.536Y-96.916
X93.373Y-92.018
X76.2Y-100.35
X76.2Y-105.35
T4
X80.01Y-100.33
X80.01Y-115.57
X82.55Y-100.33
X82.55Y-115.57
X85.09Y-100.33
X85.09Y-115.57
X87.63Y-100.33
X87.63Y-115.57
X90.17Y-100.33
X90.17Y-115.57
X92.71Y-100.33
X92.71Y-115.57
X95.25Y-100.33
X95.25Y-115.57
X97.79Y-100.33
X97.79Y-115.57
X100.33Y-100.33
X100.33Y-115.57
X102.87Y-100.33
X102.87Y-115.57
X105.41Y-100.33
X105.41Y-115.57
X107.95Y-100.33
X107.95Y-115.57
X110.49Y-100.33
X110.49Y-115.57
X113.03Y-100.33
X113.03Y-115.57
T5
X64.77Y-82.042
X67.31Y-82.042
X70.612Y-82.042
X71.882Y-82.042
X73.152Y-82.042
X74.422Y-82.042
T6
X95.54Y-81.839
X95.54Y-88.341
X100.04Y-81.839
X100.04Y-88.341
T7
X88.9Y-87.04
T0
M30
