G04 #@! TF.GenerationSoftware,KiCad,Pcbnew,(5.1.6)-1*
G04 #@! TF.CreationDate,2021-12-16T19:19:51-05:00*
G04 #@! TF.ProjectId,OpenC64Cart,4f70656e-4336-4344-9361-72742e6b6963,2*
G04 #@! TF.SameCoordinates,Original*
G04 #@! TF.FileFunction,Legend,Bot*
G04 #@! TF.FilePolarity,Positive*
%FSLAX46Y46*%
G04 Gerber Fmt 4.6, Leading zero omitted, Abs format (unit mm)*
G04 Created by KiCad (PCBNEW (5.1.6)-1) date 2021-12-16 19:19:51*
%MOMM*%
%LPD*%
G01*
G04 APERTURE LIST*
%ADD10C,0.150000*%
%ADD11C,0.300000*%
%ADD12C,0.120000*%
%ADD13C,0.100000*%
%ADD14R,1.000000X1.500000*%
%ADD15O,1.600000X1.600000*%
%ADD16R,1.600000X1.600000*%
%ADD17C,1.600000*%
%ADD18R,1.800000X1.800000*%
%ADD19C,1.800000*%
%ADD20O,1.070000X1.800000*%
%ADD21R,1.070000X1.800000*%
%ADD22C,5.500000*%
%ADD23O,1.501140X2.199640*%
%ADD24C,1.998980*%
%ADD25R,58.420000X8.300000*%
%ADD26R,1.524000X8.000000*%
G04 APERTURE END LIST*
D10*
X92964000Y-102870000D02*
X92964000Y-111506000D01*
X112522000Y-102870000D02*
X112522000Y-111506000D01*
X95978119Y-104292761D02*
X95835261Y-104340380D01*
X95597166Y-104340380D01*
X95501928Y-104292761D01*
X95454309Y-104245142D01*
X95406690Y-104149904D01*
X95406690Y-104054666D01*
X95454309Y-103959428D01*
X95501928Y-103911809D01*
X95597166Y-103864190D01*
X95787642Y-103816571D01*
X95882880Y-103768952D01*
X95930500Y-103721333D01*
X95978119Y-103626095D01*
X95978119Y-103530857D01*
X95930500Y-103435619D01*
X95882880Y-103388000D01*
X95787642Y-103340380D01*
X95549547Y-103340380D01*
X95406690Y-103388000D01*
X94835261Y-104340380D02*
X94930500Y-104292761D01*
X94978119Y-104197523D01*
X94978119Y-103340380D01*
X94311452Y-104340380D02*
X94406690Y-104292761D01*
X94454309Y-104245142D01*
X94501928Y-104149904D01*
X94501928Y-103864190D01*
X94454309Y-103768952D01*
X94406690Y-103721333D01*
X94311452Y-103673714D01*
X94168595Y-103673714D01*
X94073357Y-103721333D01*
X94025738Y-103768952D01*
X93978119Y-103864190D01*
X93978119Y-104149904D01*
X94025738Y-104245142D01*
X94073357Y-104292761D01*
X94168595Y-104340380D01*
X94311452Y-104340380D01*
X93692404Y-103673714D02*
X93311452Y-103673714D01*
X93549547Y-103340380D02*
X93549547Y-104197523D01*
X93501928Y-104292761D01*
X93406690Y-104340380D01*
X93311452Y-104340380D01*
X94740023Y-105323714D02*
X94740023Y-105990380D01*
X94978119Y-104942761D02*
X95216214Y-105657047D01*
X94597166Y-105657047D01*
X91359071Y-105895142D02*
X91406690Y-105942761D01*
X91549547Y-105990380D01*
X91644785Y-105990380D01*
X91787642Y-105942761D01*
X91882880Y-105847523D01*
X91930500Y-105752285D01*
X91978119Y-105561809D01*
X91978119Y-105418952D01*
X91930500Y-105228476D01*
X91882880Y-105133238D01*
X91787642Y-105038000D01*
X91644785Y-104990380D01*
X91549547Y-104990380D01*
X91406690Y-105038000D01*
X91359071Y-105085619D01*
X90501928Y-104990380D02*
X90692404Y-104990380D01*
X90787642Y-105038000D01*
X90835261Y-105085619D01*
X90930500Y-105228476D01*
X90978119Y-105418952D01*
X90978119Y-105799904D01*
X90930500Y-105895142D01*
X90882880Y-105942761D01*
X90787642Y-105990380D01*
X90597166Y-105990380D01*
X90501928Y-105942761D01*
X90454309Y-105895142D01*
X90406690Y-105799904D01*
X90406690Y-105561809D01*
X90454309Y-105466571D01*
X90501928Y-105418952D01*
X90597166Y-105371333D01*
X90787642Y-105371333D01*
X90882880Y-105418952D01*
X90930500Y-105466571D01*
X90978119Y-105561809D01*
X89549547Y-105323714D02*
X89549547Y-105990380D01*
X89787642Y-104942761D02*
X90025738Y-105657047D01*
X89406690Y-105657047D01*
X87930500Y-105466571D02*
X87787642Y-105514190D01*
X87740023Y-105561809D01*
X87692404Y-105657047D01*
X87692404Y-105799904D01*
X87740023Y-105895142D01*
X87787642Y-105942761D01*
X87882880Y-105990380D01*
X88263833Y-105990380D01*
X88263833Y-104990380D01*
X87930500Y-104990380D01*
X87835261Y-105038000D01*
X87787642Y-105085619D01*
X87740023Y-105180857D01*
X87740023Y-105276095D01*
X87787642Y-105371333D01*
X87835261Y-105418952D01*
X87930500Y-105466571D01*
X88263833Y-105466571D01*
X86835261Y-105323714D02*
X86835261Y-105990380D01*
X87263833Y-105323714D02*
X87263833Y-105847523D01*
X87216214Y-105942761D01*
X87120976Y-105990380D01*
X86978119Y-105990380D01*
X86882880Y-105942761D01*
X86835261Y-105895142D01*
X86359071Y-105990380D02*
X86359071Y-105323714D01*
X86359071Y-105514190D02*
X86311452Y-105418952D01*
X86263833Y-105371333D01*
X86168595Y-105323714D01*
X86073357Y-105323714D01*
X85740023Y-105323714D02*
X85740023Y-105990380D01*
X85740023Y-105418952D02*
X85692404Y-105371333D01*
X85597166Y-105323714D01*
X85454309Y-105323714D01*
X85359071Y-105371333D01*
X85311452Y-105466571D01*
X85311452Y-105990380D01*
X84073357Y-105990380D02*
X84073357Y-104990380D01*
X83597166Y-105323714D02*
X83597166Y-105990380D01*
X83597166Y-105418952D02*
X83549547Y-105371333D01*
X83454309Y-105323714D01*
X83311452Y-105323714D01*
X83216214Y-105371333D01*
X83168595Y-105466571D01*
X83168595Y-105990380D01*
X94692404Y-106640380D02*
X95168595Y-106640380D01*
X95216214Y-107116571D01*
X95168595Y-107068952D01*
X95073357Y-107021333D01*
X94835261Y-107021333D01*
X94740023Y-107068952D01*
X94692404Y-107116571D01*
X94644785Y-107211809D01*
X94644785Y-107449904D01*
X94692404Y-107545142D01*
X94740023Y-107592761D01*
X94835261Y-107640380D01*
X95073357Y-107640380D01*
X95168595Y-107592761D01*
X95216214Y-107545142D01*
X91406690Y-107640380D02*
X91978119Y-107640380D01*
X91692404Y-107640380D02*
X91692404Y-106640380D01*
X91787642Y-106783238D01*
X91882880Y-106878476D01*
X91978119Y-106926095D01*
X90501928Y-106640380D02*
X90978119Y-106640380D01*
X91025738Y-107116571D01*
X90978119Y-107068952D01*
X90882880Y-107021333D01*
X90644785Y-107021333D01*
X90549547Y-107068952D01*
X90501928Y-107116571D01*
X90454309Y-107211809D01*
X90454309Y-107449904D01*
X90501928Y-107545142D01*
X90549547Y-107592761D01*
X90644785Y-107640380D01*
X90882880Y-107640380D01*
X90978119Y-107592761D01*
X91025738Y-107545142D01*
X89597166Y-106973714D02*
X89597166Y-107640380D01*
X89835261Y-106592761D02*
X90073357Y-107307047D01*
X89454309Y-107307047D01*
X88549547Y-107640380D02*
X89120976Y-107640380D01*
X88835261Y-107640380D02*
X88835261Y-106640380D01*
X88930500Y-106783238D01*
X89025738Y-106878476D01*
X89120976Y-106926095D01*
X87359071Y-107640380D02*
X87359071Y-106640380D01*
X87120976Y-106640380D01*
X86978119Y-106688000D01*
X86882880Y-106783238D01*
X86835261Y-106878476D01*
X86787642Y-107068952D01*
X86787642Y-107211809D01*
X86835261Y-107402285D01*
X86882880Y-107497523D01*
X86978119Y-107592761D01*
X87120976Y-107640380D01*
X87359071Y-107640380D01*
X86359071Y-107640380D02*
X86359071Y-106973714D01*
X86359071Y-106640380D02*
X86406690Y-106688000D01*
X86359071Y-106735619D01*
X86311452Y-106688000D01*
X86359071Y-106640380D01*
X86359071Y-106735619D01*
X85454309Y-107640380D02*
X85454309Y-107116571D01*
X85501928Y-107021333D01*
X85597166Y-106973714D01*
X85787642Y-106973714D01*
X85882880Y-107021333D01*
X85454309Y-107592761D02*
X85549547Y-107640380D01*
X85787642Y-107640380D01*
X85882880Y-107592761D01*
X85930500Y-107497523D01*
X85930500Y-107402285D01*
X85882880Y-107307047D01*
X85787642Y-107259428D01*
X85549547Y-107259428D01*
X85454309Y-107211809D01*
X84549547Y-106973714D02*
X84549547Y-107783238D01*
X84597166Y-107878476D01*
X84644785Y-107926095D01*
X84740023Y-107973714D01*
X84882880Y-107973714D01*
X84978119Y-107926095D01*
X84549547Y-107592761D02*
X84644785Y-107640380D01*
X84835261Y-107640380D01*
X84930500Y-107592761D01*
X84978119Y-107545142D01*
X85025738Y-107449904D01*
X85025738Y-107164190D01*
X84978119Y-107068952D01*
X84930500Y-107021333D01*
X84835261Y-106973714D01*
X84644785Y-106973714D01*
X84549547Y-107021333D01*
X84073357Y-106973714D02*
X84073357Y-107640380D01*
X84073357Y-107068952D02*
X84025738Y-107021333D01*
X83930500Y-106973714D01*
X83787642Y-106973714D01*
X83692404Y-107021333D01*
X83644785Y-107116571D01*
X83644785Y-107640380D01*
X83025738Y-107640380D02*
X83120976Y-107592761D01*
X83168595Y-107545142D01*
X83216214Y-107449904D01*
X83216214Y-107164190D01*
X83168595Y-107068952D01*
X83120976Y-107021333D01*
X83025738Y-106973714D01*
X82882880Y-106973714D01*
X82787642Y-107021333D01*
X82740023Y-107068952D01*
X82692404Y-107164190D01*
X82692404Y-107449904D01*
X82740023Y-107545142D01*
X82787642Y-107592761D01*
X82882880Y-107640380D01*
X83025738Y-107640380D01*
X82311452Y-107592761D02*
X82216214Y-107640380D01*
X82025738Y-107640380D01*
X81930500Y-107592761D01*
X81882880Y-107497523D01*
X81882880Y-107449904D01*
X81930500Y-107354666D01*
X82025738Y-107307047D01*
X82168595Y-107307047D01*
X82263833Y-107259428D01*
X82311452Y-107164190D01*
X82311452Y-107116571D01*
X82263833Y-107021333D01*
X82168595Y-106973714D01*
X82025738Y-106973714D01*
X81930500Y-107021333D01*
X81597166Y-106973714D02*
X81216214Y-106973714D01*
X81454309Y-106640380D02*
X81454309Y-107497523D01*
X81406690Y-107592761D01*
X81311452Y-107640380D01*
X81216214Y-107640380D01*
X80882880Y-107640380D02*
X80882880Y-106973714D01*
X80882880Y-106640380D02*
X80930500Y-106688000D01*
X80882880Y-106735619D01*
X80835261Y-106688000D01*
X80882880Y-106640380D01*
X80882880Y-106735619D01*
X79978119Y-107592761D02*
X80073357Y-107640380D01*
X80263833Y-107640380D01*
X80359071Y-107592761D01*
X80406690Y-107545142D01*
X80454309Y-107449904D01*
X80454309Y-107164190D01*
X80406690Y-107068952D01*
X80359071Y-107021333D01*
X80263833Y-106973714D01*
X80073357Y-106973714D01*
X79978119Y-107021333D01*
X94740023Y-108290380D02*
X94930500Y-108290380D01*
X95025738Y-108338000D01*
X95073357Y-108385619D01*
X95168595Y-108528476D01*
X95216214Y-108718952D01*
X95216214Y-109099904D01*
X95168595Y-109195142D01*
X95120976Y-109242761D01*
X95025738Y-109290380D01*
X94835261Y-109290380D01*
X94740023Y-109242761D01*
X94692404Y-109195142D01*
X94644785Y-109099904D01*
X94644785Y-108861809D01*
X94692404Y-108766571D01*
X94740023Y-108718952D01*
X94835261Y-108671333D01*
X95025738Y-108671333D01*
X95120976Y-108718952D01*
X95168595Y-108766571D01*
X95216214Y-108861809D01*
X91930500Y-109290380D02*
X91930500Y-108290380D01*
X91549547Y-108290380D01*
X91454309Y-108338000D01*
X91406690Y-108385619D01*
X91359071Y-108480857D01*
X91359071Y-108623714D01*
X91406690Y-108718952D01*
X91454309Y-108766571D01*
X91549547Y-108814190D01*
X91930500Y-108814190D01*
X90978119Y-109242761D02*
X90835261Y-109290380D01*
X90597166Y-109290380D01*
X90501928Y-109242761D01*
X90454309Y-109195142D01*
X90406690Y-109099904D01*
X90406690Y-109004666D01*
X90454309Y-108909428D01*
X90501928Y-108861809D01*
X90597166Y-108814190D01*
X90787642Y-108766571D01*
X90882880Y-108718952D01*
X90930500Y-108671333D01*
X90978119Y-108576095D01*
X90978119Y-108480857D01*
X90930500Y-108385619D01*
X90882880Y-108338000D01*
X90787642Y-108290380D01*
X90549547Y-108290380D01*
X90406690Y-108338000D01*
X89978119Y-109290380D02*
X89978119Y-108290380D01*
X89501928Y-109290380D02*
X89501928Y-108290380D01*
X89263833Y-108290380D01*
X89120976Y-108338000D01*
X89025738Y-108433238D01*
X88978119Y-108528476D01*
X88930500Y-108718952D01*
X88930500Y-108861809D01*
X88978119Y-109052285D01*
X89025738Y-109147523D01*
X89120976Y-109242761D01*
X89263833Y-109290380D01*
X89501928Y-109290380D01*
X88073357Y-108290380D02*
X88263833Y-108290380D01*
X88359071Y-108338000D01*
X88406690Y-108385619D01*
X88501928Y-108528476D01*
X88549547Y-108718952D01*
X88549547Y-109099904D01*
X88501928Y-109195142D01*
X88454309Y-109242761D01*
X88359071Y-109290380D01*
X88168595Y-109290380D01*
X88073357Y-109242761D01*
X88025738Y-109195142D01*
X87978119Y-109099904D01*
X87978119Y-108861809D01*
X88025738Y-108766571D01*
X88073357Y-108718952D01*
X88168595Y-108671333D01*
X88359071Y-108671333D01*
X88454309Y-108718952D01*
X88501928Y-108766571D01*
X88549547Y-108861809D01*
X87120976Y-108623714D02*
X87120976Y-109290380D01*
X87359071Y-108242761D02*
X87597166Y-108957047D01*
X86978119Y-108957047D01*
X85882880Y-109242761D02*
X85740023Y-109290380D01*
X85501928Y-109290380D01*
X85406690Y-109242761D01*
X85359071Y-109195142D01*
X85311452Y-109099904D01*
X85311452Y-109004666D01*
X85359071Y-108909428D01*
X85406690Y-108861809D01*
X85501928Y-108814190D01*
X85692404Y-108766571D01*
X85787642Y-108718952D01*
X85835261Y-108671333D01*
X85882880Y-108576095D01*
X85882880Y-108480857D01*
X85835261Y-108385619D01*
X85787642Y-108338000D01*
X85692404Y-108290380D01*
X85454309Y-108290380D01*
X85311452Y-108338000D01*
X84882880Y-109290380D02*
X84882880Y-108623714D01*
X84882880Y-108290380D02*
X84930500Y-108338000D01*
X84882880Y-108385619D01*
X84835261Y-108338000D01*
X84882880Y-108290380D01*
X84882880Y-108385619D01*
X83978119Y-109290380D02*
X83978119Y-108290380D01*
X83978119Y-109242761D02*
X84073357Y-109290380D01*
X84263833Y-109290380D01*
X84359071Y-109242761D01*
X84406690Y-109195142D01*
X84454309Y-109099904D01*
X84454309Y-108814190D01*
X84406690Y-108718952D01*
X84359071Y-108671333D01*
X84263833Y-108623714D01*
X84073357Y-108623714D01*
X83978119Y-108671333D01*
X82740023Y-109290380D02*
X82740023Y-108290380D01*
X82359071Y-108290380D01*
X82263833Y-108338000D01*
X82216214Y-108385619D01*
X82168595Y-108480857D01*
X82168595Y-108623714D01*
X82216214Y-108718952D01*
X82263833Y-108766571D01*
X82359071Y-108814190D01*
X82740023Y-108814190D01*
X81597166Y-109290380D02*
X81692404Y-109242761D01*
X81740023Y-109147523D01*
X81740023Y-108290380D01*
X80787642Y-109290380D02*
X80787642Y-108766571D01*
X80835261Y-108671333D01*
X80930500Y-108623714D01*
X81120976Y-108623714D01*
X81216214Y-108671333D01*
X80787642Y-109242761D02*
X80882880Y-109290380D01*
X81120976Y-109290380D01*
X81216214Y-109242761D01*
X81263833Y-109147523D01*
X81263833Y-109052285D01*
X81216214Y-108957047D01*
X81120976Y-108909428D01*
X80882880Y-108909428D01*
X80787642Y-108861809D01*
X80406690Y-108623714D02*
X80168595Y-109290380D01*
X79930500Y-108623714D02*
X80168595Y-109290380D01*
X80263833Y-109528476D01*
X80311452Y-109576095D01*
X80406690Y-109623714D01*
X79168595Y-109242761D02*
X79263833Y-109290380D01*
X79454309Y-109290380D01*
X79549547Y-109242761D01*
X79597166Y-109147523D01*
X79597166Y-108766571D01*
X79549547Y-108671333D01*
X79454309Y-108623714D01*
X79263833Y-108623714D01*
X79168595Y-108671333D01*
X79120976Y-108766571D01*
X79120976Y-108861809D01*
X79597166Y-108957047D01*
X78692404Y-109290380D02*
X78692404Y-108623714D01*
X78692404Y-108814190D02*
X78644785Y-108718952D01*
X78597166Y-108671333D01*
X78501928Y-108623714D01*
X78406690Y-108623714D01*
X95263833Y-109940380D02*
X94597166Y-109940380D01*
X95025738Y-110940380D01*
X91454309Y-109940380D02*
X91930500Y-109940380D01*
X91978119Y-110416571D01*
X91930500Y-110368952D01*
X91835261Y-110321333D01*
X91597166Y-110321333D01*
X91501928Y-110368952D01*
X91454309Y-110416571D01*
X91406690Y-110511809D01*
X91406690Y-110749904D01*
X91454309Y-110845142D01*
X91501928Y-110892761D01*
X91597166Y-110940380D01*
X91835261Y-110940380D01*
X91930500Y-110892761D01*
X91978119Y-110845142D01*
X90835261Y-110368952D02*
X90930500Y-110321333D01*
X90978119Y-110273714D01*
X91025738Y-110178476D01*
X91025738Y-110130857D01*
X90978119Y-110035619D01*
X90930500Y-109988000D01*
X90835261Y-109940380D01*
X90644785Y-109940380D01*
X90549547Y-109988000D01*
X90501928Y-110035619D01*
X90454309Y-110130857D01*
X90454309Y-110178476D01*
X90501928Y-110273714D01*
X90549547Y-110321333D01*
X90644785Y-110368952D01*
X90835261Y-110368952D01*
X90930500Y-110416571D01*
X90978119Y-110464190D01*
X91025738Y-110559428D01*
X91025738Y-110749904D01*
X90978119Y-110845142D01*
X90930500Y-110892761D01*
X90835261Y-110940380D01*
X90644785Y-110940380D01*
X90549547Y-110892761D01*
X90501928Y-110845142D01*
X90454309Y-110749904D01*
X90454309Y-110559428D01*
X90501928Y-110464190D01*
X90549547Y-110416571D01*
X90644785Y-110368952D01*
X89597166Y-109940380D02*
X89787642Y-109940380D01*
X89882880Y-109988000D01*
X89930500Y-110035619D01*
X90025738Y-110178476D01*
X90073357Y-110368952D01*
X90073357Y-110749904D01*
X90025738Y-110845142D01*
X89978119Y-110892761D01*
X89882880Y-110940380D01*
X89692404Y-110940380D01*
X89597166Y-110892761D01*
X89549547Y-110845142D01*
X89501928Y-110749904D01*
X89501928Y-110511809D01*
X89549547Y-110416571D01*
X89597166Y-110368952D01*
X89692404Y-110321333D01*
X89882880Y-110321333D01*
X89978119Y-110368952D01*
X90025738Y-110416571D01*
X90073357Y-110511809D01*
X89120976Y-110035619D02*
X89073357Y-109988000D01*
X88978119Y-109940380D01*
X88740023Y-109940380D01*
X88644785Y-109988000D01*
X88597166Y-110035619D01*
X88549547Y-110130857D01*
X88549547Y-110226095D01*
X88597166Y-110368952D01*
X89168595Y-110940380D01*
X88549547Y-110940380D01*
X88168595Y-110035619D02*
X88120976Y-109988000D01*
X88025738Y-109940380D01*
X87787642Y-109940380D01*
X87692404Y-109988000D01*
X87644785Y-110035619D01*
X87597166Y-110130857D01*
X87597166Y-110226095D01*
X87644785Y-110368952D01*
X88216214Y-110940380D01*
X87597166Y-110940380D01*
X86978119Y-109940380D02*
X86882880Y-109940380D01*
X86787642Y-109988000D01*
X86740023Y-110035619D01*
X86692404Y-110130857D01*
X86644785Y-110321333D01*
X86644785Y-110559428D01*
X86692404Y-110749904D01*
X86740023Y-110845142D01*
X86787642Y-110892761D01*
X86882880Y-110940380D01*
X86978119Y-110940380D01*
X87073357Y-110892761D01*
X87120976Y-110845142D01*
X87168595Y-110749904D01*
X87216214Y-110559428D01*
X87216214Y-110321333D01*
X87168595Y-110130857D01*
X87120976Y-110035619D01*
X87073357Y-109988000D01*
X86978119Y-109940380D01*
X86073357Y-109940380D02*
X86073357Y-110178476D01*
X86311452Y-110083238D02*
X86073357Y-110178476D01*
X85835261Y-110083238D01*
X86216214Y-110368952D02*
X86073357Y-110178476D01*
X85930500Y-110368952D01*
X84406690Y-111321333D02*
X84454309Y-111273714D01*
X84549547Y-111130857D01*
X84597166Y-111035619D01*
X84644785Y-110892761D01*
X84692404Y-110654666D01*
X84692404Y-110464190D01*
X84644785Y-110226095D01*
X84597166Y-110083238D01*
X84549547Y-109988000D01*
X84454309Y-109845142D01*
X84406690Y-109797523D01*
X84073357Y-110892761D02*
X83930500Y-110940380D01*
X83692404Y-110940380D01*
X83597166Y-110892761D01*
X83549547Y-110845142D01*
X83501928Y-110749904D01*
X83501928Y-110654666D01*
X83549547Y-110559428D01*
X83597166Y-110511809D01*
X83692404Y-110464190D01*
X83882880Y-110416571D01*
X83978119Y-110368952D01*
X84025738Y-110321333D01*
X84073357Y-110226095D01*
X84073357Y-110130857D01*
X84025738Y-110035619D01*
X83978119Y-109988000D01*
X83882880Y-109940380D01*
X83644785Y-109940380D01*
X83501928Y-109988000D01*
X83168595Y-109940380D02*
X82930500Y-110940380D01*
X82740023Y-110226095D01*
X82549547Y-110940380D01*
X82311452Y-109940380D01*
X81930500Y-110940380D02*
X81930500Y-109940380D01*
X81454309Y-110940380D02*
X81454309Y-109940380D01*
X80882880Y-110940380D01*
X80882880Y-109940380D01*
X80454309Y-110892761D02*
X80311452Y-110940380D01*
X80073357Y-110940380D01*
X79978119Y-110892761D01*
X79930500Y-110845142D01*
X79882880Y-110749904D01*
X79882880Y-110654666D01*
X79930500Y-110559428D01*
X79978119Y-110511809D01*
X80073357Y-110464190D01*
X80263833Y-110416571D01*
X80359071Y-110368952D01*
X80406690Y-110321333D01*
X80454309Y-110226095D01*
X80454309Y-110130857D01*
X80406690Y-110035619D01*
X80359071Y-109988000D01*
X80263833Y-109940380D01*
X80025738Y-109940380D01*
X79882880Y-109988000D01*
X79454309Y-110940380D02*
X79454309Y-109940380D01*
X78978119Y-110940380D02*
X78978119Y-109940380D01*
X78740023Y-109940380D01*
X78597166Y-109988000D01*
X78501928Y-110083238D01*
X78454309Y-110178476D01*
X78406690Y-110368952D01*
X78406690Y-110511809D01*
X78454309Y-110702285D01*
X78501928Y-110797523D01*
X78597166Y-110892761D01*
X78740023Y-110940380D01*
X78978119Y-110940380D01*
X78073357Y-111321333D02*
X78025738Y-111273714D01*
X77930500Y-111130857D01*
X77882880Y-111035619D01*
X77835261Y-110892761D01*
X77787642Y-110654666D01*
X77787642Y-110464190D01*
X77835261Y-110226095D01*
X77882880Y-110083238D01*
X77930500Y-109988000D01*
X78025738Y-109845142D01*
X78073357Y-109797523D01*
X96266000Y-102870000D02*
X96266000Y-111506000D01*
X115824000Y-104648000D02*
X77470000Y-104648000D01*
X115536023Y-104292761D02*
X115393166Y-104340380D01*
X115155071Y-104340380D01*
X115059833Y-104292761D01*
X115012214Y-104245142D01*
X114964595Y-104149904D01*
X114964595Y-104054666D01*
X115012214Y-103959428D01*
X115059833Y-103911809D01*
X115155071Y-103864190D01*
X115345547Y-103816571D01*
X115440785Y-103768952D01*
X115488404Y-103721333D01*
X115536023Y-103626095D01*
X115536023Y-103530857D01*
X115488404Y-103435619D01*
X115440785Y-103388000D01*
X115345547Y-103340380D01*
X115107452Y-103340380D01*
X114964595Y-103388000D01*
X114393166Y-104340380D02*
X114488404Y-104292761D01*
X114536023Y-104197523D01*
X114536023Y-103340380D01*
X113869357Y-104340380D02*
X113964595Y-104292761D01*
X114012214Y-104245142D01*
X114059833Y-104149904D01*
X114059833Y-103864190D01*
X114012214Y-103768952D01*
X113964595Y-103721333D01*
X113869357Y-103673714D01*
X113726500Y-103673714D01*
X113631261Y-103721333D01*
X113583642Y-103768952D01*
X113536023Y-103864190D01*
X113536023Y-104149904D01*
X113583642Y-104245142D01*
X113631261Y-104292761D01*
X113726500Y-104340380D01*
X113869357Y-104340380D01*
X113250309Y-103673714D02*
X112869357Y-103673714D01*
X113107452Y-103340380D02*
X113107452Y-104197523D01*
X113059833Y-104292761D01*
X112964595Y-104340380D01*
X112869357Y-104340380D01*
X114536023Y-104990380D02*
X114440785Y-104990380D01*
X114345547Y-105038000D01*
X114297928Y-105085619D01*
X114250309Y-105180857D01*
X114202690Y-105371333D01*
X114202690Y-105609428D01*
X114250309Y-105799904D01*
X114297928Y-105895142D01*
X114345547Y-105942761D01*
X114440785Y-105990380D01*
X114536023Y-105990380D01*
X114631261Y-105942761D01*
X114678880Y-105895142D01*
X114726500Y-105799904D01*
X114774119Y-105609428D01*
X114774119Y-105371333D01*
X114726500Y-105180857D01*
X114678880Y-105085619D01*
X114631261Y-105038000D01*
X114536023Y-104990380D01*
X111488404Y-105990380D02*
X111488404Y-104990380D01*
X111250309Y-104990380D01*
X111107452Y-105038000D01*
X111012214Y-105133238D01*
X110964595Y-105228476D01*
X110916976Y-105418952D01*
X110916976Y-105561809D01*
X110964595Y-105752285D01*
X111012214Y-105847523D01*
X111107452Y-105942761D01*
X111250309Y-105990380D01*
X111488404Y-105990380D01*
X110107452Y-105942761D02*
X110202690Y-105990380D01*
X110393166Y-105990380D01*
X110488404Y-105942761D01*
X110536023Y-105847523D01*
X110536023Y-105466571D01*
X110488404Y-105371333D01*
X110393166Y-105323714D01*
X110202690Y-105323714D01*
X110107452Y-105371333D01*
X110059833Y-105466571D01*
X110059833Y-105561809D01*
X110536023Y-105657047D01*
X109202690Y-105990380D02*
X109202690Y-105466571D01*
X109250309Y-105371333D01*
X109345547Y-105323714D01*
X109536023Y-105323714D01*
X109631261Y-105371333D01*
X109202690Y-105942761D02*
X109297928Y-105990380D01*
X109536023Y-105990380D01*
X109631261Y-105942761D01*
X109678880Y-105847523D01*
X109678880Y-105752285D01*
X109631261Y-105657047D01*
X109536023Y-105609428D01*
X109297928Y-105609428D01*
X109202690Y-105561809D01*
X108297928Y-105990380D02*
X108297928Y-104990380D01*
X108297928Y-105942761D02*
X108393166Y-105990380D01*
X108583642Y-105990380D01*
X108678880Y-105942761D01*
X108726500Y-105895142D01*
X108774119Y-105799904D01*
X108774119Y-105514190D01*
X108726500Y-105418952D01*
X108678880Y-105371333D01*
X108583642Y-105323714D01*
X108393166Y-105323714D01*
X108297928Y-105371333D01*
X107202690Y-104990380D02*
X106631261Y-104990380D01*
X106916976Y-105990380D02*
X106916976Y-104990380D01*
X105916976Y-105942761D02*
X106012214Y-105990380D01*
X106202690Y-105990380D01*
X106297928Y-105942761D01*
X106345547Y-105847523D01*
X106345547Y-105466571D01*
X106297928Y-105371333D01*
X106202690Y-105323714D01*
X106012214Y-105323714D01*
X105916976Y-105371333D01*
X105869357Y-105466571D01*
X105869357Y-105561809D01*
X106345547Y-105657047D01*
X105488404Y-105942761D02*
X105393166Y-105990380D01*
X105202690Y-105990380D01*
X105107452Y-105942761D01*
X105059833Y-105847523D01*
X105059833Y-105799904D01*
X105107452Y-105704666D01*
X105202690Y-105657047D01*
X105345547Y-105657047D01*
X105440785Y-105609428D01*
X105488404Y-105514190D01*
X105488404Y-105466571D01*
X105440785Y-105371333D01*
X105345547Y-105323714D01*
X105202690Y-105323714D01*
X105107452Y-105371333D01*
X104774119Y-105323714D02*
X104393166Y-105323714D01*
X104631261Y-104990380D02*
X104631261Y-105847523D01*
X104583642Y-105942761D01*
X104488404Y-105990380D01*
X104393166Y-105990380D01*
X103393166Y-104990380D02*
X102726500Y-104990380D01*
X103155071Y-105990380D01*
X102202690Y-105418952D02*
X102297928Y-105371333D01*
X102345547Y-105323714D01*
X102393166Y-105228476D01*
X102393166Y-105180857D01*
X102345547Y-105085619D01*
X102297928Y-105038000D01*
X102202690Y-104990380D01*
X102012214Y-104990380D01*
X101916976Y-105038000D01*
X101869357Y-105085619D01*
X101821738Y-105180857D01*
X101821738Y-105228476D01*
X101869357Y-105323714D01*
X101916976Y-105371333D01*
X102012214Y-105418952D01*
X102202690Y-105418952D01*
X102297928Y-105466571D01*
X102345547Y-105514190D01*
X102393166Y-105609428D01*
X102393166Y-105799904D01*
X102345547Y-105895142D01*
X102297928Y-105942761D01*
X102202690Y-105990380D01*
X102012214Y-105990380D01*
X101916976Y-105942761D01*
X101869357Y-105895142D01*
X101821738Y-105799904D01*
X101821738Y-105609428D01*
X101869357Y-105514190D01*
X101916976Y-105466571D01*
X102012214Y-105418952D01*
X100869357Y-105990380D02*
X101440785Y-105990380D01*
X101155071Y-105990380D02*
X101155071Y-104990380D01*
X101250309Y-105133238D01*
X101345547Y-105228476D01*
X101440785Y-105276095D01*
X100488404Y-105085619D02*
X100440785Y-105038000D01*
X100345547Y-104990380D01*
X100107452Y-104990380D01*
X100012214Y-105038000D01*
X99964595Y-105085619D01*
X99916976Y-105180857D01*
X99916976Y-105276095D01*
X99964595Y-105418952D01*
X100536023Y-105990380D01*
X99916976Y-105990380D01*
X99536023Y-105085619D02*
X99488404Y-105038000D01*
X99393166Y-104990380D01*
X99155071Y-104990380D01*
X99059833Y-105038000D01*
X99012214Y-105085619D01*
X98964595Y-105180857D01*
X98964595Y-105276095D01*
X99012214Y-105418952D01*
X99583642Y-105990380D01*
X98964595Y-105990380D01*
X98345547Y-104990380D02*
X98250309Y-104990380D01*
X98155071Y-105038000D01*
X98107452Y-105085619D01*
X98059833Y-105180857D01*
X98012214Y-105371333D01*
X98012214Y-105609428D01*
X98059833Y-105799904D01*
X98107452Y-105895142D01*
X98155071Y-105942761D01*
X98250309Y-105990380D01*
X98345547Y-105990380D01*
X98440785Y-105942761D01*
X98488404Y-105895142D01*
X98536023Y-105799904D01*
X98583642Y-105609428D01*
X98583642Y-105371333D01*
X98536023Y-105180857D01*
X98488404Y-105085619D01*
X98440785Y-105038000D01*
X98345547Y-104990380D01*
X114202690Y-107640380D02*
X114774119Y-107640380D01*
X114488404Y-107640380D02*
X114488404Y-106640380D01*
X114583642Y-106783238D01*
X114678880Y-106878476D01*
X114774119Y-106926095D01*
X110916976Y-107545142D02*
X110964595Y-107592761D01*
X111107452Y-107640380D01*
X111202690Y-107640380D01*
X111345547Y-107592761D01*
X111440785Y-107497523D01*
X111488404Y-107402285D01*
X111536023Y-107211809D01*
X111536023Y-107068952D01*
X111488404Y-106878476D01*
X111440785Y-106783238D01*
X111345547Y-106688000D01*
X111202690Y-106640380D01*
X111107452Y-106640380D01*
X110964595Y-106688000D01*
X110916976Y-106735619D01*
X110059833Y-106640380D02*
X110250309Y-106640380D01*
X110345547Y-106688000D01*
X110393166Y-106735619D01*
X110488404Y-106878476D01*
X110536023Y-107068952D01*
X110536023Y-107449904D01*
X110488404Y-107545142D01*
X110440785Y-107592761D01*
X110345547Y-107640380D01*
X110155071Y-107640380D01*
X110059833Y-107592761D01*
X110012214Y-107545142D01*
X109964595Y-107449904D01*
X109964595Y-107211809D01*
X110012214Y-107116571D01*
X110059833Y-107068952D01*
X110155071Y-107021333D01*
X110345547Y-107021333D01*
X110440785Y-107068952D01*
X110488404Y-107116571D01*
X110536023Y-107211809D01*
X109107452Y-106973714D02*
X109107452Y-107640380D01*
X109345547Y-106592761D02*
X109583642Y-107307047D01*
X108964595Y-107307047D01*
X107821738Y-107640380D02*
X107821738Y-106640380D01*
X107583642Y-106640380D01*
X107440785Y-106688000D01*
X107345547Y-106783238D01*
X107297928Y-106878476D01*
X107250309Y-107068952D01*
X107250309Y-107211809D01*
X107297928Y-107402285D01*
X107345547Y-107497523D01*
X107440785Y-107592761D01*
X107583642Y-107640380D01*
X107821738Y-107640380D01*
X106821738Y-107640380D02*
X106821738Y-106973714D01*
X106821738Y-106640380D02*
X106869357Y-106688000D01*
X106821738Y-106735619D01*
X106774119Y-106688000D01*
X106821738Y-106640380D01*
X106821738Y-106735619D01*
X105916976Y-107640380D02*
X105916976Y-107116571D01*
X105964595Y-107021333D01*
X106059833Y-106973714D01*
X106250309Y-106973714D01*
X106345547Y-107021333D01*
X105916976Y-107592761D02*
X106012214Y-107640380D01*
X106250309Y-107640380D01*
X106345547Y-107592761D01*
X106393166Y-107497523D01*
X106393166Y-107402285D01*
X106345547Y-107307047D01*
X106250309Y-107259428D01*
X106012214Y-107259428D01*
X105916976Y-107211809D01*
X105012214Y-106973714D02*
X105012214Y-107783238D01*
X105059833Y-107878476D01*
X105107452Y-107926095D01*
X105202690Y-107973714D01*
X105345547Y-107973714D01*
X105440785Y-107926095D01*
X105012214Y-107592761D02*
X105107452Y-107640380D01*
X105297928Y-107640380D01*
X105393166Y-107592761D01*
X105440785Y-107545142D01*
X105488404Y-107449904D01*
X105488404Y-107164190D01*
X105440785Y-107068952D01*
X105393166Y-107021333D01*
X105297928Y-106973714D01*
X105107452Y-106973714D01*
X105012214Y-107021333D01*
X104536023Y-107545142D02*
X104488404Y-107592761D01*
X104536023Y-107640380D01*
X104583642Y-107592761D01*
X104536023Y-107545142D01*
X104536023Y-107640380D01*
X102821738Y-106640380D02*
X103297928Y-106640380D01*
X103345547Y-107116571D01*
X103297928Y-107068952D01*
X103202690Y-107021333D01*
X102964595Y-107021333D01*
X102869357Y-107068952D01*
X102821738Y-107116571D01*
X102774119Y-107211809D01*
X102774119Y-107449904D01*
X102821738Y-107545142D01*
X102869357Y-107592761D01*
X102964595Y-107640380D01*
X103202690Y-107640380D01*
X103297928Y-107592761D01*
X103345547Y-107545142D01*
X102202690Y-107068952D02*
X102297928Y-107021333D01*
X102345547Y-106973714D01*
X102393166Y-106878476D01*
X102393166Y-106830857D01*
X102345547Y-106735619D01*
X102297928Y-106688000D01*
X102202690Y-106640380D01*
X102012214Y-106640380D01*
X101916976Y-106688000D01*
X101869357Y-106735619D01*
X101821738Y-106830857D01*
X101821738Y-106878476D01*
X101869357Y-106973714D01*
X101916976Y-107021333D01*
X102012214Y-107068952D01*
X102202690Y-107068952D01*
X102297928Y-107116571D01*
X102345547Y-107164190D01*
X102393166Y-107259428D01*
X102393166Y-107449904D01*
X102345547Y-107545142D01*
X102297928Y-107592761D01*
X102202690Y-107640380D01*
X102012214Y-107640380D01*
X101916976Y-107592761D01*
X101869357Y-107545142D01*
X101821738Y-107449904D01*
X101821738Y-107259428D01*
X101869357Y-107164190D01*
X101916976Y-107116571D01*
X102012214Y-107068952D01*
X100964595Y-106640380D02*
X101155071Y-106640380D01*
X101250309Y-106688000D01*
X101297928Y-106735619D01*
X101393166Y-106878476D01*
X101440785Y-107068952D01*
X101440785Y-107449904D01*
X101393166Y-107545142D01*
X101345547Y-107592761D01*
X101250309Y-107640380D01*
X101059833Y-107640380D01*
X100964595Y-107592761D01*
X100916976Y-107545142D01*
X100869357Y-107449904D01*
X100869357Y-107211809D01*
X100916976Y-107116571D01*
X100964595Y-107068952D01*
X101059833Y-107021333D01*
X101250309Y-107021333D01*
X101345547Y-107068952D01*
X101393166Y-107116571D01*
X101440785Y-107211809D01*
X100488404Y-106735619D02*
X100440785Y-106688000D01*
X100345547Y-106640380D01*
X100107452Y-106640380D01*
X100012214Y-106688000D01*
X99964595Y-106735619D01*
X99916976Y-106830857D01*
X99916976Y-106926095D01*
X99964595Y-107068952D01*
X100536023Y-107640380D01*
X99916976Y-107640380D01*
X99536023Y-106735619D02*
X99488404Y-106688000D01*
X99393166Y-106640380D01*
X99155071Y-106640380D01*
X99059833Y-106688000D01*
X99012214Y-106735619D01*
X98964595Y-106830857D01*
X98964595Y-106926095D01*
X99012214Y-107068952D01*
X99583642Y-107640380D01*
X98964595Y-107640380D01*
X98345547Y-106640380D02*
X98250309Y-106640380D01*
X98155071Y-106688000D01*
X98107452Y-106735619D01*
X98059833Y-106830857D01*
X98012214Y-107021333D01*
X98012214Y-107259428D01*
X98059833Y-107449904D01*
X98107452Y-107545142D01*
X98155071Y-107592761D01*
X98250309Y-107640380D01*
X98345547Y-107640380D01*
X98440785Y-107592761D01*
X98488404Y-107545142D01*
X98536023Y-107449904D01*
X98583642Y-107259428D01*
X98583642Y-107021333D01*
X98536023Y-106830857D01*
X98488404Y-106735619D01*
X98440785Y-106688000D01*
X98345547Y-106640380D01*
X97440785Y-106640380D02*
X97440785Y-106878476D01*
X97678880Y-106783238D02*
X97440785Y-106878476D01*
X97202690Y-106783238D01*
X97583642Y-107068952D02*
X97440785Y-106878476D01*
X97297928Y-107068952D01*
X114774119Y-108385619D02*
X114726500Y-108338000D01*
X114631261Y-108290380D01*
X114393166Y-108290380D01*
X114297928Y-108338000D01*
X114250309Y-108385619D01*
X114202690Y-108480857D01*
X114202690Y-108576095D01*
X114250309Y-108718952D01*
X114821738Y-109290380D01*
X114202690Y-109290380D01*
X110916976Y-109290380D02*
X111250309Y-108814190D01*
X111488404Y-109290380D02*
X111488404Y-108290380D01*
X111107452Y-108290380D01*
X111012214Y-108338000D01*
X110964595Y-108385619D01*
X110916976Y-108480857D01*
X110916976Y-108623714D01*
X110964595Y-108718952D01*
X111012214Y-108766571D01*
X111107452Y-108814190D01*
X111488404Y-108814190D01*
X110345547Y-109290380D02*
X110440785Y-109242761D01*
X110488404Y-109195142D01*
X110536023Y-109099904D01*
X110536023Y-108814190D01*
X110488404Y-108718952D01*
X110440785Y-108671333D01*
X110345547Y-108623714D01*
X110202690Y-108623714D01*
X110107452Y-108671333D01*
X110059833Y-108718952D01*
X110012214Y-108814190D01*
X110012214Y-109099904D01*
X110059833Y-109195142D01*
X110107452Y-109242761D01*
X110202690Y-109290380D01*
X110345547Y-109290380D01*
X109583642Y-109290380D02*
X109583642Y-108480857D01*
X109536023Y-108385619D01*
X109488404Y-108338000D01*
X109393166Y-108290380D01*
X109250309Y-108290380D01*
X109155071Y-108338000D01*
X109107452Y-108385619D01*
X109059833Y-108480857D01*
X109059833Y-108623714D01*
X109202690Y-108623714D01*
X109297928Y-108671333D01*
X109345547Y-108766571D01*
X109345547Y-108814190D01*
X109297928Y-108909428D01*
X109202690Y-108957047D01*
X109059833Y-108957047D01*
X108964595Y-109004666D01*
X108916976Y-109099904D01*
X108916976Y-109147523D01*
X108964595Y-109242761D01*
X109059833Y-109290380D01*
X109250309Y-109290380D01*
X109345547Y-109242761D01*
X108488404Y-109290380D02*
X108488404Y-108623714D01*
X108488404Y-108718952D02*
X108440785Y-108671333D01*
X108345547Y-108623714D01*
X108202690Y-108623714D01*
X108107452Y-108671333D01*
X108059833Y-108766571D01*
X108059833Y-109290380D01*
X108059833Y-108766571D02*
X108012214Y-108671333D01*
X107916976Y-108623714D01*
X107774119Y-108623714D01*
X107678880Y-108671333D01*
X107631261Y-108766571D01*
X107631261Y-109290380D01*
X107012214Y-109290380D02*
X107107452Y-109242761D01*
X107155071Y-109195142D01*
X107202690Y-109099904D01*
X107202690Y-108814190D01*
X107155071Y-108718952D01*
X107107452Y-108671333D01*
X107012214Y-108623714D01*
X106869357Y-108623714D01*
X106774119Y-108671333D01*
X106726500Y-108718952D01*
X106678880Y-108814190D01*
X106678880Y-109099904D01*
X106726500Y-109195142D01*
X106774119Y-109242761D01*
X106869357Y-109290380D01*
X107012214Y-109290380D01*
X107107452Y-108290380D02*
X107059833Y-108338000D01*
X107107452Y-108385619D01*
X107155071Y-108338000D01*
X107107452Y-108290380D01*
X107107452Y-108385619D01*
X106726500Y-108290380D02*
X106678880Y-108338000D01*
X106726500Y-108385619D01*
X106774119Y-108338000D01*
X106726500Y-108290380D01*
X106726500Y-108385619D01*
X106107452Y-109290380D02*
X106202690Y-109242761D01*
X106250309Y-109147523D01*
X106250309Y-108290380D01*
X105583642Y-109290380D02*
X105678880Y-109242761D01*
X105726500Y-109147523D01*
X105726500Y-108290380D01*
X104821738Y-109242761D02*
X104916976Y-109290380D01*
X105107452Y-109290380D01*
X105202690Y-109242761D01*
X105250309Y-109147523D01*
X105250309Y-108766571D01*
X105202690Y-108671333D01*
X105107452Y-108623714D01*
X104916976Y-108623714D01*
X104821738Y-108671333D01*
X104774119Y-108766571D01*
X104774119Y-108861809D01*
X105250309Y-108957047D01*
X104345547Y-109290380D02*
X104345547Y-108623714D01*
X104345547Y-108814190D02*
X104297928Y-108718952D01*
X104250309Y-108671333D01*
X104155071Y-108623714D01*
X104059833Y-108623714D01*
X102964595Y-109290380D02*
X102964595Y-108290380D01*
X102726500Y-108290380D01*
X102583642Y-108338000D01*
X102488404Y-108433238D01*
X102440785Y-108528476D01*
X102393166Y-108718952D01*
X102393166Y-108861809D01*
X102440785Y-109052285D01*
X102488404Y-109147523D01*
X102583642Y-109242761D01*
X102726500Y-109290380D01*
X102964595Y-109290380D01*
X101821738Y-109290380D02*
X101916976Y-109242761D01*
X101964595Y-109195142D01*
X102012214Y-109099904D01*
X102012214Y-108814190D01*
X101964595Y-108718952D01*
X101916976Y-108671333D01*
X101821738Y-108623714D01*
X101678880Y-108623714D01*
X101583642Y-108671333D01*
X101536023Y-108718952D01*
X101488404Y-108814190D01*
X101488404Y-109099904D01*
X101536023Y-109195142D01*
X101583642Y-109242761D01*
X101678880Y-109290380D01*
X101821738Y-109290380D01*
X100631261Y-109242761D02*
X100726500Y-109290380D01*
X100916976Y-109290380D01*
X101012214Y-109242761D01*
X101059833Y-109195142D01*
X101107452Y-109099904D01*
X101107452Y-108814190D01*
X101059833Y-108718952D01*
X101012214Y-108671333D01*
X100916976Y-108623714D01*
X100726500Y-108623714D01*
X100631261Y-108671333D01*
X100345547Y-108623714D02*
X99964595Y-108623714D01*
X100202690Y-108290380D02*
X100202690Y-109147523D01*
X100155071Y-109242761D01*
X100059833Y-109290380D01*
X99964595Y-109290380D01*
X99488404Y-109290380D02*
X99583642Y-109242761D01*
X99631261Y-109195142D01*
X99678880Y-109099904D01*
X99678880Y-108814190D01*
X99631261Y-108718952D01*
X99583642Y-108671333D01*
X99488404Y-108623714D01*
X99345547Y-108623714D01*
X99250309Y-108671333D01*
X99202690Y-108718952D01*
X99155071Y-108814190D01*
X99155071Y-109099904D01*
X99202690Y-109195142D01*
X99250309Y-109242761D01*
X99345547Y-109290380D01*
X99488404Y-109290380D01*
X98726500Y-109290380D02*
X98726500Y-108623714D01*
X98726500Y-108814190D02*
X98678880Y-108718952D01*
X98631261Y-108671333D01*
X98536023Y-108623714D01*
X98440785Y-108623714D01*
X97678880Y-108290380D02*
X97869357Y-108290380D01*
X97964595Y-108338000D01*
X98012214Y-108385619D01*
X98107452Y-108528476D01*
X98155071Y-108718952D01*
X98155071Y-109099904D01*
X98107452Y-109195142D01*
X98059833Y-109242761D01*
X97964595Y-109290380D01*
X97774119Y-109290380D01*
X97678880Y-109242761D01*
X97631261Y-109195142D01*
X97583642Y-109099904D01*
X97583642Y-108861809D01*
X97631261Y-108766571D01*
X97678880Y-108718952D01*
X97774119Y-108671333D01*
X97964595Y-108671333D01*
X98059833Y-108718952D01*
X98107452Y-108766571D01*
X98155071Y-108861809D01*
X96726500Y-108623714D02*
X96726500Y-109290380D01*
X96964595Y-108242761D02*
X97202690Y-108957047D01*
X96583642Y-108957047D01*
X114821738Y-109940380D02*
X114202690Y-109940380D01*
X114536023Y-110321333D01*
X114393166Y-110321333D01*
X114297928Y-110368952D01*
X114250309Y-110416571D01*
X114202690Y-110511809D01*
X114202690Y-110749904D01*
X114250309Y-110845142D01*
X114297928Y-110892761D01*
X114393166Y-110940380D01*
X114678880Y-110940380D01*
X114774119Y-110892761D01*
X114821738Y-110845142D01*
X111631261Y-109940380D02*
X111059833Y-109940380D01*
X111345547Y-110940380D02*
X111345547Y-109940380D01*
X110726500Y-110940380D02*
X110726500Y-110273714D01*
X110726500Y-110464190D02*
X110678880Y-110368952D01*
X110631261Y-110321333D01*
X110536023Y-110273714D01*
X110440785Y-110273714D01*
X110107452Y-110940380D02*
X110107452Y-110273714D01*
X110107452Y-109940380D02*
X110155071Y-109988000D01*
X110107452Y-110035619D01*
X110059833Y-109988000D01*
X110107452Y-109940380D01*
X110107452Y-110035619D01*
X109488404Y-110940380D02*
X109583642Y-110892761D01*
X109631261Y-110797523D01*
X109631261Y-109940380D01*
X108964595Y-110940380D02*
X109059833Y-110892761D01*
X109107452Y-110845142D01*
X109155071Y-110749904D01*
X109155071Y-110464190D01*
X109107452Y-110368952D01*
X109059833Y-110321333D01*
X108964595Y-110273714D01*
X108821738Y-110273714D01*
X108726500Y-110321333D01*
X108678880Y-110368952D01*
X108631261Y-110464190D01*
X108631261Y-110749904D01*
X108678880Y-110845142D01*
X108726500Y-110892761D01*
X108821738Y-110940380D01*
X108964595Y-110940380D01*
X107774119Y-110273714D02*
X107774119Y-111083238D01*
X107821738Y-111178476D01*
X107869357Y-111226095D01*
X107964595Y-111273714D01*
X108107452Y-111273714D01*
X108202690Y-111226095D01*
X107774119Y-110892761D02*
X107869357Y-110940380D01*
X108059833Y-110940380D01*
X108155071Y-110892761D01*
X108202690Y-110845142D01*
X108250309Y-110749904D01*
X108250309Y-110464190D01*
X108202690Y-110368952D01*
X108155071Y-110321333D01*
X108059833Y-110273714D01*
X107869357Y-110273714D01*
X107774119Y-110321333D01*
X107297928Y-110940380D02*
X107297928Y-110273714D01*
X107297928Y-109940380D02*
X107345547Y-109988000D01*
X107297928Y-110035619D01*
X107250309Y-109988000D01*
X107297928Y-109940380D01*
X107297928Y-110035619D01*
X106393166Y-110892761D02*
X106488404Y-110940380D01*
X106678880Y-110940380D01*
X106774119Y-110892761D01*
X106821738Y-110845142D01*
X106869357Y-110749904D01*
X106869357Y-110464190D01*
X106821738Y-110368952D01*
X106774119Y-110321333D01*
X106678880Y-110273714D01*
X106488404Y-110273714D01*
X106393166Y-110321333D01*
X104774119Y-109940380D02*
X104964595Y-109940380D01*
X105059833Y-109988000D01*
X105107452Y-110035619D01*
X105202690Y-110178476D01*
X105250309Y-110368952D01*
X105250309Y-110749904D01*
X105202690Y-110845142D01*
X105155071Y-110892761D01*
X105059833Y-110940380D01*
X104869357Y-110940380D01*
X104774119Y-110892761D01*
X104726500Y-110845142D01*
X104678880Y-110749904D01*
X104678880Y-110511809D01*
X104726500Y-110416571D01*
X104774119Y-110368952D01*
X104869357Y-110321333D01*
X105059833Y-110321333D01*
X105155071Y-110368952D01*
X105202690Y-110416571D01*
X105250309Y-110511809D01*
X103821738Y-110273714D02*
X103821738Y-110940380D01*
X104059833Y-109892761D02*
X104297928Y-110607047D01*
X103678880Y-110607047D01*
X102536023Y-110940380D02*
X102536023Y-109940380D01*
X102297928Y-109940380D01*
X102155071Y-109988000D01*
X102059833Y-110083238D01*
X102012214Y-110178476D01*
X101964595Y-110368952D01*
X101964595Y-110511809D01*
X102012214Y-110702285D01*
X102059833Y-110797523D01*
X102155071Y-110892761D01*
X102297928Y-110940380D01*
X102536023Y-110940380D01*
X101393166Y-110940380D02*
X101488404Y-110892761D01*
X101536023Y-110845142D01*
X101583642Y-110749904D01*
X101583642Y-110464190D01*
X101536023Y-110368952D01*
X101488404Y-110321333D01*
X101393166Y-110273714D01*
X101250309Y-110273714D01*
X101155071Y-110321333D01*
X101107452Y-110368952D01*
X101059833Y-110464190D01*
X101059833Y-110749904D01*
X101107452Y-110845142D01*
X101155071Y-110892761D01*
X101250309Y-110940380D01*
X101393166Y-110940380D01*
X100202690Y-110892761D02*
X100297928Y-110940380D01*
X100488404Y-110940380D01*
X100583642Y-110892761D01*
X100631261Y-110845142D01*
X100678880Y-110749904D01*
X100678880Y-110464190D01*
X100631261Y-110368952D01*
X100583642Y-110321333D01*
X100488404Y-110273714D01*
X100297928Y-110273714D01*
X100202690Y-110321333D01*
X99916976Y-110273714D02*
X99536023Y-110273714D01*
X99774119Y-109940380D02*
X99774119Y-110797523D01*
X99726500Y-110892761D01*
X99631261Y-110940380D01*
X99536023Y-110940380D01*
X99059833Y-110940380D02*
X99155071Y-110892761D01*
X99202690Y-110845142D01*
X99250309Y-110749904D01*
X99250309Y-110464190D01*
X99202690Y-110368952D01*
X99155071Y-110321333D01*
X99059833Y-110273714D01*
X98916976Y-110273714D01*
X98821738Y-110321333D01*
X98774119Y-110368952D01*
X98726500Y-110464190D01*
X98726500Y-110749904D01*
X98774119Y-110845142D01*
X98821738Y-110892761D01*
X98916976Y-110940380D01*
X99059833Y-110940380D01*
X98297928Y-110940380D02*
X98297928Y-110273714D01*
X98297928Y-110464190D02*
X98250309Y-110368952D01*
X98202690Y-110321333D01*
X98107452Y-110273714D01*
X98012214Y-110273714D01*
X77470000Y-111506000D02*
X77470000Y-102870000D01*
X115824000Y-111506000D02*
X77470000Y-111506000D01*
X115824000Y-102870000D02*
X115824000Y-111506000D01*
X77470000Y-102870000D02*
X115824000Y-102870000D01*
D11*
X111608333Y-119112142D02*
X111608333Y-120124047D01*
X111667857Y-120243095D01*
X111727380Y-120302619D01*
X111846428Y-120362142D01*
X112025000Y-120362142D01*
X112144047Y-120302619D01*
X111608333Y-119885952D02*
X111727380Y-119945476D01*
X111965476Y-119945476D01*
X112084523Y-119885952D01*
X112144047Y-119826428D01*
X112203571Y-119707380D01*
X112203571Y-119350238D01*
X112144047Y-119231190D01*
X112084523Y-119171666D01*
X111965476Y-119112142D01*
X111727380Y-119112142D01*
X111608333Y-119171666D01*
X111013095Y-119945476D02*
X111013095Y-119112142D01*
X111013095Y-118695476D02*
X111072619Y-118755000D01*
X111013095Y-118814523D01*
X110953571Y-118755000D01*
X111013095Y-118695476D01*
X111013095Y-118814523D01*
X110596428Y-119112142D02*
X110120238Y-119112142D01*
X110417857Y-118695476D02*
X110417857Y-119766904D01*
X110358333Y-119885952D01*
X110239285Y-119945476D01*
X110120238Y-119945476D01*
X109703571Y-119945476D02*
X109703571Y-118695476D01*
X109167857Y-119945476D02*
X109167857Y-119290714D01*
X109227380Y-119171666D01*
X109346428Y-119112142D01*
X109525000Y-119112142D01*
X109644047Y-119171666D01*
X109703571Y-119231190D01*
X108036904Y-119112142D02*
X108036904Y-119945476D01*
X108572619Y-119112142D02*
X108572619Y-119766904D01*
X108513095Y-119885952D01*
X108394047Y-119945476D01*
X108215476Y-119945476D01*
X108096428Y-119885952D01*
X108036904Y-119826428D01*
X107441666Y-119945476D02*
X107441666Y-118695476D01*
X107441666Y-119171666D02*
X107322619Y-119112142D01*
X107084523Y-119112142D01*
X106965476Y-119171666D01*
X106905952Y-119231190D01*
X106846428Y-119350238D01*
X106846428Y-119707380D01*
X106905952Y-119826428D01*
X106965476Y-119885952D01*
X107084523Y-119945476D01*
X107322619Y-119945476D01*
X107441666Y-119885952D01*
X106310714Y-119826428D02*
X106251190Y-119885952D01*
X106310714Y-119945476D01*
X106370238Y-119885952D01*
X106310714Y-119826428D01*
X106310714Y-119945476D01*
X105179761Y-119885952D02*
X105298809Y-119945476D01*
X105536904Y-119945476D01*
X105655952Y-119885952D01*
X105715476Y-119826428D01*
X105775000Y-119707380D01*
X105775000Y-119350238D01*
X105715476Y-119231190D01*
X105655952Y-119171666D01*
X105536904Y-119112142D01*
X105298809Y-119112142D01*
X105179761Y-119171666D01*
X104465476Y-119945476D02*
X104584523Y-119885952D01*
X104644047Y-119826428D01*
X104703571Y-119707380D01*
X104703571Y-119350238D01*
X104644047Y-119231190D01*
X104584523Y-119171666D01*
X104465476Y-119112142D01*
X104286904Y-119112142D01*
X104167857Y-119171666D01*
X104108333Y-119231190D01*
X104048809Y-119350238D01*
X104048809Y-119707380D01*
X104108333Y-119826428D01*
X104167857Y-119885952D01*
X104286904Y-119945476D01*
X104465476Y-119945476D01*
X103513095Y-119945476D02*
X103513095Y-119112142D01*
X103513095Y-119231190D02*
X103453571Y-119171666D01*
X103334523Y-119112142D01*
X103155952Y-119112142D01*
X103036904Y-119171666D01*
X102977380Y-119290714D01*
X102977380Y-119945476D01*
X102977380Y-119290714D02*
X102917857Y-119171666D01*
X102798809Y-119112142D01*
X102620238Y-119112142D01*
X102501190Y-119171666D01*
X102441666Y-119290714D01*
X102441666Y-119945476D01*
X100953571Y-118635952D02*
X102025000Y-120243095D01*
X100715476Y-118695476D02*
X100001190Y-118695476D01*
X100358333Y-119945476D02*
X100358333Y-118695476D01*
X99584523Y-119945476D02*
X99584523Y-118695476D01*
X99048809Y-119945476D02*
X99048809Y-119290714D01*
X99108333Y-119171666D01*
X99227380Y-119112142D01*
X99405952Y-119112142D01*
X99525000Y-119171666D01*
X99584523Y-119231190D01*
X97977380Y-119885952D02*
X98096428Y-119945476D01*
X98334523Y-119945476D01*
X98453571Y-119885952D01*
X98513095Y-119766904D01*
X98513095Y-119290714D01*
X98453571Y-119171666D01*
X98334523Y-119112142D01*
X98096428Y-119112142D01*
X97977380Y-119171666D01*
X97917857Y-119290714D01*
X97917857Y-119409761D01*
X98513095Y-119528809D01*
X97441666Y-119885952D02*
X97263095Y-119945476D01*
X96965476Y-119945476D01*
X96846428Y-119885952D01*
X96786904Y-119826428D01*
X96727380Y-119707380D01*
X96727380Y-119588333D01*
X96786904Y-119469285D01*
X96846428Y-119409761D01*
X96965476Y-119350238D01*
X97203571Y-119290714D01*
X97322619Y-119231190D01*
X97382142Y-119171666D01*
X97441666Y-119052619D01*
X97441666Y-118933571D01*
X97382142Y-118814523D01*
X97322619Y-118755000D01*
X97203571Y-118695476D01*
X96905952Y-118695476D01*
X96727380Y-118755000D01*
X95655952Y-119112142D02*
X95655952Y-119945476D01*
X96191666Y-119112142D02*
X96191666Y-119766904D01*
X96132142Y-119885952D01*
X96013095Y-119945476D01*
X95834523Y-119945476D01*
X95715476Y-119885952D01*
X95655952Y-119826428D01*
X95060714Y-119112142D02*
X95060714Y-120362142D01*
X95060714Y-119171666D02*
X94941666Y-119112142D01*
X94703571Y-119112142D01*
X94584523Y-119171666D01*
X94525000Y-119231190D01*
X94465476Y-119350238D01*
X94465476Y-119707380D01*
X94525000Y-119826428D01*
X94584523Y-119885952D01*
X94703571Y-119945476D01*
X94941666Y-119945476D01*
X95060714Y-119885952D01*
X93929761Y-119945476D02*
X93929761Y-119112142D01*
X93929761Y-119350238D02*
X93870238Y-119231190D01*
X93810714Y-119171666D01*
X93691666Y-119112142D01*
X93572619Y-119112142D01*
X92679761Y-119885952D02*
X92798809Y-119945476D01*
X93036904Y-119945476D01*
X93155952Y-119885952D01*
X93215476Y-119766904D01*
X93215476Y-119290714D01*
X93155952Y-119171666D01*
X93036904Y-119112142D01*
X92798809Y-119112142D01*
X92679761Y-119171666D01*
X92620238Y-119290714D01*
X92620238Y-119409761D01*
X93215476Y-119528809D01*
X92084523Y-119945476D02*
X92084523Y-119112142D01*
X92084523Y-119231190D02*
X92025000Y-119171666D01*
X91905952Y-119112142D01*
X91727380Y-119112142D01*
X91608333Y-119171666D01*
X91548809Y-119290714D01*
X91548809Y-119945476D01*
X91548809Y-119290714D02*
X91489285Y-119171666D01*
X91370238Y-119112142D01*
X91191666Y-119112142D01*
X91072619Y-119171666D01*
X91013095Y-119290714D01*
X91013095Y-119945476D01*
X89941666Y-119885952D02*
X90060714Y-119945476D01*
X90298809Y-119945476D01*
X90417857Y-119885952D01*
X90477380Y-119766904D01*
X90477380Y-119290714D01*
X90417857Y-119171666D01*
X90298809Y-119112142D01*
X90060714Y-119112142D01*
X89941666Y-119171666D01*
X89882142Y-119290714D01*
X89882142Y-119409761D01*
X90477380Y-119528809D01*
X89346428Y-119945476D02*
X89346428Y-118695476D01*
X88929761Y-119588333D01*
X88513095Y-118695476D01*
X88513095Y-119945476D01*
X87739285Y-119945476D02*
X87858333Y-119885952D01*
X87917857Y-119826428D01*
X87977380Y-119707380D01*
X87977380Y-119350238D01*
X87917857Y-119231190D01*
X87858333Y-119171666D01*
X87739285Y-119112142D01*
X87560714Y-119112142D01*
X87441666Y-119171666D01*
X87382142Y-119231190D01*
X87322619Y-119350238D01*
X87322619Y-119707380D01*
X87382142Y-119826428D01*
X87441666Y-119885952D01*
X87560714Y-119945476D01*
X87739285Y-119945476D01*
X86786904Y-119112142D02*
X86786904Y-119945476D01*
X86786904Y-119231190D02*
X86727380Y-119171666D01*
X86608333Y-119112142D01*
X86429761Y-119112142D01*
X86310714Y-119171666D01*
X86251190Y-119290714D01*
X86251190Y-119945476D01*
X85655952Y-119945476D02*
X85655952Y-118695476D01*
X85536904Y-119469285D02*
X85179761Y-119945476D01*
X85179761Y-119112142D02*
X85655952Y-119588333D01*
X84167857Y-119885952D02*
X84286904Y-119945476D01*
X84525000Y-119945476D01*
X84644047Y-119885952D01*
X84703571Y-119766904D01*
X84703571Y-119290714D01*
X84644047Y-119171666D01*
X84525000Y-119112142D01*
X84286904Y-119112142D01*
X84167857Y-119171666D01*
X84108333Y-119290714D01*
X84108333Y-119409761D01*
X84703571Y-119528809D01*
X83691666Y-119112142D02*
X83394047Y-119945476D01*
X83096428Y-119112142D02*
X83394047Y-119945476D01*
X83513095Y-120243095D01*
X83572619Y-120302619D01*
X83691666Y-120362142D01*
X81727380Y-118635952D02*
X82798809Y-120243095D01*
X81072619Y-118695476D02*
X80834523Y-118695476D01*
X80715476Y-118755000D01*
X80596428Y-118874047D01*
X80536904Y-119112142D01*
X80536904Y-119528809D01*
X80596428Y-119766904D01*
X80715476Y-119885952D01*
X80834523Y-119945476D01*
X81072619Y-119945476D01*
X81191666Y-119885952D01*
X81310714Y-119766904D01*
X81370238Y-119528809D01*
X81370238Y-119112142D01*
X81310714Y-118874047D01*
X81191666Y-118755000D01*
X81072619Y-118695476D01*
X80001190Y-119112142D02*
X80001190Y-120362142D01*
X80001190Y-119171666D02*
X79882142Y-119112142D01*
X79644047Y-119112142D01*
X79525000Y-119171666D01*
X79465476Y-119231190D01*
X79405952Y-119350238D01*
X79405952Y-119707380D01*
X79465476Y-119826428D01*
X79525000Y-119885952D01*
X79644047Y-119945476D01*
X79882142Y-119945476D01*
X80001190Y-119885952D01*
X78394047Y-119885952D02*
X78513095Y-119945476D01*
X78751190Y-119945476D01*
X78870238Y-119885952D01*
X78929761Y-119766904D01*
X78929761Y-119290714D01*
X78870238Y-119171666D01*
X78751190Y-119112142D01*
X78513095Y-119112142D01*
X78394047Y-119171666D01*
X78334523Y-119290714D01*
X78334523Y-119409761D01*
X78929761Y-119528809D01*
X77798809Y-119112142D02*
X77798809Y-119945476D01*
X77798809Y-119231190D02*
X77739285Y-119171666D01*
X77620238Y-119112142D01*
X77441666Y-119112142D01*
X77322619Y-119171666D01*
X77263095Y-119290714D01*
X77263095Y-119945476D01*
X75953571Y-119826428D02*
X76013095Y-119885952D01*
X76191666Y-119945476D01*
X76310714Y-119945476D01*
X76489285Y-119885952D01*
X76608333Y-119766904D01*
X76667857Y-119647857D01*
X76727380Y-119409761D01*
X76727380Y-119231190D01*
X76667857Y-118993095D01*
X76608333Y-118874047D01*
X76489285Y-118755000D01*
X76310714Y-118695476D01*
X76191666Y-118695476D01*
X76013095Y-118755000D01*
X75953571Y-118814523D01*
X74882142Y-118695476D02*
X75120238Y-118695476D01*
X75239285Y-118755000D01*
X75298809Y-118814523D01*
X75417857Y-118993095D01*
X75477380Y-119231190D01*
X75477380Y-119707380D01*
X75417857Y-119826428D01*
X75358333Y-119885952D01*
X75239285Y-119945476D01*
X75001190Y-119945476D01*
X74882142Y-119885952D01*
X74822619Y-119826428D01*
X74763095Y-119707380D01*
X74763095Y-119409761D01*
X74822619Y-119290714D01*
X74882142Y-119231190D01*
X75001190Y-119171666D01*
X75239285Y-119171666D01*
X75358333Y-119231190D01*
X75417857Y-119290714D01*
X75477380Y-119409761D01*
X73691666Y-119112142D02*
X73691666Y-119945476D01*
X73989285Y-118635952D02*
X74286904Y-119528809D01*
X73513095Y-119528809D01*
X73036904Y-119945476D02*
X73036904Y-118695476D01*
X72739285Y-118695476D01*
X72560714Y-118755000D01*
X72441666Y-118874047D01*
X72382142Y-118993095D01*
X72322619Y-119231190D01*
X72322619Y-119409761D01*
X72382142Y-119647857D01*
X72441666Y-119766904D01*
X72560714Y-119885952D01*
X72739285Y-119945476D01*
X73036904Y-119945476D01*
X71786904Y-119945476D02*
X71786904Y-119112142D01*
X71786904Y-118695476D02*
X71846428Y-118755000D01*
X71786904Y-118814523D01*
X71727380Y-118755000D01*
X71786904Y-118695476D01*
X71786904Y-118814523D01*
X70655952Y-119945476D02*
X70655952Y-119290714D01*
X70715476Y-119171666D01*
X70834523Y-119112142D01*
X71072619Y-119112142D01*
X71191666Y-119171666D01*
X70655952Y-119885952D02*
X70775000Y-119945476D01*
X71072619Y-119945476D01*
X71191666Y-119885952D01*
X71251190Y-119766904D01*
X71251190Y-119647857D01*
X71191666Y-119528809D01*
X71072619Y-119469285D01*
X70775000Y-119469285D01*
X70655952Y-119409761D01*
X69525000Y-119112142D02*
X69525000Y-120124047D01*
X69584523Y-120243095D01*
X69644047Y-120302619D01*
X69763095Y-120362142D01*
X69941666Y-120362142D01*
X70060714Y-120302619D01*
X69525000Y-119885952D02*
X69644047Y-119945476D01*
X69882142Y-119945476D01*
X70001190Y-119885952D01*
X70060714Y-119826428D01*
X70120238Y-119707380D01*
X70120238Y-119350238D01*
X70060714Y-119231190D01*
X70001190Y-119171666D01*
X69882142Y-119112142D01*
X69644047Y-119112142D01*
X69525000Y-119171666D01*
X68215476Y-119826428D02*
X68275000Y-119885952D01*
X68453571Y-119945476D01*
X68572619Y-119945476D01*
X68751190Y-119885952D01*
X68870238Y-119766904D01*
X68929761Y-119647857D01*
X68989285Y-119409761D01*
X68989285Y-119231190D01*
X68929761Y-118993095D01*
X68870238Y-118874047D01*
X68751190Y-118755000D01*
X68572619Y-118695476D01*
X68453571Y-118695476D01*
X68275000Y-118755000D01*
X68215476Y-118814523D01*
X67144047Y-119945476D02*
X67144047Y-119290714D01*
X67203571Y-119171666D01*
X67322619Y-119112142D01*
X67560714Y-119112142D01*
X67679761Y-119171666D01*
X67144047Y-119885952D02*
X67263095Y-119945476D01*
X67560714Y-119945476D01*
X67679761Y-119885952D01*
X67739285Y-119766904D01*
X67739285Y-119647857D01*
X67679761Y-119528809D01*
X67560714Y-119469285D01*
X67263095Y-119469285D01*
X67144047Y-119409761D01*
X66548809Y-119945476D02*
X66548809Y-119112142D01*
X66548809Y-119350238D02*
X66489285Y-119231190D01*
X66429761Y-119171666D01*
X66310714Y-119112142D01*
X66191666Y-119112142D01*
X65953571Y-119112142D02*
X65477380Y-119112142D01*
X65775000Y-118695476D02*
X65775000Y-119766904D01*
X65715476Y-119885952D01*
X65596428Y-119945476D01*
X65477380Y-119945476D01*
D12*
X66926000Y-113014000D02*
X69726000Y-113014000D01*
X70376000Y-112314000D02*
X70376000Y-111714000D01*
X69726000Y-111014000D02*
X66926000Y-111014000D01*
X66276000Y-111714000D02*
X66276000Y-112314000D01*
X66276000Y-112314000D02*
G75*
G03*
X66976000Y-113014000I700000J0D01*
G01*
X66976000Y-111014000D02*
G75*
G03*
X66276000Y-111714000I0J-700000D01*
G01*
X70376000Y-111714000D02*
G75*
G03*
X69676000Y-111014000I-700000J0D01*
G01*
X69676000Y-113014000D02*
G75*
G03*
X70376000Y-112314000I0J700000D01*
G01*
X69726000Y-107712000D02*
X66926000Y-107712000D01*
X66276000Y-108412000D02*
X66276000Y-109012000D01*
X66926000Y-109712000D02*
X69726000Y-109712000D01*
X70376000Y-109012000D02*
X70376000Y-108412000D01*
X70376000Y-108412000D02*
G75*
G03*
X69676000Y-107712000I-700000J0D01*
G01*
X69676000Y-109712000D02*
G75*
G03*
X70376000Y-109012000I0J700000D01*
G01*
X66276000Y-109012000D02*
G75*
G03*
X66976000Y-109712000I700000J0D01*
G01*
X66976000Y-107712000D02*
G75*
G03*
X66276000Y-108412000I0J-700000D01*
G01*
X66164000Y-92440000D02*
X68964000Y-92440000D01*
X69614000Y-91740000D02*
X69614000Y-91140000D01*
X68964000Y-90440000D02*
X66164000Y-90440000D01*
X65514000Y-91140000D02*
X65514000Y-91740000D01*
X65514000Y-91740000D02*
G75*
G03*
X66214000Y-92440000I700000J0D01*
G01*
X66214000Y-90440000D02*
G75*
G03*
X65514000Y-91140000I0J-700000D01*
G01*
X69614000Y-91140000D02*
G75*
G03*
X68914000Y-90440000I-700000J0D01*
G01*
X68914000Y-92440000D02*
G75*
G03*
X69614000Y-91740000I0J700000D01*
G01*
X72768000Y-92440000D02*
X75568000Y-92440000D01*
X76218000Y-91740000D02*
X76218000Y-91140000D01*
X75568000Y-90440000D02*
X72768000Y-90440000D01*
X72118000Y-91140000D02*
X72118000Y-91740000D01*
X72118000Y-91740000D02*
G75*
G03*
X72818000Y-92440000I700000J0D01*
G01*
X72818000Y-90440000D02*
G75*
G03*
X72118000Y-91140000I0J-700000D01*
G01*
X76218000Y-91140000D02*
G75*
G03*
X75518000Y-90440000I-700000J0D01*
G01*
X75518000Y-92440000D02*
G75*
G03*
X76218000Y-91740000I0J700000D01*
G01*
D10*
X69159333Y-113266380D02*
X69159333Y-113980666D01*
X69206952Y-114123523D01*
X69302190Y-114218761D01*
X69445047Y-114266380D01*
X69540285Y-114266380D01*
X68683142Y-114266380D02*
X68683142Y-113266380D01*
X68302190Y-113266380D01*
X68206952Y-113314000D01*
X68159333Y-113361619D01*
X68111714Y-113456857D01*
X68111714Y-113599714D01*
X68159333Y-113694952D01*
X68206952Y-113742571D01*
X68302190Y-113790190D01*
X68683142Y-113790190D01*
X67730761Y-113361619D02*
X67683142Y-113314000D01*
X67587904Y-113266380D01*
X67349809Y-113266380D01*
X67254571Y-113314000D01*
X67206952Y-113361619D01*
X67159333Y-113456857D01*
X67159333Y-113552095D01*
X67206952Y-113694952D01*
X67778380Y-114266380D01*
X67159333Y-114266380D01*
X65440285Y-112466380D02*
X66011714Y-112466380D01*
X65726000Y-112466380D02*
X65726000Y-111466380D01*
X65821238Y-111609238D01*
X65916476Y-111704476D01*
X66011714Y-111752095D01*
X71259333Y-111466380D02*
X70640285Y-111466380D01*
X70973619Y-111847333D01*
X70830761Y-111847333D01*
X70735523Y-111894952D01*
X70687904Y-111942571D01*
X70640285Y-112037809D01*
X70640285Y-112275904D01*
X70687904Y-112371142D01*
X70735523Y-112418761D01*
X70830761Y-112466380D01*
X71116476Y-112466380D01*
X71211714Y-112418761D01*
X71259333Y-112371142D01*
X69159333Y-106364380D02*
X69159333Y-107078666D01*
X69206952Y-107221523D01*
X69302190Y-107316761D01*
X69445047Y-107364380D01*
X69540285Y-107364380D01*
X68683142Y-107364380D02*
X68683142Y-106364380D01*
X68302190Y-106364380D01*
X68206952Y-106412000D01*
X68159333Y-106459619D01*
X68111714Y-106554857D01*
X68111714Y-106697714D01*
X68159333Y-106792952D01*
X68206952Y-106840571D01*
X68302190Y-106888190D01*
X68683142Y-106888190D01*
X67159333Y-107364380D02*
X67730761Y-107364380D01*
X67445047Y-107364380D02*
X67445047Y-106364380D01*
X67540285Y-106507238D01*
X67635523Y-106602476D01*
X67730761Y-106650095D01*
X70640285Y-109164380D02*
X71211714Y-109164380D01*
X70926000Y-109164380D02*
X70926000Y-108164380D01*
X71021238Y-108307238D01*
X71116476Y-108402476D01*
X71211714Y-108450095D01*
X66059333Y-108164380D02*
X65440285Y-108164380D01*
X65773619Y-108545333D01*
X65630761Y-108545333D01*
X65535523Y-108592952D01*
X65487904Y-108640571D01*
X65440285Y-108735809D01*
X65440285Y-108973904D01*
X65487904Y-109069142D01*
X65535523Y-109116761D01*
X65630761Y-109164380D01*
X65916476Y-109164380D01*
X66011714Y-109116761D01*
X66059333Y-109069142D01*
X68397333Y-92692380D02*
X68397333Y-93406666D01*
X68444952Y-93549523D01*
X68540190Y-93644761D01*
X68683047Y-93692380D01*
X68778285Y-93692380D01*
X67921142Y-93692380D02*
X67921142Y-92692380D01*
X67540190Y-92692380D01*
X67444952Y-92740000D01*
X67397333Y-92787619D01*
X67349714Y-92882857D01*
X67349714Y-93025714D01*
X67397333Y-93120952D01*
X67444952Y-93168571D01*
X67540190Y-93216190D01*
X67921142Y-93216190D01*
X66492571Y-93025714D02*
X66492571Y-93692380D01*
X66730666Y-92644761D02*
X66968761Y-93359047D01*
X66349714Y-93359047D01*
X64678285Y-91892380D02*
X65249714Y-91892380D01*
X64964000Y-91892380D02*
X64964000Y-90892380D01*
X65059238Y-91035238D01*
X65154476Y-91130476D01*
X65249714Y-91178095D01*
X70497333Y-90892380D02*
X69878285Y-90892380D01*
X70211619Y-91273333D01*
X70068761Y-91273333D01*
X69973523Y-91320952D01*
X69925904Y-91368571D01*
X69878285Y-91463809D01*
X69878285Y-91701904D01*
X69925904Y-91797142D01*
X69973523Y-91844761D01*
X70068761Y-91892380D01*
X70354476Y-91892380D01*
X70449714Y-91844761D01*
X70497333Y-91797142D01*
X75001333Y-92692380D02*
X75001333Y-93406666D01*
X75048952Y-93549523D01*
X75144190Y-93644761D01*
X75287047Y-93692380D01*
X75382285Y-93692380D01*
X74525142Y-93692380D02*
X74525142Y-92692380D01*
X74144190Y-92692380D01*
X74048952Y-92740000D01*
X74001333Y-92787619D01*
X73953714Y-92882857D01*
X73953714Y-93025714D01*
X74001333Y-93120952D01*
X74048952Y-93168571D01*
X74144190Y-93216190D01*
X74525142Y-93216190D01*
X73620380Y-92692380D02*
X73001333Y-92692380D01*
X73334666Y-93073333D01*
X73191809Y-93073333D01*
X73096571Y-93120952D01*
X73048952Y-93168571D01*
X73001333Y-93263809D01*
X73001333Y-93501904D01*
X73048952Y-93597142D01*
X73096571Y-93644761D01*
X73191809Y-93692380D01*
X73477523Y-93692380D01*
X73572761Y-93644761D01*
X73620380Y-93597142D01*
X71282285Y-91892380D02*
X71853714Y-91892380D01*
X71568000Y-91892380D02*
X71568000Y-90892380D01*
X71663238Y-91035238D01*
X71758476Y-91130476D01*
X71853714Y-91178095D01*
X77101333Y-90892380D02*
X76482285Y-90892380D01*
X76815619Y-91273333D01*
X76672761Y-91273333D01*
X76577523Y-91320952D01*
X76529904Y-91368571D01*
X76482285Y-91463809D01*
X76482285Y-91701904D01*
X76529904Y-91797142D01*
X76577523Y-91844761D01*
X76672761Y-91892380D01*
X76958476Y-91892380D01*
X77053714Y-91844761D01*
X77101333Y-91797142D01*
%LPC*%
D13*
G36*
X67576000Y-112764000D02*
G01*
X67026000Y-112764000D01*
X67026000Y-112763398D01*
X67001466Y-112763398D01*
X66952635Y-112758588D01*
X66904510Y-112749016D01*
X66857555Y-112734772D01*
X66812222Y-112715995D01*
X66768949Y-112692864D01*
X66728150Y-112665604D01*
X66690221Y-112634476D01*
X66655524Y-112599779D01*
X66624396Y-112561850D01*
X66597136Y-112521051D01*
X66574005Y-112477778D01*
X66555228Y-112432445D01*
X66540984Y-112385490D01*
X66531412Y-112337365D01*
X66526602Y-112288534D01*
X66526602Y-112264000D01*
X66526000Y-112264000D01*
X66526000Y-111764000D01*
X66526602Y-111764000D01*
X66526602Y-111739466D01*
X66531412Y-111690635D01*
X66540984Y-111642510D01*
X66555228Y-111595555D01*
X66574005Y-111550222D01*
X66597136Y-111506949D01*
X66624396Y-111466150D01*
X66655524Y-111428221D01*
X66690221Y-111393524D01*
X66728150Y-111362396D01*
X66768949Y-111335136D01*
X66812222Y-111312005D01*
X66857555Y-111293228D01*
X66904510Y-111278984D01*
X66952635Y-111269412D01*
X67001466Y-111264602D01*
X67026000Y-111264602D01*
X67026000Y-111264000D01*
X67576000Y-111264000D01*
X67576000Y-112764000D01*
G37*
D14*
X68326000Y-112014000D03*
D13*
G36*
X69626000Y-111264602D02*
G01*
X69650534Y-111264602D01*
X69699365Y-111269412D01*
X69747490Y-111278984D01*
X69794445Y-111293228D01*
X69839778Y-111312005D01*
X69883051Y-111335136D01*
X69923850Y-111362396D01*
X69961779Y-111393524D01*
X69996476Y-111428221D01*
X70027604Y-111466150D01*
X70054864Y-111506949D01*
X70077995Y-111550222D01*
X70096772Y-111595555D01*
X70111016Y-111642510D01*
X70120588Y-111690635D01*
X70125398Y-111739466D01*
X70125398Y-111764000D01*
X70126000Y-111764000D01*
X70126000Y-112264000D01*
X70125398Y-112264000D01*
X70125398Y-112288534D01*
X70120588Y-112337365D01*
X70111016Y-112385490D01*
X70096772Y-112432445D01*
X70077995Y-112477778D01*
X70054864Y-112521051D01*
X70027604Y-112561850D01*
X69996476Y-112599779D01*
X69961779Y-112634476D01*
X69923850Y-112665604D01*
X69883051Y-112692864D01*
X69839778Y-112715995D01*
X69794445Y-112734772D01*
X69747490Y-112749016D01*
X69699365Y-112758588D01*
X69650534Y-112763398D01*
X69626000Y-112763398D01*
X69626000Y-112764000D01*
X69076000Y-112764000D01*
X69076000Y-111264000D01*
X69626000Y-111264000D01*
X69626000Y-111264602D01*
G37*
G36*
X69076000Y-107962000D02*
G01*
X69626000Y-107962000D01*
X69626000Y-107962602D01*
X69650534Y-107962602D01*
X69699365Y-107967412D01*
X69747490Y-107976984D01*
X69794445Y-107991228D01*
X69839778Y-108010005D01*
X69883051Y-108033136D01*
X69923850Y-108060396D01*
X69961779Y-108091524D01*
X69996476Y-108126221D01*
X70027604Y-108164150D01*
X70054864Y-108204949D01*
X70077995Y-108248222D01*
X70096772Y-108293555D01*
X70111016Y-108340510D01*
X70120588Y-108388635D01*
X70125398Y-108437466D01*
X70125398Y-108462000D01*
X70126000Y-108462000D01*
X70126000Y-108962000D01*
X70125398Y-108962000D01*
X70125398Y-108986534D01*
X70120588Y-109035365D01*
X70111016Y-109083490D01*
X70096772Y-109130445D01*
X70077995Y-109175778D01*
X70054864Y-109219051D01*
X70027604Y-109259850D01*
X69996476Y-109297779D01*
X69961779Y-109332476D01*
X69923850Y-109363604D01*
X69883051Y-109390864D01*
X69839778Y-109413995D01*
X69794445Y-109432772D01*
X69747490Y-109447016D01*
X69699365Y-109456588D01*
X69650534Y-109461398D01*
X69626000Y-109461398D01*
X69626000Y-109462000D01*
X69076000Y-109462000D01*
X69076000Y-107962000D01*
G37*
D14*
X68326000Y-108712000D03*
D13*
G36*
X67026000Y-109461398D02*
G01*
X67001466Y-109461398D01*
X66952635Y-109456588D01*
X66904510Y-109447016D01*
X66857555Y-109432772D01*
X66812222Y-109413995D01*
X66768949Y-109390864D01*
X66728150Y-109363604D01*
X66690221Y-109332476D01*
X66655524Y-109297779D01*
X66624396Y-109259850D01*
X66597136Y-109219051D01*
X66574005Y-109175778D01*
X66555228Y-109130445D01*
X66540984Y-109083490D01*
X66531412Y-109035365D01*
X66526602Y-108986534D01*
X66526602Y-108962000D01*
X66526000Y-108962000D01*
X66526000Y-108462000D01*
X66526602Y-108462000D01*
X66526602Y-108437466D01*
X66531412Y-108388635D01*
X66540984Y-108340510D01*
X66555228Y-108293555D01*
X66574005Y-108248222D01*
X66597136Y-108204949D01*
X66624396Y-108164150D01*
X66655524Y-108126221D01*
X66690221Y-108091524D01*
X66728150Y-108060396D01*
X66768949Y-108033136D01*
X66812222Y-108010005D01*
X66857555Y-107991228D01*
X66904510Y-107976984D01*
X66952635Y-107967412D01*
X67001466Y-107962602D01*
X67026000Y-107962602D01*
X67026000Y-107962000D01*
X67576000Y-107962000D01*
X67576000Y-109462000D01*
X67026000Y-109462000D01*
X67026000Y-109461398D01*
G37*
G36*
X66814000Y-92190000D02*
G01*
X66264000Y-92190000D01*
X66264000Y-92189398D01*
X66239466Y-92189398D01*
X66190635Y-92184588D01*
X66142510Y-92175016D01*
X66095555Y-92160772D01*
X66050222Y-92141995D01*
X66006949Y-92118864D01*
X65966150Y-92091604D01*
X65928221Y-92060476D01*
X65893524Y-92025779D01*
X65862396Y-91987850D01*
X65835136Y-91947051D01*
X65812005Y-91903778D01*
X65793228Y-91858445D01*
X65778984Y-91811490D01*
X65769412Y-91763365D01*
X65764602Y-91714534D01*
X65764602Y-91690000D01*
X65764000Y-91690000D01*
X65764000Y-91190000D01*
X65764602Y-91190000D01*
X65764602Y-91165466D01*
X65769412Y-91116635D01*
X65778984Y-91068510D01*
X65793228Y-91021555D01*
X65812005Y-90976222D01*
X65835136Y-90932949D01*
X65862396Y-90892150D01*
X65893524Y-90854221D01*
X65928221Y-90819524D01*
X65966150Y-90788396D01*
X66006949Y-90761136D01*
X66050222Y-90738005D01*
X66095555Y-90719228D01*
X66142510Y-90704984D01*
X66190635Y-90695412D01*
X66239466Y-90690602D01*
X66264000Y-90690602D01*
X66264000Y-90690000D01*
X66814000Y-90690000D01*
X66814000Y-92190000D01*
G37*
D14*
X67564000Y-91440000D03*
D13*
G36*
X68864000Y-90690602D02*
G01*
X68888534Y-90690602D01*
X68937365Y-90695412D01*
X68985490Y-90704984D01*
X69032445Y-90719228D01*
X69077778Y-90738005D01*
X69121051Y-90761136D01*
X69161850Y-90788396D01*
X69199779Y-90819524D01*
X69234476Y-90854221D01*
X69265604Y-90892150D01*
X69292864Y-90932949D01*
X69315995Y-90976222D01*
X69334772Y-91021555D01*
X69349016Y-91068510D01*
X69358588Y-91116635D01*
X69363398Y-91165466D01*
X69363398Y-91190000D01*
X69364000Y-91190000D01*
X69364000Y-91690000D01*
X69363398Y-91690000D01*
X69363398Y-91714534D01*
X69358588Y-91763365D01*
X69349016Y-91811490D01*
X69334772Y-91858445D01*
X69315995Y-91903778D01*
X69292864Y-91947051D01*
X69265604Y-91987850D01*
X69234476Y-92025779D01*
X69199779Y-92060476D01*
X69161850Y-92091604D01*
X69121051Y-92118864D01*
X69077778Y-92141995D01*
X69032445Y-92160772D01*
X68985490Y-92175016D01*
X68937365Y-92184588D01*
X68888534Y-92189398D01*
X68864000Y-92189398D01*
X68864000Y-92190000D01*
X68314000Y-92190000D01*
X68314000Y-90690000D01*
X68864000Y-90690000D01*
X68864000Y-90690602D01*
G37*
G36*
X73418000Y-92190000D02*
G01*
X72868000Y-92190000D01*
X72868000Y-92189398D01*
X72843466Y-92189398D01*
X72794635Y-92184588D01*
X72746510Y-92175016D01*
X72699555Y-92160772D01*
X72654222Y-92141995D01*
X72610949Y-92118864D01*
X72570150Y-92091604D01*
X72532221Y-92060476D01*
X72497524Y-92025779D01*
X72466396Y-91987850D01*
X72439136Y-91947051D01*
X72416005Y-91903778D01*
X72397228Y-91858445D01*
X72382984Y-91811490D01*
X72373412Y-91763365D01*
X72368602Y-91714534D01*
X72368602Y-91690000D01*
X72368000Y-91690000D01*
X72368000Y-91190000D01*
X72368602Y-91190000D01*
X72368602Y-91165466D01*
X72373412Y-91116635D01*
X72382984Y-91068510D01*
X72397228Y-91021555D01*
X72416005Y-90976222D01*
X72439136Y-90932949D01*
X72466396Y-90892150D01*
X72497524Y-90854221D01*
X72532221Y-90819524D01*
X72570150Y-90788396D01*
X72610949Y-90761136D01*
X72654222Y-90738005D01*
X72699555Y-90719228D01*
X72746510Y-90704984D01*
X72794635Y-90695412D01*
X72843466Y-90690602D01*
X72868000Y-90690602D01*
X72868000Y-90690000D01*
X73418000Y-90690000D01*
X73418000Y-92190000D01*
G37*
D14*
X74168000Y-91440000D03*
D13*
G36*
X75468000Y-90690602D02*
G01*
X75492534Y-90690602D01*
X75541365Y-90695412D01*
X75589490Y-90704984D01*
X75636445Y-90719228D01*
X75681778Y-90738005D01*
X75725051Y-90761136D01*
X75765850Y-90788396D01*
X75803779Y-90819524D01*
X75838476Y-90854221D01*
X75869604Y-90892150D01*
X75896864Y-90932949D01*
X75919995Y-90976222D01*
X75938772Y-91021555D01*
X75953016Y-91068510D01*
X75962588Y-91116635D01*
X75967398Y-91165466D01*
X75967398Y-91190000D01*
X75968000Y-91190000D01*
X75968000Y-91690000D01*
X75967398Y-91690000D01*
X75967398Y-91714534D01*
X75962588Y-91763365D01*
X75953016Y-91811490D01*
X75938772Y-91858445D01*
X75919995Y-91903778D01*
X75896864Y-91947051D01*
X75869604Y-91987850D01*
X75838476Y-92025779D01*
X75803779Y-92060476D01*
X75765850Y-92091604D01*
X75725051Y-92118864D01*
X75681778Y-92141995D01*
X75636445Y-92160772D01*
X75589490Y-92175016D01*
X75541365Y-92184588D01*
X75492534Y-92189398D01*
X75468000Y-92189398D01*
X75468000Y-92190000D01*
X74918000Y-92190000D01*
X74918000Y-90690000D01*
X75468000Y-90690000D01*
X75468000Y-90690602D01*
G37*
D15*
X65278000Y-87630000D03*
X80518000Y-95250000D03*
X67818000Y-87630000D03*
X77978000Y-95250000D03*
X70358000Y-87630000D03*
X75438000Y-95250000D03*
X72898000Y-87630000D03*
X72898000Y-95250000D03*
X75438000Y-87630000D03*
X70358000Y-95250000D03*
X77978000Y-87630000D03*
X67818000Y-95250000D03*
X80518000Y-87630000D03*
D16*
X65278000Y-95250000D03*
D15*
X113048000Y-88546000D03*
X105428000Y-80926000D03*
X110508000Y-88546000D03*
X107968000Y-80926000D03*
X107968000Y-88546000D03*
X110508000Y-80926000D03*
X105428000Y-88546000D03*
D16*
X113048000Y-80926000D03*
D17*
X88900000Y-92039200D03*
G36*
G01*
X84077531Y-96861669D02*
X84077531Y-96861669D01*
G75*
G02*
X84077531Y-97993039I-565685J-565685D01*
G01*
X84077531Y-97993039D01*
G75*
G02*
X82946161Y-97993039I-565685J565685D01*
G01*
X82946161Y-97993039D01*
G75*
G02*
X82946161Y-96861669I565685J565685D01*
G01*
X82946161Y-96861669D01*
G75*
G02*
X84077531Y-96861669I565685J-565685D01*
G01*
G37*
D18*
X67310000Y-82042000D03*
D19*
X64770000Y-82042000D03*
D20*
X74422000Y-82042000D03*
X73152000Y-82042000D03*
X71882000Y-82042000D03*
D21*
X70612000Y-82042000D03*
D17*
X115062000Y-92018328D03*
G36*
G01*
X110239531Y-96840797D02*
X110239531Y-96840797D01*
G75*
G02*
X110239531Y-97972167I-565685J-565685D01*
G01*
X110239531Y-97972167D01*
G75*
G02*
X109108161Y-97972167I-565685J565685D01*
G01*
X109108161Y-97972167D01*
G75*
G02*
X109108161Y-96840797I565685J565685D01*
G01*
X109108161Y-96840797D01*
G75*
G02*
X110239531Y-96840797I565685J-565685D01*
G01*
G37*
X106426000Y-92018328D03*
G36*
G01*
X101603531Y-96840797D02*
X101603531Y-96840797D01*
G75*
G02*
X101603531Y-97972167I-565685J-565685D01*
G01*
X101603531Y-97972167D01*
G75*
G02*
X100472161Y-97972167I-565685J565685D01*
G01*
X100472161Y-97972167D01*
G75*
G02*
X100472161Y-96840797I565685J565685D01*
G01*
X100472161Y-96840797D01*
G75*
G02*
X101603531Y-96840797I565685J-565685D01*
G01*
G37*
X93373152Y-92018328D03*
G36*
G01*
X88550683Y-96840797D02*
X88550683Y-96840797D01*
G75*
G02*
X88550683Y-97972167I-565685J-565685D01*
G01*
X88550683Y-97972167D01*
G75*
G02*
X87419313Y-97972167I-565685J565685D01*
G01*
X87419313Y-97972167D01*
G75*
G02*
X87419313Y-96840797I565685J565685D01*
G01*
X87419313Y-96840797D01*
G75*
G02*
X88550683Y-96840797I565685J-565685D01*
G01*
G37*
D22*
X88900000Y-87040000D03*
D16*
X64500000Y-100330000D03*
D15*
X72120000Y-115570000D03*
X64500000Y-102870000D03*
X72120000Y-113030000D03*
X64500000Y-105410000D03*
X72120000Y-110490000D03*
X64500000Y-107950000D03*
X72120000Y-107950000D03*
X64500000Y-110490000D03*
X72120000Y-105410000D03*
X64500000Y-113030000D03*
X72120000Y-102870000D03*
X64500000Y-115570000D03*
X72120000Y-100330000D03*
G36*
G01*
X92967531Y-96840797D02*
X92967531Y-96840797D01*
G75*
G02*
X92967531Y-97972167I-565685J-565685D01*
G01*
X92967531Y-97972167D01*
G75*
G02*
X91836161Y-97972167I-565685J565685D01*
G01*
X91836161Y-97972167D01*
G75*
G02*
X91836161Y-96840797I565685J565685D01*
G01*
X91836161Y-96840797D01*
G75*
G02*
X92967531Y-96840797I565685J-565685D01*
G01*
G37*
D17*
X97790000Y-92018328D03*
G36*
G01*
X97285531Y-96840797D02*
X97285531Y-96840797D01*
G75*
G02*
X97285531Y-97972167I-565685J-565685D01*
G01*
X97285531Y-97972167D01*
G75*
G02*
X96154161Y-97972167I-565685J565685D01*
G01*
X96154161Y-97972167D01*
G75*
G02*
X96154161Y-96840797I565685J565685D01*
G01*
X96154161Y-96840797D01*
G75*
G02*
X97285531Y-96840797I565685J-565685D01*
G01*
G37*
X102108000Y-92018328D03*
G36*
G01*
X105921531Y-96840797D02*
X105921531Y-96840797D01*
G75*
G02*
X105921531Y-97972167I-565685J-565685D01*
G01*
X105921531Y-97972167D01*
G75*
G02*
X104790161Y-97972167I-565685J565685D01*
G01*
X104790161Y-97972167D01*
G75*
G02*
X104790161Y-96840797I565685J565685D01*
G01*
X104790161Y-96840797D01*
G75*
G02*
X105921531Y-96840797I565685J-565685D01*
G01*
G37*
X110744000Y-92018328D03*
D23*
X80010000Y-115570000D03*
X82550000Y-115570000D03*
X85090000Y-115570000D03*
X87630000Y-115570000D03*
X90170000Y-115570000D03*
X92710000Y-115570000D03*
X95250000Y-115570000D03*
X97790000Y-115570000D03*
X100330000Y-115570000D03*
X102870000Y-115570000D03*
X105410000Y-115570000D03*
X107950000Y-115570000D03*
X110490000Y-115570000D03*
X113030000Y-115570000D03*
X113030000Y-100330000D03*
X110490000Y-100330000D03*
X107950000Y-100330000D03*
X105410000Y-100330000D03*
X102870000Y-100330000D03*
X100330000Y-100330000D03*
X97790000Y-100330000D03*
X95250000Y-100330000D03*
X92710000Y-100330000D03*
X90170000Y-100330000D03*
X87630000Y-100330000D03*
X85090000Y-100330000D03*
X82550000Y-100330000D03*
X80010000Y-100330000D03*
D17*
X76200000Y-105350000D03*
X76200000Y-100350000D03*
D24*
X95539560Y-81838800D03*
X95539560Y-88341200D03*
X100040440Y-81838800D03*
X100040440Y-88341200D03*
D25*
X88900000Y-125730000D03*
D26*
X90170000Y-125601726D03*
X92710000Y-125601726D03*
X100330000Y-125601726D03*
X97790000Y-125601726D03*
X95250000Y-125601726D03*
X115570000Y-125601726D03*
X113030000Y-125601726D03*
X110490000Y-125601726D03*
X107950000Y-125601726D03*
X105410000Y-125601726D03*
X102870000Y-125601726D03*
X62230000Y-125601726D03*
X72390000Y-125601726D03*
X69850000Y-125601726D03*
X67310000Y-125601726D03*
X64770000Y-125601726D03*
X87630000Y-125601726D03*
X85090000Y-125601726D03*
X82550000Y-125601726D03*
X80010000Y-125601726D03*
X77470000Y-125601726D03*
X74930000Y-125601726D03*
M02*
