G04 #@! TF.GenerationSoftware,KiCad,Pcbnew,(5.1.6)-1*
G04 #@! TF.CreationDate,2021-11-23T16:53:37-05:00*
G04 #@! TF.ProjectId,OpenC64Cart,4f70656e-4336-4344-9361-72742e6b6963,2*
G04 #@! TF.SameCoordinates,Original*
G04 #@! TF.FileFunction,Legend,Top*
G04 #@! TF.FilePolarity,Positive*
%FSLAX46Y46*%
G04 Gerber Fmt 4.6, Leading zero omitted, Abs format (unit mm)*
G04 Created by KiCad (PCBNEW (5.1.6)-1) date 2021-11-23 16:53:37*
%MOMM*%
%LPD*%
G01*
G04 APERTURE LIST*
%ADD10C,0.120000*%
%ADD11C,0.381000*%
%ADD12C,0.254000*%
%ADD13C,0.050000*%
%ADD14C,0.304800*%
%ADD15C,2.540000*%
%ADD16C,0.150000*%
%ADD17O,1.600000X1.600000*%
%ADD18R,1.600000X1.600000*%
%ADD19C,1.600000*%
%ADD20R,1.800000X1.800000*%
%ADD21C,1.800000*%
%ADD22O,1.070000X1.800000*%
%ADD23R,1.070000X1.800000*%
%ADD24C,5.500000*%
%ADD25O,1.501140X2.199640*%
%ADD26R,1.250000X1.500000*%
%ADD27C,1.998980*%
%ADD28R,58.420000X8.300000*%
%ADD29R,1.524000X8.000000*%
G04 APERTURE END LIST*
D10*
X64710000Y-90440000D02*
G75*
G02*
X64710000Y-92440000I0J-1000000D01*
G01*
X64710000Y-92440000D02*
X64710000Y-94090000D01*
X64710000Y-94090000D02*
X82610000Y-94090000D01*
X82610000Y-94090000D02*
X82610000Y-88790000D01*
X82610000Y-88790000D02*
X64710000Y-88790000D01*
X64710000Y-88790000D02*
X64710000Y-90440000D01*
X68600000Y-83587000D02*
X68600000Y-80497000D01*
X68540000Y-82042000D02*
G75*
G03*
X68540000Y-82042000I-2500000J0D01*
G01*
X63050000Y-82041538D02*
G75*
G03*
X68600000Y-83586830I2990000J-462D01*
G01*
X63050000Y-82042462D02*
G75*
G02*
X68600000Y-80497170I2990000J462D01*
G01*
X74771479Y-83122429D02*
G75*
G02*
X70262316Y-83122000I-2254479J1080429D01*
G01*
X74771479Y-80961571D02*
G75*
G03*
X70262316Y-80962000I-2254479J-1080429D01*
G01*
X75304815Y-83122827D02*
G75*
G02*
X69957000Y-83586830I-2787815J1080827D01*
G01*
X75304815Y-80961173D02*
G75*
G03*
X69957000Y-80497170I-2787815J-1080827D01*
G01*
X69957000Y-80497000D02*
X69957000Y-80962000D01*
X69957000Y-83122000D02*
X69957000Y-83587000D01*
X115316835Y-93162120D02*
X115528955Y-93414914D01*
X115528955Y-93414914D02*
X110519024Y-97618745D01*
X110519024Y-97618745D02*
X110306904Y-97365950D01*
X113979837Y-91568747D02*
X113767717Y-91315952D01*
X113767717Y-91315952D02*
X108757786Y-95519783D01*
X108757786Y-95519783D02*
X108969906Y-95772578D01*
X106680835Y-93162120D02*
X106892955Y-93414914D01*
X106892955Y-93414914D02*
X101883024Y-97618745D01*
X101883024Y-97618745D02*
X101670904Y-97365950D01*
X105343837Y-91568747D02*
X105131717Y-91315952D01*
X105131717Y-91315952D02*
X100121786Y-95519783D01*
X100121786Y-95519783D02*
X100333906Y-95772578D01*
X93627987Y-93162120D02*
X93840107Y-93414914D01*
X93840107Y-93414914D02*
X88830176Y-97618745D01*
X88830176Y-97618745D02*
X88618056Y-97365950D01*
X92290989Y-91568747D02*
X92078869Y-91315952D01*
X92078869Y-91315952D02*
X87068938Y-95519783D01*
X87068938Y-95519783D02*
X87281058Y-95772578D01*
X68310000Y-99000000D02*
G75*
G02*
X66310000Y-99000000I-1000000J0D01*
G01*
X66310000Y-99000000D02*
X64660000Y-99000000D01*
X64660000Y-99000000D02*
X64660000Y-116900000D01*
X64660000Y-116900000D02*
X69960000Y-116900000D01*
X69960000Y-116900000D02*
X69960000Y-99000000D01*
X69960000Y-99000000D02*
X68310000Y-99000000D01*
X115450000Y-80140000D02*
X115450000Y-90040000D01*
X102990000Y-80140000D02*
X102990000Y-90040000D01*
X115450000Y-80140000D02*
X102990000Y-80140000D01*
X115450000Y-90040000D02*
X102990000Y-90040000D01*
X115690000Y-79900000D02*
X115690000Y-81284000D01*
X115690000Y-79900000D02*
X114307000Y-79900000D01*
X113665000Y-83060000D02*
X112395000Y-83060000D01*
X112395000Y-83060000D02*
X112395000Y-87120000D01*
X112395000Y-87120000D02*
X113665000Y-87120000D01*
X113665000Y-87120000D02*
X113665000Y-83060000D01*
X113545000Y-83060000D02*
X113545000Y-84413333D01*
X113425000Y-83060000D02*
X113425000Y-84413333D01*
X113305000Y-83060000D02*
X113305000Y-84413333D01*
X113185000Y-83060000D02*
X113185000Y-84413333D01*
X113065000Y-83060000D02*
X113065000Y-84413333D01*
X112945000Y-83060000D02*
X112945000Y-84413333D01*
X112825000Y-83060000D02*
X112825000Y-84413333D01*
X112705000Y-83060000D02*
X112705000Y-84413333D01*
X112585000Y-83060000D02*
X112585000Y-84413333D01*
X112465000Y-83060000D02*
X112465000Y-84413333D01*
X113665000Y-84413333D02*
X112395000Y-84413333D01*
X111125000Y-83060000D02*
X109855000Y-83060000D01*
X109855000Y-83060000D02*
X109855000Y-87120000D01*
X109855000Y-87120000D02*
X111125000Y-87120000D01*
X111125000Y-87120000D02*
X111125000Y-83060000D01*
X111005000Y-83060000D02*
X111005000Y-84413333D01*
X110885000Y-83060000D02*
X110885000Y-84413333D01*
X110765000Y-83060000D02*
X110765000Y-84413333D01*
X110645000Y-83060000D02*
X110645000Y-84413333D01*
X110525000Y-83060000D02*
X110525000Y-84413333D01*
X110405000Y-83060000D02*
X110405000Y-84413333D01*
X110285000Y-83060000D02*
X110285000Y-84413333D01*
X110165000Y-83060000D02*
X110165000Y-84413333D01*
X110045000Y-83060000D02*
X110045000Y-84413333D01*
X109925000Y-83060000D02*
X109925000Y-84413333D01*
X111125000Y-84413333D02*
X109855000Y-84413333D01*
X108585000Y-83060000D02*
X107315000Y-83060000D01*
X107315000Y-83060000D02*
X107315000Y-87120000D01*
X107315000Y-87120000D02*
X108585000Y-87120000D01*
X108585000Y-87120000D02*
X108585000Y-83060000D01*
X108465000Y-83060000D02*
X108465000Y-84413333D01*
X108345000Y-83060000D02*
X108345000Y-84413333D01*
X108225000Y-83060000D02*
X108225000Y-84413333D01*
X108105000Y-83060000D02*
X108105000Y-84413333D01*
X107985000Y-83060000D02*
X107985000Y-84413333D01*
X107865000Y-83060000D02*
X107865000Y-84413333D01*
X107745000Y-83060000D02*
X107745000Y-84413333D01*
X107625000Y-83060000D02*
X107625000Y-84413333D01*
X107505000Y-83060000D02*
X107505000Y-84413333D01*
X107385000Y-83060000D02*
X107385000Y-84413333D01*
X108585000Y-84413333D02*
X107315000Y-84413333D01*
X106045000Y-83060000D02*
X104775000Y-83060000D01*
X104775000Y-83060000D02*
X104775000Y-87120000D01*
X104775000Y-87120000D02*
X106045000Y-87120000D01*
X106045000Y-87120000D02*
X106045000Y-83060000D01*
X105925000Y-83060000D02*
X105925000Y-84413333D01*
X105805000Y-83060000D02*
X105805000Y-84413333D01*
X105685000Y-83060000D02*
X105685000Y-84413333D01*
X105565000Y-83060000D02*
X105565000Y-84413333D01*
X105445000Y-83060000D02*
X105445000Y-84413333D01*
X105325000Y-83060000D02*
X105325000Y-84413333D01*
X105205000Y-83060000D02*
X105205000Y-84413333D01*
X105085000Y-83060000D02*
X105085000Y-84413333D01*
X104965000Y-83060000D02*
X104965000Y-84413333D01*
X104845000Y-83060000D02*
X104845000Y-84413333D01*
X106045000Y-84413333D02*
X104775000Y-84413333D01*
X91485786Y-95519783D02*
X91697906Y-95772578D01*
X96495717Y-91315952D02*
X91485786Y-95519783D01*
X96707837Y-91568747D02*
X96495717Y-91315952D01*
X93247024Y-97618745D02*
X93034904Y-97365950D01*
X98256955Y-93414914D02*
X93247024Y-97618745D01*
X98044835Y-93162120D02*
X98256955Y-93414914D01*
X95803786Y-95519783D02*
X96015906Y-95772578D01*
X100813717Y-91315952D02*
X95803786Y-95519783D01*
X101025837Y-91568747D02*
X100813717Y-91315952D01*
X97565024Y-97618745D02*
X97352904Y-97365950D01*
X102574955Y-93414914D02*
X97565024Y-97618745D01*
X102362835Y-93162120D02*
X102574955Y-93414914D01*
X104439786Y-95519783D02*
X104651906Y-95772578D01*
X109449717Y-91315952D02*
X104439786Y-95519783D01*
X109661837Y-91568747D02*
X109449717Y-91315952D01*
X106201024Y-97618745D02*
X105988904Y-97365950D01*
X111210955Y-93414914D02*
X106201024Y-97618745D01*
X110998835Y-93162120D02*
X111210955Y-93414914D01*
D11*
X115316000Y-115062000D02*
X115316000Y-100838000D01*
X114300000Y-99060000D02*
X114300000Y-116840000D01*
X78740000Y-116840000D02*
X78740000Y-99060000D01*
X77724000Y-100838000D02*
X77724000Y-115062000D01*
D12*
X95250000Y-102870000D02*
X95250000Y-113030000D01*
X97790000Y-113030000D02*
X97790000Y-102870000D01*
X111252000Y-102870000D02*
X111252000Y-113030000D01*
X81788000Y-102870000D02*
X81788000Y-113030000D01*
D11*
X78740000Y-99060000D02*
X114300000Y-99060000D01*
X115316000Y-100838000D02*
X77724000Y-100838000D01*
X78740000Y-116840000D02*
X114300000Y-116840000D01*
X115316000Y-115062000D02*
X77724000Y-115062000D01*
D12*
X81788000Y-113030000D02*
X111252000Y-113030000D01*
X111252000Y-102870000D02*
X81788000Y-102870000D01*
D11*
X78740000Y-106680000D02*
X78740000Y-109220000D01*
X78740000Y-109220000D02*
X77724000Y-109220000D01*
X78740000Y-106680000D02*
X77724000Y-106680000D01*
D12*
X80010000Y-107950000D02*
G75*
G03*
X78740000Y-106680000I-1270000J0D01*
G01*
X78740000Y-109220000D02*
G75*
G03*
X80010000Y-107950000I0J1270000D01*
G01*
D10*
X75350000Y-102350000D02*
X75350000Y-103350000D01*
X77050000Y-103350000D02*
X77050000Y-102350000D01*
D13*
X75200000Y-106350000D02*
X75200000Y-99350000D01*
X75200000Y-106350000D02*
X77200000Y-106350000D01*
X77200000Y-99350000D02*
X75200000Y-99350000D01*
X77200000Y-99350000D02*
X77200000Y-106350000D01*
D14*
X94742000Y-82042000D02*
X100838000Y-82042000D01*
X100838000Y-82042000D02*
X100838000Y-88138000D01*
X100838000Y-88138000D02*
X94742000Y-88138000D01*
X94742000Y-88138000D02*
X94742000Y-82042000D01*
D15*
X98593219Y-85090000D02*
G75*
G03*
X98593219Y-85090000I-803219J0D01*
G01*
D16*
X63162380Y-93154285D02*
X63971904Y-93154285D01*
X64067142Y-93106666D01*
X64114761Y-93059047D01*
X64162380Y-92963809D01*
X64162380Y-92773333D01*
X64114761Y-92678095D01*
X64067142Y-92630476D01*
X63971904Y-92582857D01*
X63162380Y-92582857D01*
X64162380Y-91582857D02*
X64162380Y-92154285D01*
X64162380Y-91868571D02*
X63162380Y-91868571D01*
X63305238Y-91963809D01*
X63400476Y-92059047D01*
X63448095Y-92154285D01*
X63162380Y-90963809D02*
X63162380Y-90868571D01*
X63210000Y-90773333D01*
X63257619Y-90725714D01*
X63352857Y-90678095D01*
X63543333Y-90630476D01*
X63781428Y-90630476D01*
X63971904Y-90678095D01*
X64067142Y-90725714D01*
X64114761Y-90773333D01*
X64162380Y-90868571D01*
X64162380Y-90963809D01*
X64114761Y-91059047D01*
X64067142Y-91106666D01*
X63971904Y-91154285D01*
X63781428Y-91201904D01*
X63543333Y-91201904D01*
X63352857Y-91154285D01*
X63257619Y-91106666D01*
X63210000Y-91059047D01*
X63162380Y-90963809D01*
X63257619Y-90249523D02*
X63210000Y-90201904D01*
X63162380Y-90106666D01*
X63162380Y-89868571D01*
X63210000Y-89773333D01*
X63257619Y-89725714D01*
X63352857Y-89678095D01*
X63448095Y-89678095D01*
X63590952Y-89725714D01*
X64162380Y-90297142D01*
X64162380Y-89678095D01*
X65301904Y-82494380D02*
X65301904Y-81494380D01*
X65540000Y-81494380D01*
X65682857Y-81542000D01*
X65778095Y-81637238D01*
X65825714Y-81732476D01*
X65873333Y-81922952D01*
X65873333Y-82065809D01*
X65825714Y-82256285D01*
X65778095Y-82351523D01*
X65682857Y-82446761D01*
X65540000Y-82494380D01*
X65301904Y-82494380D01*
X66254285Y-81589619D02*
X66301904Y-81542000D01*
X66397142Y-81494380D01*
X66635238Y-81494380D01*
X66730476Y-81542000D01*
X66778095Y-81589619D01*
X66825714Y-81684857D01*
X66825714Y-81780095D01*
X66778095Y-81922952D01*
X66206666Y-82494380D01*
X66825714Y-82494380D01*
X71905904Y-82494380D02*
X71905904Y-81494380D01*
X72144000Y-81494380D01*
X72286857Y-81542000D01*
X72382095Y-81637238D01*
X72429714Y-81732476D01*
X72477333Y-81922952D01*
X72477333Y-82065809D01*
X72429714Y-82256285D01*
X72382095Y-82351523D01*
X72286857Y-82446761D01*
X72144000Y-82494380D01*
X71905904Y-82494380D01*
X73429714Y-82494380D02*
X72858285Y-82494380D01*
X73144000Y-82494380D02*
X73144000Y-81494380D01*
X73048761Y-81637238D01*
X72953523Y-81732476D01*
X72858285Y-81780095D01*
X111943106Y-95367912D02*
X111505366Y-95735220D01*
X111724236Y-95551566D02*
X111081449Y-94785522D01*
X111100319Y-94956174D01*
X111088580Y-95090349D01*
X111046232Y-95188045D01*
X111993406Y-94020298D02*
X111628623Y-94326388D01*
X111898234Y-94721780D01*
X111904104Y-94654692D01*
X111946451Y-94556996D01*
X112128843Y-94403952D01*
X112232408Y-94379212D01*
X112299496Y-94385081D01*
X112397192Y-94427429D01*
X112550236Y-94609821D01*
X112574976Y-94713386D01*
X112569107Y-94780473D01*
X112526759Y-94878170D01*
X112344367Y-95031214D01*
X112240802Y-95055954D01*
X112173715Y-95050084D01*
X112504103Y-93591773D02*
X112577059Y-93530555D01*
X112680625Y-93505816D01*
X112747712Y-93511685D01*
X112845408Y-93554033D01*
X113004322Y-93669337D01*
X113157367Y-93851729D01*
X113243324Y-94028251D01*
X113268064Y-94131816D01*
X113262194Y-94198904D01*
X113219847Y-94296600D01*
X113146890Y-94357818D01*
X113043325Y-94382557D01*
X112976237Y-94376688D01*
X112878541Y-94334340D01*
X112719627Y-94219036D01*
X112566583Y-94036644D01*
X112480625Y-93860122D01*
X112455886Y-93756557D01*
X112461755Y-93689469D01*
X112504103Y-93591773D01*
X103307106Y-95367912D02*
X102869366Y-95735220D01*
X103088236Y-95551566D02*
X102445449Y-94785522D01*
X102464319Y-94956174D01*
X102452580Y-95090349D01*
X102410232Y-95188045D01*
X103357406Y-94020298D02*
X102992623Y-94326388D01*
X103262234Y-94721780D01*
X103268104Y-94654692D01*
X103310451Y-94556996D01*
X103492843Y-94403952D01*
X103596408Y-94379212D01*
X103663496Y-94385081D01*
X103761192Y-94427429D01*
X103914236Y-94609821D01*
X103938976Y-94713386D01*
X103933107Y-94780473D01*
X103890759Y-94878170D01*
X103708367Y-95031214D01*
X103604802Y-95055954D01*
X103537715Y-95050084D01*
X103868103Y-93591773D02*
X103941059Y-93530555D01*
X104044625Y-93505816D01*
X104111712Y-93511685D01*
X104209408Y-93554033D01*
X104368322Y-93669337D01*
X104521367Y-93851729D01*
X104607324Y-94028251D01*
X104632064Y-94131816D01*
X104626194Y-94198904D01*
X104583847Y-94296600D01*
X104510890Y-94357818D01*
X104407325Y-94382557D01*
X104340237Y-94376688D01*
X104242541Y-94334340D01*
X104083627Y-94219036D01*
X103930583Y-94036644D01*
X103844625Y-93860122D01*
X103819886Y-93756557D01*
X103825755Y-93689469D01*
X103868103Y-93591773D01*
X89440984Y-94747883D02*
X89446853Y-94680796D01*
X89489201Y-94583099D01*
X89671592Y-94430055D01*
X89775158Y-94405315D01*
X89842245Y-94411185D01*
X89939941Y-94453532D01*
X90001159Y-94526489D01*
X90056508Y-94666533D01*
X89986075Y-95471580D01*
X90460293Y-95073663D01*
X90291723Y-93909703D02*
X90364680Y-93848485D01*
X90468246Y-93823745D01*
X90535333Y-93829615D01*
X90633029Y-93871963D01*
X90791943Y-93987267D01*
X90944988Y-94169658D01*
X91030945Y-94346181D01*
X91055685Y-94449746D01*
X91049815Y-94516833D01*
X91007468Y-94614529D01*
X90934511Y-94675747D01*
X90830946Y-94700487D01*
X90763858Y-94694618D01*
X90666162Y-94652270D01*
X90507248Y-94536966D01*
X90354203Y-94354574D01*
X90268246Y-94178052D01*
X90243506Y-94074486D01*
X90249376Y-94007399D01*
X90291723Y-93909703D01*
X91021290Y-93297524D02*
X91094246Y-93236306D01*
X91197812Y-93211567D01*
X91264899Y-93217436D01*
X91362595Y-93259784D01*
X91521509Y-93375088D01*
X91674554Y-93557480D01*
X91760511Y-93734002D01*
X91785251Y-93837567D01*
X91779381Y-93904655D01*
X91737034Y-94002351D01*
X91664077Y-94063569D01*
X91560512Y-94088308D01*
X91493424Y-94082439D01*
X91395728Y-94040091D01*
X91236814Y-93924787D01*
X91083770Y-93742395D01*
X90997812Y-93565873D01*
X90973073Y-93462308D01*
X90978942Y-93395220D01*
X91021290Y-93297524D01*
X65595714Y-97452380D02*
X65595714Y-98261904D01*
X65643333Y-98357142D01*
X65690952Y-98404761D01*
X65786190Y-98452380D01*
X65976666Y-98452380D01*
X66071904Y-98404761D01*
X66119523Y-98357142D01*
X66167142Y-98261904D01*
X66167142Y-97452380D01*
X67167142Y-98452380D02*
X66595714Y-98452380D01*
X66881428Y-98452380D02*
X66881428Y-97452380D01*
X66786190Y-97595238D01*
X66690952Y-97690476D01*
X66595714Y-97738095D01*
X67786190Y-97452380D02*
X67881428Y-97452380D01*
X67976666Y-97500000D01*
X68024285Y-97547619D01*
X68071904Y-97642857D01*
X68119523Y-97833333D01*
X68119523Y-98071428D01*
X68071904Y-98261904D01*
X68024285Y-98357142D01*
X67976666Y-98404761D01*
X67881428Y-98452380D01*
X67786190Y-98452380D01*
X67690952Y-98404761D01*
X67643333Y-98357142D01*
X67595714Y-98261904D01*
X67548095Y-98071428D01*
X67548095Y-97833333D01*
X67595714Y-97642857D01*
X67643333Y-97547619D01*
X67690952Y-97500000D01*
X67786190Y-97452380D01*
X69071904Y-98452380D02*
X68500476Y-98452380D01*
X68786190Y-98452380D02*
X68786190Y-97452380D01*
X68690952Y-97595238D01*
X68595714Y-97690476D01*
X68500476Y-97738095D01*
X116854761Y-87375714D02*
X116902380Y-87232857D01*
X116902380Y-86994761D01*
X116854761Y-86899523D01*
X116807142Y-86851904D01*
X116711904Y-86804285D01*
X116616666Y-86804285D01*
X116521428Y-86851904D01*
X116473809Y-86899523D01*
X116426190Y-86994761D01*
X116378571Y-87185238D01*
X116330952Y-87280476D01*
X116283333Y-87328095D01*
X116188095Y-87375714D01*
X116092857Y-87375714D01*
X115997619Y-87328095D01*
X115950000Y-87280476D01*
X115902380Y-87185238D01*
X115902380Y-86947142D01*
X115950000Y-86804285D01*
X115902380Y-86470952D02*
X116902380Y-86232857D01*
X116188095Y-86042380D01*
X116902380Y-85851904D01*
X115902380Y-85613809D01*
X116902380Y-84709047D02*
X116902380Y-85280476D01*
X116902380Y-84994761D02*
X115902380Y-84994761D01*
X116045238Y-85090000D01*
X116140476Y-85185238D01*
X116188095Y-85280476D01*
X115902380Y-84090000D02*
X115902380Y-83994761D01*
X115950000Y-83899523D01*
X115997619Y-83851904D01*
X116092857Y-83804285D01*
X116283333Y-83756666D01*
X116521428Y-83756666D01*
X116711904Y-83804285D01*
X116807142Y-83851904D01*
X116854761Y-83899523D01*
X116902380Y-83994761D01*
X116902380Y-84090000D01*
X116854761Y-84185238D01*
X116807142Y-84232857D01*
X116711904Y-84280476D01*
X116521428Y-84328095D01*
X116283333Y-84328095D01*
X116092857Y-84280476D01*
X115997619Y-84232857D01*
X115950000Y-84185238D01*
X115902380Y-84090000D01*
X116902380Y-82804285D02*
X116902380Y-83375714D01*
X116902380Y-83090000D02*
X115902380Y-83090000D01*
X116045238Y-83185238D01*
X116140476Y-83280476D01*
X116188095Y-83375714D01*
X95237879Y-94750353D02*
X94800139Y-95117660D01*
X95019009Y-94934006D02*
X94376221Y-94167962D01*
X94395091Y-94338615D01*
X94383353Y-94472789D01*
X94341005Y-94570485D01*
X95566183Y-94474872D02*
X94923396Y-93708828D01*
X95394269Y-94121828D02*
X95858010Y-94230001D01*
X95429485Y-93719305D02*
X95382530Y-94256003D01*
X99027674Y-94959111D02*
X98589934Y-95326418D01*
X98808804Y-95142764D02*
X98166016Y-94376720D01*
X98184886Y-94547373D01*
X98173148Y-94681547D01*
X98130800Y-94779243D01*
X99355978Y-94683630D02*
X98713191Y-93917586D01*
X99184064Y-94330586D02*
X99647805Y-94438759D01*
X99219280Y-93928063D02*
X99172325Y-94464761D01*
X107663674Y-94959111D02*
X107225934Y-95326418D01*
X107444804Y-95142764D02*
X106802016Y-94376720D01*
X106820886Y-94547373D01*
X106809148Y-94681547D01*
X106766800Y-94779243D01*
X107991978Y-94683630D02*
X107349191Y-93917586D01*
X107820064Y-94330586D02*
X108283805Y-94438759D01*
X107855280Y-93928063D02*
X107808325Y-94464761D01*
D12*
X92516476Y-81431190D02*
X93121238Y-81007857D01*
X92516476Y-80705476D02*
X93786476Y-80705476D01*
X93786476Y-81189285D01*
X93726000Y-81310238D01*
X93665523Y-81370714D01*
X93544571Y-81431190D01*
X93363142Y-81431190D01*
X93242190Y-81370714D01*
X93181714Y-81310238D01*
X93121238Y-81189285D01*
X93121238Y-80705476D01*
X93181714Y-81975476D02*
X93181714Y-82398809D01*
X92516476Y-82580238D02*
X92516476Y-81975476D01*
X93786476Y-81975476D01*
X93786476Y-82580238D01*
X92576952Y-83064047D02*
X92516476Y-83245476D01*
X92516476Y-83547857D01*
X92576952Y-83668809D01*
X92637428Y-83729285D01*
X92758380Y-83789761D01*
X92879333Y-83789761D01*
X93000285Y-83729285D01*
X93060761Y-83668809D01*
X93121238Y-83547857D01*
X93181714Y-83305952D01*
X93242190Y-83185000D01*
X93302666Y-83124523D01*
X93423619Y-83064047D01*
X93544571Y-83064047D01*
X93665523Y-83124523D01*
X93726000Y-83185000D01*
X93786476Y-83305952D01*
X93786476Y-83608333D01*
X93726000Y-83789761D01*
X93181714Y-84334047D02*
X93181714Y-84757380D01*
X92516476Y-84938809D02*
X92516476Y-84334047D01*
X93786476Y-84334047D01*
X93786476Y-84938809D01*
X93786476Y-85301666D02*
X93786476Y-86027380D01*
X92516476Y-85664523D02*
X93786476Y-85664523D01*
X92395523Y-86148333D02*
X92395523Y-87115952D01*
X92576952Y-87357857D02*
X92516476Y-87539285D01*
X92516476Y-87841666D01*
X92576952Y-87962619D01*
X92637428Y-88023095D01*
X92758380Y-88083571D01*
X92879333Y-88083571D01*
X93000285Y-88023095D01*
X93060761Y-87962619D01*
X93121238Y-87841666D01*
X93181714Y-87599761D01*
X93242190Y-87478809D01*
X93302666Y-87418333D01*
X93423619Y-87357857D01*
X93544571Y-87357857D01*
X93665523Y-87418333D01*
X93726000Y-87478809D01*
X93786476Y-87599761D01*
X93786476Y-87902142D01*
X93726000Y-88083571D01*
X93786476Y-88506904D02*
X92516476Y-88809285D01*
X93423619Y-89051190D01*
X92516476Y-89293095D01*
X93786476Y-89595476D01*
%LPC*%
D17*
X66040000Y-87630000D03*
X81280000Y-95250000D03*
X68580000Y-87630000D03*
X78740000Y-95250000D03*
X71120000Y-87630000D03*
X76200000Y-95250000D03*
X73660000Y-87630000D03*
X73660000Y-95250000D03*
X76200000Y-87630000D03*
X71120000Y-95250000D03*
X78740000Y-87630000D03*
X68580000Y-95250000D03*
X81280000Y-87630000D03*
D18*
X66040000Y-95250000D03*
D19*
X72898000Y-85344000D03*
D17*
X65278000Y-85344000D03*
D20*
X67310000Y-82042000D03*
D21*
X64770000Y-82042000D03*
D22*
X74422000Y-82042000D03*
X73152000Y-82042000D03*
X71882000Y-82042000D03*
D23*
X70612000Y-82042000D03*
D19*
X115062000Y-92018328D03*
G36*
G01*
X109837577Y-96402140D02*
X109837577Y-96402140D01*
G75*
G02*
X109738971Y-97529206I-612836J-514230D01*
G01*
X109738971Y-97529206D01*
G75*
G02*
X108611905Y-97430600I-514230J612836D01*
G01*
X108611905Y-97430600D01*
G75*
G02*
X108710511Y-96303534I612836J514230D01*
G01*
X108710511Y-96303534D01*
G75*
G02*
X109837577Y-96402140I514230J-612836D01*
G01*
G37*
X106426000Y-92018328D03*
G36*
G01*
X101201577Y-96402140D02*
X101201577Y-96402140D01*
G75*
G02*
X101102971Y-97529206I-612836J-514230D01*
G01*
X101102971Y-97529206D01*
G75*
G02*
X99975905Y-97430600I-514230J612836D01*
G01*
X99975905Y-97430600D01*
G75*
G02*
X100074511Y-96303534I612836J514230D01*
G01*
X100074511Y-96303534D01*
G75*
G02*
X101201577Y-96402140I514230J-612836D01*
G01*
G37*
X93373152Y-92018328D03*
G36*
G01*
X88148729Y-96402140D02*
X88148729Y-96402140D01*
G75*
G02*
X88050123Y-97529206I-612836J-514230D01*
G01*
X88050123Y-97529206D01*
G75*
G02*
X86923057Y-97430600I-514230J612836D01*
G01*
X86923057Y-97430600D01*
G75*
G02*
X87021663Y-96303534I612836J514230D01*
G01*
X87021663Y-96303534D01*
G75*
G02*
X88148729Y-96402140I514230J-612836D01*
G01*
G37*
D24*
X88900000Y-87040000D03*
D18*
X63500000Y-100330000D03*
D17*
X71120000Y-115570000D03*
X63500000Y-102870000D03*
X71120000Y-113030000D03*
X63500000Y-105410000D03*
X71120000Y-110490000D03*
X63500000Y-107950000D03*
X71120000Y-107950000D03*
X63500000Y-110490000D03*
X71120000Y-105410000D03*
X63500000Y-113030000D03*
X71120000Y-102870000D03*
X63500000Y-115570000D03*
X71120000Y-100330000D03*
D18*
X113030000Y-81280000D03*
D17*
X105410000Y-88900000D03*
X110490000Y-81280000D03*
X107950000Y-88900000D03*
X107950000Y-81280000D03*
X110490000Y-88900000D03*
X105410000Y-81280000D03*
X113030000Y-88900000D03*
G36*
G01*
X92565577Y-96402140D02*
X92565577Y-96402140D01*
G75*
G02*
X92466971Y-97529206I-612836J-514230D01*
G01*
X92466971Y-97529206D01*
G75*
G02*
X91339905Y-97430600I-514230J612836D01*
G01*
X91339905Y-97430600D01*
G75*
G02*
X91438511Y-96303534I612836J514230D01*
G01*
X91438511Y-96303534D01*
G75*
G02*
X92565577Y-96402140I514230J-612836D01*
G01*
G37*
D19*
X97790000Y-92018328D03*
G36*
G01*
X96883577Y-96402140D02*
X96883577Y-96402140D01*
G75*
G02*
X96784971Y-97529206I-612836J-514230D01*
G01*
X96784971Y-97529206D01*
G75*
G02*
X95657905Y-97430600I-514230J612836D01*
G01*
X95657905Y-97430600D01*
G75*
G02*
X95756511Y-96303534I612836J514230D01*
G01*
X95756511Y-96303534D01*
G75*
G02*
X96883577Y-96402140I514230J-612836D01*
G01*
G37*
X102108000Y-92018328D03*
G36*
G01*
X105519577Y-96402140D02*
X105519577Y-96402140D01*
G75*
G02*
X105420971Y-97529206I-612836J-514230D01*
G01*
X105420971Y-97529206D01*
G75*
G02*
X104293905Y-97430600I-514230J612836D01*
G01*
X104293905Y-97430600D01*
G75*
G02*
X104392511Y-96303534I612836J514230D01*
G01*
X104392511Y-96303534D01*
G75*
G02*
X105519577Y-96402140I514230J-612836D01*
G01*
G37*
X110744000Y-92018328D03*
D25*
X80010000Y-115570000D03*
X82550000Y-115570000D03*
X85090000Y-115570000D03*
X87630000Y-115570000D03*
X90170000Y-115570000D03*
X92710000Y-115570000D03*
X95250000Y-115570000D03*
X97790000Y-115570000D03*
X100330000Y-115570000D03*
X102870000Y-115570000D03*
X105410000Y-115570000D03*
X107950000Y-115570000D03*
X110490000Y-115570000D03*
X113030000Y-115570000D03*
X113030000Y-100330000D03*
X110490000Y-100330000D03*
X107950000Y-100330000D03*
X105410000Y-100330000D03*
X102870000Y-100330000D03*
X100330000Y-100330000D03*
X97790000Y-100330000D03*
X95250000Y-100330000D03*
X92710000Y-100330000D03*
X90170000Y-100330000D03*
X87630000Y-100330000D03*
X85090000Y-100330000D03*
X82550000Y-100330000D03*
X80010000Y-100330000D03*
D26*
X76200000Y-104100000D03*
X76200000Y-101600000D03*
D19*
X76200000Y-105350000D03*
X76200000Y-100350000D03*
D27*
X95539560Y-81838800D03*
X95539560Y-88341200D03*
X100040440Y-81838800D03*
X100040440Y-88341200D03*
D28*
X88900000Y-125730000D03*
D29*
X115570000Y-125601726D03*
X113030000Y-125601726D03*
X110490000Y-125601726D03*
X107950000Y-125601726D03*
X105410000Y-125601726D03*
X102870000Y-125601726D03*
X100330000Y-125601726D03*
X97790000Y-125601726D03*
X67310000Y-125601726D03*
X64770000Y-125601726D03*
X90170000Y-125601726D03*
X95250000Y-125601726D03*
X92710000Y-125601726D03*
X87630000Y-125601726D03*
X85090000Y-125601726D03*
X82550000Y-125601726D03*
X80010000Y-125601726D03*
X77470000Y-125601726D03*
X74930000Y-125601726D03*
X72390000Y-125601726D03*
X69850000Y-125601726D03*
X62230000Y-125601726D03*
M02*
