M48
; DRILL file {KiCad (5.1.6)-1} date 12/16/21 19:20:13
; FORMAT={-:-/ absolute / metric / decimal}
; #@! TF.CreationDate,2021-12-16T19:20:13-05:00
; #@! TF.GenerationSoftware,Kicad,Pcbnew,(5.1.6)-1
; #@! TF.FileFunction,Plated,1,2,PTH
FMAT,2
METRIC
T1C0.400
T2C0.600
T3C0.800
T4C0.800
T5C0.900
T6C1.001
T7C5.500
%
G90
G05
T1
X63.5Y-90.678
X64.77Y-118.618
X69.85Y-113.792
X69.85Y-115.57
X71.628Y-96.774
X75.99Y-115.64
X80.01Y-111.252
X83.058Y-84.074
X86.106Y-94.488
X92.202Y-120.396
X92.89Y-106.84
T2
X60.96Y-80.645
X60.96Y-86.995
X60.96Y-93.345
X60.96Y-99.695
X60.96Y-106.045
X60.96Y-112.395
X60.96Y-118.745
X87.63Y-106.553
X116.84Y-80.645
X116.84Y-86.995
X116.84Y-93.345
X116.84Y-99.695
X116.84Y-106.045
X116.84Y-112.395
X116.84Y-118.745
T3
X87.985Y-97.406
X93.373Y-92.018
X92.402Y-97.406
X97.79Y-92.018
X105.356Y-97.406
X110.744Y-92.018
X64.5Y-100.33
X64.5Y-102.87
X64.5Y-105.41
X64.5Y-107.95
X64.5Y-110.49
X64.5Y-113.03
X64.5Y-115.57
X72.12Y-100.33
X72.12Y-102.87
X72.12Y-105.41
X72.12Y-107.95
X72.12Y-110.49
X72.12Y-113.03
X72.12Y-115.57
X109.674Y-97.406
X115.062Y-92.018
X96.72Y-97.406
X102.108Y-92.018
X101.038Y-97.406
X106.426Y-92.018
X105.428Y-80.926
X105.428Y-88.546
X107.968Y-80.926
X107.968Y-88.546
X110.508Y-80.926
X110.508Y-88.546
X113.048Y-80.926
X113.048Y-88.546
X65.278Y-87.63
X65.278Y-95.25
X67.818Y-87.63
X67.818Y-95.25
X70.358Y-87.63
X70.358Y-95.25
X72.898Y-87.63
X72.898Y-95.25
X75.438Y-87.63
X75.438Y-95.25
X77.978Y-87.63
X77.978Y-95.25
X80.518Y-87.63
X80.518Y-95.25
X83.512Y-97.427
X88.9Y-92.039
X76.2Y-100.35
X76.2Y-105.35
T4
X80.01Y-100.33
X80.01Y-115.57
X82.55Y-100.33
X82.55Y-115.57
X85.09Y-100.33
X85.09Y-115.57
X87.63Y-100.33
X87.63Y-115.57
X90.17Y-100.33
X90.17Y-115.57
X92.71Y-100.33
X92.71Y-115.57
X95.25Y-100.33
X95.25Y-115.57
X97.79Y-100.33
X97.79Y-115.57
X100.33Y-100.33
X100.33Y-115.57
X102.87Y-100.33
X102.87Y-115.57
X105.41Y-100.33
X105.41Y-115.57
X107.95Y-100.33
X107.95Y-115.57
X110.49Y-100.33
X110.49Y-115.57
X113.03Y-100.33
X113.03Y-115.57
T5
X70.612Y-82.042
X71.882Y-82.042
X73.152Y-82.042
X74.422Y-82.042
X64.77Y-82.042
X67.31Y-82.042
T6
X95.54Y-81.839
X95.54Y-88.341
X100.04Y-81.839
X100.04Y-88.341
T7
X88.9Y-87.04
T0
M30
