%FSLAX45Y45*%
G04 Gerber Fmt 4.5, Leading zero omitted, Abs format (unit mm)*
G04 Created by KiCad (PCBNEW (5.1.6)-1) date 2021-12-16 19:20:21*
%MOMM*%
%LPD*%
G01*
G04 APERTURE LIST*
%TA.AperFunction,Profile*%
%ADD10C,0.150000*%
%TD*%
%ADD11C,0.200000*%
%ADD12C,0.300000*%
G04 APERTURE END LIST*
D10*
X6096000Y-7874000D02*
G75*
G03*
X5969000Y-8001000I0J-127000D01*
G01*
X11811000Y-8001000D02*
G75*
G03*
X11684000Y-7874000I-127000J0D01*
G01*
X11734800Y-12954000D02*
G75*
G03*
X11811000Y-12877800I0J76200D01*
G01*
X5969000Y-12877800D02*
G75*
G03*
X6045200Y-12954000I76200J0D01*
G01*
X5969000Y-12877800D02*
X5969000Y-8001000D01*
X11734800Y-12954000D02*
X6045200Y-12954000D01*
X11811000Y-8001000D02*
X11811000Y-12877800D01*
X6096000Y-7874000D02*
X11684000Y-7874000D01*
D11*
D12*
X6247928Y-13427214D02*
X6247928Y-13127214D01*
X6319357Y-13127214D01*
X6362214Y-13141500D01*
X6390786Y-13170071D01*
X6405071Y-13198643D01*
X6419357Y-13255786D01*
X6419357Y-13298643D01*
X6405071Y-13355786D01*
X6390786Y-13384357D01*
X6362214Y-13412929D01*
X6319357Y-13427214D01*
X6247928Y-13427214D01*
X6547928Y-13427214D02*
X6547928Y-13227214D01*
X6547928Y-13284357D02*
X6562214Y-13255786D01*
X6576500Y-13241500D01*
X6605071Y-13227214D01*
X6633643Y-13227214D01*
X6733643Y-13427214D02*
X6733643Y-13227214D01*
X6733643Y-13127214D02*
X6719357Y-13141500D01*
X6733643Y-13155786D01*
X6747928Y-13141500D01*
X6733643Y-13127214D01*
X6733643Y-13155786D01*
X6919357Y-13427214D02*
X6890786Y-13412929D01*
X6876500Y-13384357D01*
X6876500Y-13127214D01*
X7076500Y-13427214D02*
X7047928Y-13412929D01*
X7033643Y-13384357D01*
X7033643Y-13127214D01*
X7419357Y-13427214D02*
X7419357Y-13127214D01*
X7519357Y-13341500D01*
X7619357Y-13127214D01*
X7619357Y-13427214D01*
X7890786Y-13427214D02*
X7890786Y-13270071D01*
X7876500Y-13241500D01*
X7847928Y-13227214D01*
X7790786Y-13227214D01*
X7762214Y-13241500D01*
X7890786Y-13412929D02*
X7862214Y-13427214D01*
X7790786Y-13427214D01*
X7762214Y-13412929D01*
X7747928Y-13384357D01*
X7747928Y-13355786D01*
X7762214Y-13327214D01*
X7790786Y-13312929D01*
X7862214Y-13312929D01*
X7890786Y-13298643D01*
X8033643Y-13227214D02*
X8033643Y-13527214D01*
X8033643Y-13241500D02*
X8062214Y-13227214D01*
X8119357Y-13227214D01*
X8147928Y-13241500D01*
X8162214Y-13255786D01*
X8176500Y-13284357D01*
X8176500Y-13370071D01*
X8162214Y-13398643D01*
X8147928Y-13412929D01*
X8119357Y-13427214D01*
X8062214Y-13427214D01*
X8033643Y-13412929D01*
X8305071Y-13398643D02*
X8319357Y-13412929D01*
X8305071Y-13427214D01*
X8290786Y-13412929D01*
X8305071Y-13398643D01*
X8305071Y-13427214D01*
X8305071Y-13241500D02*
X8319357Y-13255786D01*
X8305071Y-13270071D01*
X8290786Y-13255786D01*
X8305071Y-13241500D01*
X8305071Y-13270071D01*
M02*
